<?xml version="1.0" encoding="utf-8"?>
<!-- Generator: Adobe Illustrator 21.0.2, SVG Export Plug-In . SVG Version: 6.00 Build 0)  -->
<svg version="1.1" id="Слой_1" xmlns="http://www.w3.org/2000/svg" xmlns:xlink="http://www.w3.org/1999/xlink" x="0px" y="0px"
	 viewBox="0 0 841.9 595.3" style="enable-background:new 0 0 841.9 595.3;" xml:space="preserve">
<style type="text/css">
	.st0{fill:#E2E0E0;}
	.st1{fill:#7BC8A7;}
	.st2{fill:#F44036;}
	.st3{fill:#E31451;}
	.st4{fill:#FFA608;}
	.st5{fill:#F6C721;}
	.st6{fill:#CECECE;}
	.st7{fill:#311F59;}
	.st8{fill:#353364;}
	.st9{fill:#2D2056;}
	.st10{fill:none;}
	.st11{fill:#180E44;}
	.st12{fill:#FFFFFF;}
	.st13{fill:#4E9B78;}
	.st14{fill:#3B2F5D;}
	.st15{fill:#FC6A79;}
	.st16{fill:#FF8762;}
	.st17{fill:#F63A3D;}
	.st18{fill:#FF3647;}
	.st19{fill:#FF8567;}
	.st20{fill:#30093D;}
	.st21{fill:#51275D;}
	.st22{fill:#FD0C5C;}
	.st23{fill:#363465;}
	.st24{fill:#FD6575;}
	.st25{fill:#FFAC06;}
	.st26{fill:#F9D12B;}
	.st27{fill:#FF0D62;}
	.st28{fill:#FB6877;}
</style>
<path class="st0" d="M575.5,61.6c-34.3,0-66.5,8.9-94.7,24.7c0.5,2.9,0.7,5.8,0.8,8.6c0.4,17.4-6,31.7-6,31.7l17.2,18.4l0.3,0.4
	c0,0,20.1-8.4,41.6-3.8c-25.6,57.5,12.2,117.7,20.5,129.9c1,1.4,1.6,2.2,1.6,2.2l-3.3,6.4c0,0,0,0,0,0l-4.9,9.4
	c-3.1,2.5-5.9,5-8.4,7.6c-8.8,8.7-14.8,17.6-18.9,26.3c-8.5,18-8.7,34.8-7.3,45.8c-4.5-0.9-13-2.5-24.4-4.5
	c-8.8-1.5-19.4-3.3-31.3-5.2v-7.9c0-3.1-2.3-5.7-5.4-5.9l-40.5-3.8l-13.3-1.2l-47.9-4.4l1.7-5.7c11-28.4,58.8-17.4,58.8-17.4
	l9.2-1.1c-1.8-5.2,1-14.5,2.3-18.1c-1.5-2.1-2.7-4.7-3.4-7.8v0c-9.2-7.3-9.1-25.9-8.7-33.3c-9.3,3.7-17.4,0.3-18-10.7
	c2.7-19.3,0.1-43.7-3.2-63.1l-1.5,0.6c0,0-2.8,2.5-8.2,5.4c-15.4,8.4-51.9,20.6-103-11.2c-68.9-42.9-115.8-3.5-115.8-3.5
	s-16.2,11-27.8,40c-11.6,29-4.6,82.3-70.1,133.8c-63.6,50.1-18.4,150.4,25.1,174.2c1.3,0.7,2.6,1.3,3.8,1.9c2.6,1.1,5.3,2.4,8.2,3.6
	h0c3.4,1.5,6.9,2.9,10.6,4.4c7,2.8,14.5,5.6,22.5,8c1.6,0.5,3.2,1,4.9,1.4c6.7,1.9,13.7,3.5,21,4.7c0.7,0.1,1.3,0.2,2,0.3
	c38.7,6,84-0.1,128.3-42.6c2.3-2.3,4.7-4.6,7-7.1c77.6-81.7,168,19.7,168,19.7l43.6-22.4c15.8,9.6,32.3,17.2,49,22.3
	c15.9,4.9,32.1,7.6,48,7.6c111.4,0,202.9-110,202.9-227.1S687,61.6,575.5,61.6z"/>
<path class="st1" d="M566,86.6c-33.4-1.5-61.2,1.8-84.4,8.4c0.4,17.4-6,31.7-6,31.7l17.2,18.4l0.3,0.4c0,0,20.1-8.4,41.6-3.8
	c-25.6,57.5,12.2,117.7,20.5,129.9c1,1.4,1.6,2.2,1.6,2.2l-3.3,6.4c0,0,0,0,0,0l-4.9,9.4c-3.1,2.5-5.9,5-8.4,7.6
	c-8.8,8.7-14.8,17.6-18.9,26.3c-8.5,18-8.7,34.8-7.3,45.8c-4.5-0.9-13-2.5-24.4-4.5c-8.8-1.5-19.4-3.3-31.3-5.2v-7.9
	c0-3.1-2.3-5.7-5.4-5.9l-40.5-3.8l-13.3-1.2l-47.9-4.4l1.7-5.7c11-28.4,58.8-17.4,58.8-17.4l9.2-1.1c-1.8-5.2,1-14.5,2.3-18.1
	c-1.5-2.1-2.7-4.7-3.4-7.8v0c-9.2-7.3-9.1-25.9-8.7-33.3c-9.3,3.7-17.4,0.3-18-10.7c2.7-19.3,0.1-43.7-3.2-63.1
	c-0.6-3.8-1.3-7.4-2-10.7c-3,5.6-5.6,11.2-7.8,16.6c-14.4,36.1-13,68.2-13,68.2c-15.8-3.1-34.6,7.5-51.7,26.4
	c-14.4,15.9-27.6,37.7-37.1,62.4l-0.6,1.7c-7.2,19.3-12.1,40.3-13.3,61.4c-0.1,1.9-0.2,3.7-0.2,5.6c-0.2,8.9,0.2,17.8,1.3,26.6
	c0.3,2.1,0.6,4.1,1,6.2v0c3.4,19.9,10.8,39.2,23.3,56.6c14,19.5,34.3,36.7,62.5,49.8c88,22.3,155.8-2.4,205-37.2
	c55.3-39.1,87.2-91.1,98.2-103.9C676.3,384.6,772.8,96.1,566,86.6z"/>
<path class="st2" d="M458.8,167.2c-1.7,1.9-3.9,3.3-6.6,4.2c0,0,1.2-7-2.6-8.7c13.8-9,12.6-30.7,12.6-30.7S468.8,156.3,458.8,167.2z
	"/>
<path class="st3" d="M470.2,168.4c0,0-0.2,0.4-0.6,1.1c-3.2,5.3-17.4,28-28.5,29.6c1.9-9.9,5.6-24.5,11.2-27.7
	c2.7-0.9,4.9-2.4,6.6-4.2C458.8,167.2,464.1,170.7,470.2,168.4z"/>
<path class="st4" d="M458.2,351.8V362l-154.9-18.3c-0.6-0.1-1.2-0.1-1.8-0.1c-3.1,0-13.5,0.1-23.8,0.2c-7.3,0.1-14.7,0.2-19.4,0.2
	c-0.5,0-1.1,0-1.5,0.1c0,0,0,0,0,0c-2,0.2-3.8,0.9-5.3,1.7h0c-5,2.9-7.4,8.4-8.5,11.5v0c-0.5,1.3-0.6,2.2-0.6,2.2s-18.4,0-25.5,0
	h-1.4c-5.6,0-10,8.4-10,8.4l-0.7-1.3l-6.8-12.8c58.4-31.1,84.6-91.8,94.2-121.5l23.2,47.5l27.3,55.8l8.5,0.8l47.9,4.4l13.3,1.2
	l40.5,3.8C455.8,346.1,458.2,348.7,458.2,351.8z"/>
<path class="st5" d="M292,232.3c-9.7,29.7-35.8,90.5-94.2,121.5l-6.8-12.9l-41.5-78.2c-1.6-3.1-0.4-6.8,2.7-8.3l115.8-55.6
	c3.4-1.6,7.5-0.2,9.2,3.2l11.2,23L292,232.3z"/>
<path class="st5" d="M123,540.5c-10.9,9.6-51.7,39.1-95.1-8.2c3.3-3.7,8.3-5.6,8.3-5.6c22.6,3.7,46.5-3.5,46.5-3.5
	c7.9-7,11.2-8.1,12.4-8.1c0.6,0,0.8,0.3,0.8,0.3c0.3,1.3,0.7,2.5,1.3,3.6c2.3,4.8,6.8,9.1,11.3,12.5c7,5.2,14.1,8.4,14.1,8.4
	C122.8,540.1,122.9,540.3,123,540.5z"/>
<path class="st4" d="M146.1,553.4c-10.4,33.2-91,12.6-91,12.6c-1.9-0.9-3.6-1.8-5.3-2.7c0,0-0.1,0-0.1,0
	c-14.9-7.9-21.6-14.5-23.8-19.9c-1.7-4-0.8-7.2,0.9-9.7c0.3-0.5,0.7-1,1.1-1.4c43.4,47.3,84.2,17.8,95.1,8.2
	c0.4,0.5,0.9,1.1,1.3,1.6c0.5,0.6,1,1.2,1.6,1.7h0C135.3,553.3,146.1,553.4,146.1,553.4z"/>
<path class="st4" d="M49.7,563.3C23.1,552.6,13,542.2,9.5,534.4c2.6,5.4,11.3,8,16.4,9C28.1,548.8,34.8,555.4,49.7,563.3z"/>
<path class="st5" d="M36.2,526.7c0,0-5,1.9-8.3,5.6c-0.4,0.4-0.8,0.9-1.1,1.4c-1.7,2.6-2.5,5.8-0.9,9.7c-5.1-1-13.8-3.6-16.4-9
	c-3.6-8.1,0.1-13.4,0.1-13.4S13,515.6,36.2,526.7z"/>
<path class="st6" d="M427.9,401.1c-2.7,1.3-5.4,2.7-7.9,4c-24-1.1-107.8-5.7-140-14.2c0,0-105.8,137.3-154,152.8h0
	c-0.5-0.5-1.1-1.1-1.6-1.7c49-26.9,136-123.6,151.9-155.4c0,0,2.4-1.3,8.1-1.1c2.6,0.1,28.2,3.6,58.3,7.4h0.1
	C373,396.6,407.9,400.5,427.9,401.1z"/>
<path class="st7" d="M223.4,357.2c-9.8,0.5-15.9,13.2-15.9,13.2l-3.9-2.4c0.7-0.9,1-1.4,1-1.4c2.6-6.7,11.6-9.3,11.6-9.3
	L223.4,357.2z"/>
<path class="st8" d="M489.5,364.8c-25,9.1-82.2,27-146.9,28h-0.1c-30-3.7-55.6-7.2-58.3-7.4c-5.6-0.2-8.1,1.1-8.1,1.1
	c-0.2,0.5-0.5,1-0.8,1.5c-0.2,0.5-0.5,0.9-0.8,1.4c-0.8,1.4-1.6,2.8-2.6,4.3c-0.7,1.2-1.5,2.5-2.4,3.8c-0.8,1.1-1.6,2.3-2.4,3.5
	c-0.1,0.1-0.2,0.2-0.2,0.3c-0.5,0.7-1,1.4-1.5,2.1c-0.4,0.6-0.8,1.2-1.3,1.8c-0.7,0.9-1.3,1.8-2.1,2.8c-0.4,0.6-0.8,1.1-1.3,1.7
	c-2.2,2.9-4.4,5.8-6.9,8.9c-1,1.3-2.1,2.7-3.2,4c-29.4,36.4-76.3,85-111.8,110c-1.7,1.2-3.4,2.3-5,3.4c-0.2,0.1-0.3,0.2-0.5,0.3
	c-3.2,2.1-6.3,3.9-9.2,5.6c-0.4-0.5-0.9-1-1.3-1.6c-0.1-0.2-0.3-0.3-0.4-0.5c0,0-7.2-3.2-14.1-8.4c0.7-0.8,1.5-1.9,2.5-3.2
	c0.4-0.5,0.8-1,1.2-1.6c0.3-0.4,0.6-0.8,0.9-1.2c1.3-1.7,2.8-3.6,4.4-5.7c0.3-0.4,0.6-0.8,1-1.2c0.5-0.6,0.9-1.2,1.4-1.9
	c0.6-0.7,1.1-1.5,1.7-2.2c2-2.6,4.2-5.5,6.5-8.5c0.7-0.9,1.3-1.7,2-2.6c11.3-14.6,25.3-32.8,38.8-50.5c1.2-1.6,2.4-3.1,3.6-4.7
	c3.1-4,6.2-8,9.1-11.9c0.6-0.7,1.1-1.5,1.7-2.2c0.8-1,1.5-2,2.3-3c0.4-0.5,0.8-1,1.1-1.5c3-4,6-7.8,8.8-11.5
	c0.7-0.9,1.3-1.7,1.9-2.5c0-0.1,0.1-0.1,0.1-0.2c0.6-0.8,1.2-1.6,1.8-2.3c0.6-0.8,1.3-1.6,1.9-2.4c0.3-0.4,0.6-0.8,0.9-1.2
	c8.4-10.9,14.7-19.2,17.3-22.5c0.2-0.2,0.3-0.4,0.4-0.5c0.6-0.7,0.9-1.1,0.9-1.1s-10.1-2.7-18.8,9.8
	c-8.7,12.5-82.8,123.6-104.8,123.8c-0.6-1.2-1-2.4-1.3-3.6c0,0-0.2-0.3-0.8-0.3c-2.8-3.1,0-6.6,0-6.6
	c10.3-4.9,97.9-125.9,108.4-140.5l3.9,2.4c0,0,0.2-0.3,0.4-0.8c0.1-0.1,0.1-0.2,0.2-0.3c0.7-1.2,1.9-3.2,3.7-5.2
	c0.2-0.2,0.3-0.4,0.5-0.6c0.3-0.4,0.7-0.8,1.1-1.2c0.2-0.2,0.3-0.3,0.5-0.5c0.8-0.8,1.8-1.5,2.7-2.2c2-1.3,4.2-2.2,6.7-2.3
	c0.1,0,0.2,0,0.4,0l16.8-0.4c0-0.1,0-0.1,0-0.2c0.3,0.1,0.7,0.2,1,0.3l1.3,0.4v0c0.3,0.1,0.6,0.2,0.9,0.3c0.8,0.3,1.4,0.4,1.6,0.5
	l0.1,0c0,0,0-0.1,0-0.1c0.2-1,1.8-7.7,5.8-12.1h0c2-2.2,4.6-3.9,7.9-3.9h0.2c6.2,0,12.5,0.1,18.8,0.2c64.8,1.4,133,10.1,180,17.5
	C470.1,361.5,480.7,363.3,489.5,364.8z"/>
<path class="st7" d="M240.5,356.6c0.4-12.6,15.3-14.6,15.3-14.6c1.1,0,2.2,0,3.3,0c0,0-11.2,8.6-13.7,16.2
	C245.5,358.1,243.3,357.5,240.5,356.6l-2.8-0.9L240.5,356.6z"/>
<path class="st9" d="M519.7,376.3c-1,0.1-2.1,0.2-3.1,0.3c-0.5,0.1-0.9,0.1-1.4,0.1c-0.8,0.1-1.6,0.2-2.4,0.3
	c-1.1,0.1-2.1,0.2-3.1,0.3c-2.5,0.3-5,0.6-7.4,1c-3.2,0.5-6.3,1-9.3,1.6h-0.1c-2.1,0.4-4.2,0.8-6.3,1.2c-3.9,0.8-7.7,1.7-11.5,2.7
	c-0.2,0.1-0.5,0.1-0.7,0.2c-1,0.2-2,0.5-2.9,0.8c-1,0.3-1.9,0.5-2.9,0.8c-1.9,0.5-3.8,1.1-5.7,1.7c-1.9,0.6-3.7,1.2-5.5,1.8
	c-0.9,0.3-1.8,0.6-2.7,0.9c-0.9,0.3-1.8,0.6-2.6,0.9c-1.2,0.4-2.5,0.9-3.6,1.3c-0.8,0.3-1.6,0.6-2.3,0.9c-0.8,0.3-1.6,0.6-2.4,1
	c-5.6,2.2-10.9,4.6-15.8,7c-20-0.6-54.9-4.5-85.3-8.2c64.7-1,121.9-19,146.9-28c11.4,2,19.8,3.6,24.4,4.5c0.6,0.1,1.1,0.2,1.5,0.3
	c1.5,0.3,2.3,0.5,2.3,0.5L519.7,376.3z"/>
<line class="st10" x1="95.1" y1="515.1" x2="95.1" y2="515.1"/>
<path class="st11" d="M373.5,440.9c-4.1,3.6-6.7,6-6.7,6c-35.6,4-95.6-11.6-95.6-11.6c-29,55.6-125.1,118.2-125.1,118.2
	s-2.7-0.1-6.6-1.3C179.2,543.3,268,434.4,268,434.4s1.1-3,6.1-2.2c4.3,0.7,55.3,11.9,86.7,10.3c1.9-0.1,5.6-0.6,8.9-1.1
	c-0.1,0.1-0.1,0.2-0.2,0.2C370.9,441.5,372.2,441.2,373.5,440.9C373.4,440.9,373.4,440.9,373.5,440.9z"/>
<path class="st10" d="M125.9,537.8c0,0-1,1.1-2.9,2.7"/>
<path class="st10" d="M29.7,544.1c0,0-1.6-0.2-3.8-0.6"/>
<path class="st7" d="M220.8,385.5c0,0-97.7,127.4-112.3,146.1c-4.6-3.4-9.1-7.7-11.3-12.5c22-0.2,96.1-111.3,104.8-123.8
	C210.7,382.8,220.8,385.5,220.8,385.5z"/>
<line class="st10" x1="108.5" y1="531.6" x2="108.5" y2="531.6"/>
<path class="st10" d="M293.4,390.1c16.6,2.2,33.1,3,49.1,2.8"/>
<path class="st10" d="M139.5,552.1"/>
<path class="st10" d="M369.5,441.7c-1.4,1.5-2.1,2.3-2.1,2.3"/>
<path class="st9" d="M419.9,405.1c-27.6,14.6-44.4,30.4-50.2,36.3c-3.3,0.5-7.1,1-8.9,1.1c-31.4,1.6-82.4-9.6-86.7-10.3
	c-5-0.9-6.1,2.2-6.1,2.2s-88.8,108.9-128.5,117.7c-3.9-1.2-8.9-3.7-13.5-8.4c48.2-15.5,154-152.8,154-152.8
	C312.1,399.5,395.9,404,419.9,405.1z"/>
<path class="st11" d="M519.7,376.3c-37.4,3.2-68.1,13.3-91.8,24.8c-2.7,1.3-5.4,2.7-7.9,4c-27.9,14.8-44.8,30.8-50.4,36.5
	c1.4-0.2,2.7-0.5,4-0.8h0c11.6-10.1,35.9-30.1,53-35.5c0,0,3.2-1.7,8.6-4.2h0c17-7.9,55.8-23.8,86.1-20.1L519.7,376.3z"/>
<path class="st12" d="M525.1,384.9c0,0-62-13.6-155.2,67.8c0,0-71.3,0-83.1,16.5c0,0,14.8-22.3,80.5-20c0,0,67.9-73.6,157.9-69.1
	V384.9z"/>
<path class="st13" d="M526.8,386.6c0,0-62-13.6-155.2,67.8c0,0-71.3-1.2-83.8,13.8c0,0,15.5-19.6,81.2-17.2
	c0,0,62.1-67.4,146.2-69.2c1.1,0,0.6,0.6,1.7,0.6c2.8,0,7.1-0.6,9.9-0.4V386.6z"/>
<path class="st12" d="M566.8,272.8l-7.8,20.4c0,0-7.2,5-15.1,14.2v0c-3.3,3.9-6.7,8.5-9.8,13.8c-8.8,15.1-14.9,35.9-7.1,61.1h-10.3
	c0,0-0.1-0.2-0.2-0.6c-0.1-0.3-0.2-0.6-0.3-1c-0.1-0.2-0.2-0.5-0.2-0.8c-0.2-0.9-0.5-1.9-0.8-3.2c-0.5-2-0.9-4.5-1.3-7.4
	c-1.4-11-1.2-27.8,7.3-45.8c4.1-8.7,10.1-17.6,18.9-26.3c2.6-2.6,5.4-5.1,8.4-7.6l4.9-9.4c0,0,0,0,0,0l3.3-6.4c0,0-0.6-0.8-1.6-2.2
	c-8.3-12.1-46.1-72.4-20.5-129.9h0c2.6-5.9,5.9-11.8,10-17.6c0,0,0-0.1,0.1-0.1c0.1-0.1,0.1-0.1,0.1-0.2c0,0.1-0.1,0.1-0.1,0.2
	c-0.7,1.3-4.1,7.8-7,18.5c-6.3,23.7-9.9,67.9,23.8,122.3c0.9,1.4,1.7,2.8,2.6,4.2C565.1,270.3,565.9,271.5,566.8,272.8z"/>
<path class="st13" d="M545.1,123.6c0,0-34.8,64.9,23.5,150.9l-7.8,20.4c0,0-49.5,32.1-32.6,87.3l-1.3,4.3l-3.8-4.3h-4.9
	c0,0-18.7-49.5,32.1-90.8l8.7-18.7C559,272.8,500.3,195.9,545.1,123.6z"/>
<path class="st4" d="M278.7,211.9l-4.5-8.8c0,0-1.5-2.8-4.8-1.7l-8.3,4L278.7,211.9z"/>
<path class="st4" d="M160.3,255.4l-6.1,3.1c0,0-1.9,1-1.1,3.3l2.7,5.7L160.3,255.4z"/>
<path class="st14" d="M481.6,95c0.4,17.4-6,31.7-6,31.7l-10.7-16.5c4.5-1.5,8.5-6.6,6.8-12.1c-0.5-1.5-1.4-3-2.8-4.5
	c-0.2-0.2-0.3-0.3-0.5-0.5c-7.4-7.2-13.9,0.9-13.9,0.9l-4-3.2c-2.4-2-5.5-3-8.7-2.8l-19,1.1c-5.2-17.8-22.2-12.2-22.2-12.2
	c-37.5,19.6-15.4,64-1.9,74.3c0.6,0.4,1.1,0.8,1.7,1.1c2.8,1.6,4.9,3.2,6.7,4.7c6.6,5.7,7.7,10.7,15.9,15.3
	c10.4,5.8,26.6-9.4,26.6-9.4c3.8,1.7,2.6,8.7,2.6,8.7c-5.6,3.2-9.3,17.8-11.2,27.7c-1,5.4-1.5,9.4-1.5,9.4
	c-2.9,18.2-10.7,31.1-19.2,38.6c-3.1,2.8-6.4,4.8-9.5,6c-9.3,3.7-17.4,0.3-18-10.7c2.7-19.3,0.1-43.7-3.2-63.1
	c-0.6-3.8-1.3-7.4-2-10.7c-2.7-13.8-5.3-23.3-5.3-23.3c-17.4-59.4-12-69.7-6.5-82.8c5.5-13.2,17.7-13.5,17.7-13.5
	c11.2-16.1,26.3-12,26.3-12c43.4,7.5,57.7,29.1,60.9,49.3C481.3,89.3,481.5,92.2,481.6,95z"/>
<path class="st15" d="M555.2,271.7c-5.3,5.3-11.9,11.4-19.7,17.5c-5.5-8.3-11.9-14-15.8-17.1c3.6-2.7,6.2-4.8,6.2-4.8V216h-2.6
	c0,0-7.2,40-12.6,52.1c-5.4,12.2-9.9,11-9.9,11s-55,24.2-72.4,19c-2.3-0.7-4.1-2.1-5.5-4c-1.5-2.1-2.7-4.7-3.4-7.8v0
	c-3.4-13.2-0.3-33.2,0.7-39.3c8.4-7.4,16.3-20.4,19.2-38.6c0,0,0.5-4,1.5-9.4c11.1-1.7,25.3-24.3,28.5-29.6
	c11.6-3.6,20.2-18.6,23.2-24.3l0.3,0.4c0,0,20.1-8.4,41.6-3.8C509.1,199.3,546.9,259.5,555.2,271.7z"/>
<path class="st10" d="M544.6,144.9c-2.1-0.9-4.1-1.6-6.2-2.2c-0.2-0.1-0.4-0.1-0.6-0.2c-0.7-0.2-1.4-0.4-2.1-0.5
	c-0.4-0.1-0.7-0.2-1.1-0.3h0"/>
<path class="st16" d="M492.7,145.2c-2.9,5.7-11.6,20.7-23.2,24.3c0.4-0.7,0.6-1.1,0.6-1.1c-6.1,2.3-11.4-1.2-11.4-1.2
	c10-10.9,3.4-35.2,3.4-35.2s1.2,21.7-12.6,30.7c0,0-16.2,15.2-26.6,9.4c-8.2-4.6-9.3-9.6-15.9-15.3c-1.8-1.5-3.9-3.1-6.7-4.7
	c-0.5-0.3-1.1-0.7-1.7-1.1c-13.6-10.3-35.6-54.7,1.9-74.3c0,0,13.4-4.5,20,7.1c1.8,3,5,5,8.5,4.8l13.2-0.7c2.8-0.2,5.6,0.7,7.8,2.5
	l4.4,3.6c0,0,6.5-8,13.9-0.9c0.2,0.2,0.3,0.3,0.5,0.5c1.4,1.5,2.3,3,2.8,4.5c1.8,5.5-2.2,10.6-6.8,12.1l10.7,16.5L492.7,145.2z"/>
<path class="st10" d="M469.6,169.5c-0.6,0.2-1.3,0.4-1.9,0.5"/>
<path class="st10" d="M493.8,142.9c0,0-0.4,0.8-1.1,2.2"/>
<path class="st3" d="M526,216v51.3c0,0-2.6,2.1-6.2,4.8c-5.5,4.1-13.4,9.4-17.9,10.4c-7.4,1.6-52.6,19.8-52.6,19.8l-3.1,1.5
	c-1.1-0.3-1.9-0.5-1.9-0.5s-8.9-1.5-12.7,7.5l-0.2,0.1l-10.6,1.3c-1.8-5.2,1-14.5,2.3-18.1c1.4,1.9,3.2,3.3,5.5,4
	c17.4,5.2,72.4-19,72.4-19s4.4,1.2,9.9-11c5.4-12.2,12.6-52.1,12.6-52.1H526z"/>
<path class="st3" d="M419.6,286.4c-9.2-7.3-9.1-25.9-8.7-33.3c3.1-1.2,6.3-3.2,9.5-6C419.3,253.1,416.2,273.1,419.6,286.4z"/>
<path class="st10" d="M450.1,325.4c-2.7,0.4-6.1,0.9-9.9,1.4"/>
<line class="st10" x1="418.7" y1="329.3" x2="418.7" y2="329.3"/>
<path class="st10" d="M451.5,329c-2.8,0.4-6.3,0.9-10.2,1.3"/>
<g>
	<path class="st17" d="M555.2,271.7c-5.3,5.3-11.9,11.4-19.7,17.5c-19.5,15.2-46.6,30.7-79.9,35.5c0,0-2.1,0.3-5.4,0.8l1.4,3.6
		c4-0.6,6.6-1.1,6.6-1.1c33.2-3.4,60.4-18.8,80-34.3c5.8-4.5,10.8-9,15.2-13.3c0,0,0,0,0,0l3.3-6.4
		C556.8,273.9,556.2,273.1,555.2,271.7z"/>
	<path class="st17" d="M418.7,329.3v1.9c7.3,0.4,15.5-0.1,22.6-0.9l-1-3.6C433.2,327.7,425.1,328.8,418.7,329.3z"/>
</g>
<g>
	<path class="st18" d="M538.2,293.6c-19.6,15.5-46.9,30.9-80,34.3c0,0-2.6,0.5-6.6,1.1l1.9,4.9c2.7-0.2,4.7-0.4,4.7-0.4
		s33-4.6,63-10c4.1-8.7,10.1-17.6,18.9-26.3c2.6-2.6,5.4-5.1,8.4-7.6l4.9-9.4C549,284.6,543.9,289.1,538.2,293.6z"/>
	<path class="st18" d="M418.7,331.3v-1.9c-4.2,0.4-7.6,0.6-9.3,0.4c-7.5-0.7-10.5,11.1-10.5,11.1l13.3,1.2c0.4-2,1.9-7.9,7.7-7.5
		c7,0.6,19.1,1.6,21.7,0.7c0.2-0.1,0.6-0.2,1-0.2l-1.4-4.8C434.2,331.2,426,331.7,418.7,331.3z"/>
</g>
<g>
	<path class="st19" d="M519.7,272.1c-5.5,4.1-13.4,9.4-17.9,10.4c-7.4,1.6-52.6,19.8-52.6,19.8l-3.1,1.5c3.7,1.1,11.2,4.8,6.3,15.3
		c0,0-1.6,3.3-3.6,3.4l1.2,3c3.3-0.5,5.4-0.8,5.4-0.8c33.3-4.8,60.4-20.3,79.9-35.5C529.9,280.8,523.6,275.1,519.7,272.1z"/>
	<path class="st19" d="M430.7,313.4c0.2-0.9,0.5-1.8,0.9-2.6l-0.2,0.1l-10.6,1.3l-9.2,1.1c0,0-47.8-11-58.8,17.4l-1.7,5.7l47.9,4.4
		c0,0,3-11.8,10.5-11.1c1.7,0.2,5.1-0.1,9.3-0.4c6.3-0.6,14.5-1.6,21.5-2.5l-0.2-0.7C440,326.1,427.7,325.2,430.7,313.4z"/>
</g>
<path class="st20" d="M453.5,333.9c-3.6,0.3-8.4,0.7-10.8,1.2l-1.1-3.9l10.4-1.2L453.5,333.9z"/>
<path class="st21" d="M449.3,323.3l0.8,2.1l1.4,3.6l0.4,1.1l-10.4,1.2l-0.3-0.9l-1-3.6l-0.2-0.7c0,0-12.4-0.9-9.3-12.7
	c0.2-0.9,0.5-1.8,0.9-2.6c3.8-9,12.7-7.5,12.7-7.5s0.8,0.1,1.9,0.5c3.7,1.1,12.3,5,7.5,15.4C453.7,319.2,451.3,323.2,449.3,323.3z"
	/>
<path class="st22" d="M513.9,369.3c-4.5-0.9-13-2.5-24.4-4.5c-8.8-1.5-19.4-3.3-31.3-5.2v-7.9c0-3.1-2.3-5.7-5.4-5.9l-40.5-3.8
	c0.4-2,1.9-7.9,7.7-7.5c7,0.6,19.1,1.6,21.7,0.7c0.2-0.1,0.6-0.2,1-0.2c2.4-0.5,7.1-0.9,10.8-1.2c2.7-0.2,4.7-0.4,4.7-0.4
	s33-4.6,63-10C512.6,341.5,512.5,358.3,513.9,369.3z"/>
<polygon class="st8" points="283.2,533 325.4,492.6 283.2,492.6 "/>
<polygon class="st8" points="284.8,109.8 299.2,96 284.8,96 "/>
<polygon class="st8" points="782.2,238 783.1,194 760.7,216.5 "/>
<path class="st23" d="M758,515v9c0,2.9-2.3,5.2-5.2,5.2H749l-7.4,36c-0.6,3-3.2,5.1-6.3,5.1h-44.9c-3.8,0-7.1-2.8-7.8-6.5l-6.3-35.2
	h-2.9c-2.9,0-5.2-2.3-5.2-5.2V515c0-3.1,2.2-5.7,5.1-6.2c0.4-0.1,0.8-0.1,1.2-0.1h77C755.2,508.6,758,511.5,758,515z"/>
<path class="st24" d="M832.6,424.8l-92.7,67.5c-0.2-0.9-2.2-9.7-0.3-18.6c0.6-2.7,1.6-4.7,2.7-6.2c0,0,0.1-0.1,0.1-0.2
	c2.8-3.6,6.4-4.2,6.4-4.2c2.1-7,6.5-9.7,12.9-14.7c6.4-5,16.8-2.4,16.8-2.4c0-4,4.3-7.6,7.1-9.4c2.7-1.9,9.8-2,16.1-0.8
	c6.3,1.2,11.8-10.4,11.8-10.4c14.4-7.2,16.1-1,18.6-0.8C832.3,424.6,832.4,424.7,832.6,424.8z"/>
<path class="st10" d="M737.3,510.4c0,0,5,2.2,12.6-1.7"/>
<path class="st10" d="M772.3,515.1"/>
<path class="st25" d="M746,434.2c0,0-9,4.6-2.9,14.2c5.6,8.7,0.3,17.4-0.7,18.9c-0.1,0.1-0.1,0.2-0.1,0.2c-1.1,1.5-2.2,3.5-2.7,6.2
	c-1.8,8.8,0.1,17.7,0.3,18.6l-0.2,0.2l0,0c-1.9,0.6-12.3,4.6-22.7,16.2h-3.7l22.9-75.8l1,0.8c-0.6-5.6,16.8-14.2,8.4-13.3
	c-2.3,0.2-4-0.3-5.3-1.1l3.5-11.5c1,0.9,1.9,2.4,2.6,4.8C746.2,412.5,768.6,413.1,746,434.2z"/>
<path class="st26" d="M720.8,389.6c0,0-9.6,9.1-8.3,49.4c0,0,3.2-23.7,15.5-26.5c0,0-4.6-17.8,1.6-17.4c6.2,0.4,6.7-8.1,6.7-8.1
	s12.5-9.7,8.7,5.8c-2.2,9.2-4.6,12.6-6.2,13.8c-1.1,0.3-1.8,0.7-1.8,0.7s0.7,0.2,1.8-0.7c1.3-0.3,3.2-0.4,4.8,1.1l-3.5,11.5
	c-3.5-2.3-4-7.2-4-7.2c-10,6.5-7.7,15.3-7.7,15.3l7.5,5.6l-22.9,75.8h-38.5c-0.4,0-0.8,0-1.2,0.1c-3.1-1-7.1-3-6.7-6.4
	c0.6-5.4-4.2,0.3-7.4,0c-3.2-0.3-11,0.6-13.8-7.1c-2.7-7.7-1.4-8.1-4.9-8c-3.5,0.1-10.1-0.2-11.2-6.2c-1-6.1,8.4-2.2,8.4-2.2
	s3.3-5.4,6.8,0.4c3.5,5.8,9.6,0.6,9.6,0.6s5.9-4.6,12.9,2.5c0,0,0.8-0.5,2.1-1h0c4.1-1.9,13.1-4.8,15.6,4.1c0,0,5-1.1,9.8-0.4
	c4.6,0.7,9,3.1,8.4,9.8c0,0,2.3,9.7,7.8,6.8c5.5-2.9-2.6-14.3-2.6-14.3s-13-10.9-4.9-17.7c0.3-0.2,0.6-0.4,0.9-0.7
	c9.9-6.8,1-13.9,1-13.9s-3.3-7.8,1.5-9.6c0,0-49.7-26.6-34.8-38.2c14.9-11.6,35.3,32.3,35.3,32.3s-1.2-45.2,5.5-50.1
	c0,0-36.8-28.5-26.8-44c10-15.5,31.1,41,31.1,41s30.3-41.4,44-30.3C774.8,367.3,720.8,389.6,720.8,389.6z"/>
<path class="st27" d="M827.4,435.4c-8.2,0.3-10.8,10.4-10.8,10.4c-0.9,22.9-9.6,22-9.6,22c-7.2,0-15.3,3.5-15.3,3.5
	c-9.9,28.7-26.4,22.3-26.4,22.3c-5.7,8.3-11.1,12.8-15.5,15.1h-33c10.4-11.6,20.9-15.5,22.7-16.2l0,0c0.2-0.1,0.3-0.1,0.3-0.1
	s0,0,0-0.1l92.7-67.5C834.7,426.1,835.1,435,827.4,435.4z"/>
<path class="st10" d="M676.8,509.7c0,0-1.5-0.3-3.4-0.9"/>
<path class="st28" d="M710.8,501.7c-5.5,2.9-7.8-6.8-7.8-6.8c0.6-6.7-3.8-9.1-8.4-9.8c-10.6-18.2-40.8-53-52.6-66.3
	c2.3-0.3,5.7,2.3,5.7,2.3c7.4-1.5,11.9,3.2,10,6.3c-1.9,3,5.9,8,5.9,8c11.7-3.5,18.2,13,18.2,13c11-3.7,19,14.5,21.5,21.2
	c-8.1,6.9,4.9,17.7,4.9,17.7S716.3,498.8,710.8,501.7z"/>
<path class="st10" d="M704.2,472.1c0,0-0.3-0.9-0.9-2.5"/>
<path class="st27" d="M694.6,485.1c-4.8-0.7-9.8,0.4-9.8,0.4c-2.4-8.8-11.5-5.9-15.6-4.1h0c-7.2-0.5-5.4-6.9-5.4-6.9
	s0.9-12.6-2.6-11.1c-3.5,1.5-20.9-9.3-13.9-18c7-8.6-0.4-14.8-0.4-14.8s-5.9,3.9-7-6.3c-0.4-4,0.7-5.3,2.1-5.5
	C653.7,432,684,466.8,694.6,485.1z"/>
<line class="st10" x1="740.1" y1="419.1" x2="736" y2="432.8"/>
</svg>
