<?xml version="1.0" encoding="utf-8"?>
<!-- Generator: Adobe Illustrator 23.0.3, SVG Export Plug-In . SVG Version: 6.00 Build 0)  -->
<svg version="1.1" id="Слой_1" xmlns="http://www.w3.org/2000/svg" xmlns:xlink="http://www.w3.org/1999/xlink" x="0px" y="0px"
	 viewBox="0 0 500 500" style="enable-background:new 0 0 500 500;" xml:space="preserve">
<style type="text/css">
	.st0{fill:#515151;}
	.st1{fill:#FFCD00;}
	.st2{opacity:0.7;fill:#FFCD00;enable-background:new    ;}
	.st3{fill:#FFFFFF;}
	.st4{opacity:0.7;fill:#FFFFFF;enable-background:new    ;}
	.st5{fill:#9C9C9C;}
	.st6{fill:#263238;}
	.st7{fill:#FFBE00;}
	.st8{fill:#595855;}
	.st9{fill:none;stroke:#263238;stroke-miterlimit:10;}
	.st10{fill:#FFBE00;stroke:#3A3A3A;stroke-miterlimit:10;}
	.st11{fill:#FFBE00;stroke:#383837;stroke-miterlimit:10;}
	.st12{fill:none;stroke:#263238;stroke-linecap:round;stroke-linejoin:round;}
	.st13{fill:#FFFFFF;stroke:#263238;stroke-linecap:round;stroke-linejoin:round;}
	.st14{fill:#253A8E;}
	.st15{fill:#7D7D7D;stroke:#263238;stroke-linecap:round;stroke-linejoin:round;}
	.st16{fill:#263238;stroke:#263238;stroke-linecap:round;stroke-linejoin:round;}
	.st17{fill:none;stroke:#707070;stroke-linecap:round;stroke-linejoin:round;}
	.st18{fill:#FFBE00;stroke:#263238;stroke-linecap:round;stroke-linejoin:round;}
	.st19{fill:#3E4142;stroke:#263238;stroke-linecap:round;stroke-linejoin:round;}
	.st20{fill:none;stroke:#FFFFFF;stroke-linecap:round;stroke-linejoin:round;}
</style>
<ellipse class="st0" cx="263.1" cy="429.1" rx="183.8" ry="26.4"/>
<path class="st1" d="M361.8,336.6c-14.9,14.2-41.9,38.4-61.9,46.7c-5.5,2.3-9.1,7.9-8.5,13.8c3.1,31.2,52,63.7,102.4,24.8
	c30.2-23.3,21.7-61.6,5.9-82.5C390.5,327.3,372.7,326.1,361.8,336.6z"/>
<g id="freepik--background-simple--inject-3_1_">
	<g>
		<path class="st1" d="M362.6,66.2c0,0-58.5-37.6-118.9-39.8C183.2,24.3,124.9,58.1,98,114s12,114.9,11.6,181.7
			c-0.3,66.8,35.9,121.1,108.2,114.2s74.8-55.8,139.9-98.6S493.4,158.9,362.6,66.2z"/>
		<path class="st2" d="M362.6,66.2c0,0-58.5-37.6-118.9-39.8C183.2,24.3,124.9,58.1,98,114s12,114.9,11.6,181.7
			c-0.3,66.8,35.9,121.1,108.2,114.2s74.8-55.8,139.9-98.6S493.4,158.9,362.6,66.2z"/>
	</g>
</g>
<g id="freepik--background-simple--inject-3">
	<path class="st3" d="M161.5,76.2c0,0-58.8,30-88.2,76.2s-27.1,105.6,8.6,149.7s103.8,38.4,160.9,66.3c57.1,27.9,120,22.2,147-37
		s-13.8-81.3-20.7-149.9S300.5,12.7,161.5,76.2z"/>
	<path class="st4" d="M161.5,76.2c0,0-58.8,30-88.2,76.2s-27.1,105.6,8.6,149.7s103.8,38.4,160.9,66.3c57.1,27.9,120,22.2,147-37
		s-13.8-81.3-20.7-149.9S300.5,12.7,161.5,76.2z"/>
</g>
<g id="freepik--Plants--inject-3">
	<path class="st5" d="M127.6,314.3c2.3-0.8,6.5-4.6,6.5-4.6s-3.3-2-3.6-2c-2.6-1.1-8.3-1.7-10.4,0.8c-1.3,1.6-1,4,0.6,5.3
		c0.1,0.1,0.2,0.2,0.3,0.2C122.8,315.3,125.6,315,127.6,314.3z"/>
	<path class="st5" d="M170.6,277.8c0.1,0-1.7-3.5-1.9-3.7c-1.5-2.3-6-6-9.1-5.1c-2,0.6-3.1,2.7-2.5,4.8c0,0.1,0.1,0.3,0.2,0.3
		c0.8,2.1,3.3,3.4,5.3,3.9C165.1,278.6,170.6,277.8,170.6,277.8z"/>
	<path class="st5" d="M139.8,325.1c2-1.3,4.8-5.7,5-6c2.5,1.6,5.1,3,7.8,4.2c1.5,0.8,3.1,1.4,4.8,2.1c-0.8-0.2-1.4-0.3-1.5-0.3
		c-2.8-0.3-8.5,0.6-9.8,3.5c-0.8,1.9,0,4.2,2,4.9c0.2,0.1,0.3,0.1,0.4,0.2c2.1,0.8,4.7-0.3,6.5-1.4c1.8-1.2,4.2-4.9,4.8-5.9l1.9,0.8
		c3,1.2,5.9,2.3,8.9,3.6c1,0.4,2,0.9,3,1.4c-0.7-0.2-1.3-0.3-1.4-0.3c-2.8-0.3-8.5,0.6-9.8,3.5c-0.8,1.9,0,4.2,2,4.9
		c0.2,0.1,0.3,0.1,0.4,0.2c2.1,0.8,4.7-0.3,6.5-1.4c1.8-1.2,4-4.5,4.8-5.7c1,0.5,2,1,3,1.5c0.7,0.3,1.3,0.7,1.9,1.1l1.9,1.2
		c1.1,0.8,2.3,1.6,3.4,2.5c0.8,0.6,1.5,1.1,2.2,1.6c-1-0.4-3-1.3-3.2-1.4c-2.7-0.8-8.5-0.8-10.3,2c-1.1,1.8-0.6,4.1,1.1,5.2
		c0.1,0.1,0.3,0.2,0.3,0.2c2,1.1,4.7,0.5,6.6-0.4c2.1-0.9,5.4-4.8,5.8-5.2c1.2,0.9,2.4,1.8,3.5,2.6c3.1,2.5,5.8,4.8,7.8,6.5l1.5-1.4
		c-2.1-1.8-4.8-4.1-8.2-6.5c-1.2-0.9-2.5-1.9-3.9-2.9c0.7-1.4,1.4-2.9,1.9-4.4c2.4,0.3,6.9-1,7.5-1.2c0.5,1.4,1,2.8,1.4,4.2
		c1.2,3.7,2.2,7,2.9,9.6l1.7-1.5c-0.8-2.4-1.6-5.3-2.8-8.7c-0.5-1.4-1.1-3-1.7-4.6c0.5-0.3,4.8-2.8,6.2-4.8c1.3-1.7,2.3-4.2,1.7-6.5
		c-0.6-2-2.6-3.2-4.7-2.6c-0.1,0-0.3,0.1-0.3,0.1c-2.9,1.3-4.1,6.9-3.8,9.7c0,0.2,0.4,2,0.7,3.1c-0.3-0.7-0.5-1.3-0.8-2
		c-0.5-1.3-1.1-2.5-1.6-4c-0.3-0.7-0.6-1.4-0.9-2s-0.7-1.4-1-2c-0.8-1.5-1.8-3.1-2.7-4.7c1.1-0.4,5.2-2.1,6.6-3.7
		c1.4-1.5,3-3.9,2.6-6.1c-0.3-2-2.1-3.6-4.2-3.3c-0.2,0-0.3,0-0.4,0.1c-3.1,0.8-5.1,6.2-5.3,9c0,0.2,0.1,2.2,0.2,3.3
		c-0.6-0.9-1.2-1.9-1.8-2.7c-1.8-2.6-3.7-5.2-5.6-7.8c-0.6-0.8-1.2-1.6-1.7-2.4c0.4-0.2,5.2-2,6.9-3.7c1.4-1.5,3-3.9,2.6-6.1
		c-0.3-2-2.1-3.6-4.2-3.3c-0.2,0-0.3,0-0.4,0.1c-3.1,0.8-5.1,6.2-5.3,9c0,0.3,0.2,3.1,0.3,3.9c-1.3-1.8-2.5-3.6-3.7-5.3
		c-1.5-2.4-3-4.9-4.2-7.5c0.2-0.1,5.2-2,7-3.7c1.4-1.5,3-3.9,2.6-6.1c-0.3-2-2.1-3.6-4.2-3.3c-0.2,0-0.3,0-0.4,0.1
		c-3.1,0.8-5.1,6.2-5.3,9c0,0.2,0.1,2.5,0.2,3.5l-0.2,0.1c-1.2-2.6-2.1-5.3-2.8-8.1c-0.4-1.5-0.7-3.1-0.9-4.5
		c0.9-0.3,5.4-1.5,7.1-2.9c1.7-1.4,3.4-3.5,3.3-5.8c0-2.1-1.7-3.7-3.8-3.7c-0.2,0-0.3,0-0.4,0c-3.1,0.4-5.8,5.6-6.2,8.4
		c0,0.2-0.1,1.7-0.2,2.9c-0.1-0.7-0.3-1.4-0.3-2c-0.3-2.4-0.5-4.6-0.6-6.5c-0.1-1.1-0.1-2.1-0.1-3.1c0.8-0.8,4.1-3.9,4.9-5.9
		s1.4-4.7,0.3-6.6c-0.9-1.9-3.2-2.5-5.1-1.6c-0.1,0.1-0.3,0.2-0.3,0.2c-2.6,1.9-2.5,7.6-1.7,10.3c0.1,0.3,1.6,3.7,1.7,3.7l0.1-0.1
		c0,0.9,0,1.9,0.1,3c0.1,2,0.2,4.2,0.5,6.5c0.3,2.5,0.7,5.2,1.3,7.7c0.6,2.9,1.5,5.6,2.6,8.3l0.1,0.1c-0.6-0.7-2.4-2.6-2.5-2.7
		c-2.1-1.9-7.4-4.2-10.1-2.5c-1.8,1.1-2.3,3.5-1.1,5.2c0.1,0.1,0.2,0.3,0.3,0.3c1.4,1.8,4.1,2.4,6.2,2.4c2.4,0,7.1-2.1,7.5-2.3
		c1.2,2.7,2.6,5.3,4.2,7.9c0.9,1.4,1.9,2.9,2.8,4.4c-0.5-0.6-1-1.1-1.1-1.2c-2.1-1.9-7.4-4.2-10.1-2.5c-1.8,1.1-2.3,3.5-1.1,5.2
		c0.1,0.1,0.2,0.3,0.3,0.3c1.4,1.8,4.1,2.4,6.2,2.4c2.1,0,6.2-1.7,7.3-2.2c0.3,0.5,0.8,1.1,1.1,1.7c1.9,2.6,3.7,5.3,5.4,7.9
		c0.6,0.9,1.2,1.9,1.8,2.8c-0.5-0.5-0.9-0.9-0.9-1c-2.1-1.9-7.4-4.2-10.1-2.5c-1.8,1.1-2.3,3.5-1.1,5.2c0.1,0.1,0.2,0.3,0.3,0.3
		c1.4,1.8,4.1,2.4,6.2,2.4s5.9-1.5,7.1-2.1c0.6,0.9,1.1,2,1.6,2.9c0.3,0.7,0.7,1.3,0.9,2s0.6,1.4,0.8,2c0.5,1.3,1,2.6,1.5,3.9
		c0.3,0.8,0.7,1.7,0.9,2.6c-0.6-0.9-1.8-2.7-2-2.9c-1.7-1.9-3.8-3.2-6.2-4c-0.2-0.3-0.3-0.4-0.6-0.6c-1.5-1.4-3.9-1.2-5.3,0.3
		c-0.1,0.1-0.2,0.2-0.3,0.3c-1.8,2.6,0.3,8,2.1,10.2c0.1,0.2,1.4,1.4,2.2,2.2l-1.8-1.1c-1.1-0.8-2.3-1.5-3.6-2.4l-1.9-1.2
		c-0.6-0.4-1.4-0.8-2-1.1c-1.5-0.8-3.1-1.6-4.8-2.3c0.7-1,3.1-4.6,3.6-6.7c0.4-2.1,0.3-4.8-1.2-6.5c-1.4-1.6-3.7-1.8-5.3-0.4
		c-0.1,0.1-0.2,0.2-0.3,0.3c-2.1,2.3-0.8,8,0.6,10.4c0.1,0.2,1.3,1.8,2,2.7c-1-0.4-2-0.8-3-1.3c-3-1.2-5.9-2.3-9-3.4
		c-0.9-0.3-1.9-0.7-2.7-1c0.3-0.3,3.2-4.6,3.7-6.9c0.4-2.1,0.3-4.8-1.2-6.5c-1.4-1.6-3.7-1.8-5.3-0.4c-0.1,0.1-0.2,0.2-0.3,0.3
		c-2.1,2.3-0.8,8,0.6,10.4c0.1,0.2,1.9,2.5,2.3,3.1c-2-0.8-4-1.5-5.9-2.4c-2.6-1.1-5.2-2.5-7.6-3.9c0.1-0.2,3.2-4.6,3.7-7
		c0.4-2.1,0.3-4.8-1.2-6.5c-1.4-1.6-3.7-1.8-5.3-0.4c-0.1,0.1-0.2,0.2-0.3,0.3c-2.1,2.3-0.8,8,0.6,10.4c0.1,0.2,1.4,2,2.1,2.8
		l-0.1,0.2c-2.5-1.5-4.8-3.3-6.9-5.3c-1.2-1.1-2.3-2.1-3.3-3.2c0.7-0.8,3.7-4.2,4.3-6.4c0.7-2.1,0.8-4.8-0.4-6.6
		c-1.2-1.7-3.5-2.2-5.3-1c-0.1,0.1-0.2,0.2-0.3,0.3c-2.4,2.1-1.7,7.8-0.6,10.4c0.1,0.2,0.8,1.5,1.4,2.5c-0.4-0.5-0.9-1-1.4-1.4
		c-1.5-1.8-3-3.6-4.2-5.1c-0.7-0.9-1.3-1.7-1.8-2.5c0.3-1.1,1.3-5.5,0.9-7.6c-0.3-2.1-1.4-4.7-3.5-5.7c-1.8-1-4.1-0.3-5.1,1.4
		c-0.1,0.1-0.1,0.3-0.2,0.3c-1.1,3,2.1,7.7,4.3,9.5c0.2,0.2,3.5,2.2,3.5,2.2v-0.1c0.5,0.8,1,1.5,1.7,2.5c1.2,1.5,2.5,3.4,4,5.2
		c1.7,2,3.5,3.9,5.3,5.7c2.1,2,4.4,3.8,6.8,5.4l0.1,0.1c-0.9-0.3-3.4-0.8-3.7-0.9c-2.8-0.3-8.5,0.6-9.8,3.5c-0.8,1.9,0,4.2,2,4.9
		c0.2,0.1,0.3,0.1,0.4,0.2C135.4,327.3,138,326.3,139.8,325.1z"/>
	<path class="st5" d="M285.1,128.1c1.7,2.8,7.6,6.9,7.6,6.9s1.5-4.8,1.5-5.1c0.7-3.7-0.3-11-3.9-13c-2.5-1.2-5.3-0.2-6.5,2.2
		c-0.1,0.2-0.2,0.3-0.2,0.5C282.6,122.3,283.7,125.7,285.1,128.1z"/>
	<path class="st5" d="M343.9,172c0,0.1,3.9-3.1,4.1-3.4c2.5-2.7,5.9-9.3,3.9-13c-1.4-2.3-4.3-3.1-6.7-1.8c-0.2,0.1-0.3,0.2-0.4,0.3
		c-2.4,1.6-3.3,5.1-3.5,7.9C341.1,165.3,343.9,172,343.9,172z"/>
	<path class="st5" d="M275,146.6c2.2,2.1,8.6,4.4,9.1,4.6c-1.3,3.7-2.3,7.4-3.1,11.1c-0.5,2.2-0.8,4.4-1.3,6.6c0-1,0-2,0-2.1
		c-0.3-3.7-3.1-10.5-7.2-11.5c-2.6-0.5-5.2,1.2-5.7,3.9c0,0.2-0.1,0.3-0.1,0.5c-0.3,2.9,1.7,5.9,3.7,7.8c2,1.9,7.4,4,8.8,4.5
		c-0.2,0.8-0.3,1.7-0.4,2.5c-0.7,4.2-1.3,8.2-2,12.2c-0.3,1.4-0.6,2.8-0.8,4.2c0-0.9,0-1.7,0-1.9c-0.3-3.7-3.1-10.5-7.2-11.5
		c-2.6-0.5-5.2,1.2-5.7,3.9c0,0.2-0.1,0.3-0.1,0.5c-0.3,2.9,1.6,5.9,3.7,7.8c2,2,6.9,3.7,8.6,4.3c-0.3,1.4-0.7,2.8-1.1,4.2
		c-0.3,0.9-0.5,1.8-0.8,2.7l-1,2.7c-0.7,1.7-1.4,3.4-2,5c-0.5,1.1-0.9,2.2-1.4,3.3c0.3-1.4,0.8-4.2,0.8-4.4c0.3-3.7-1.5-11-5.3-12.4
		c-2.5-0.9-5.3,0.4-6.3,3c-0.1,0.2-0.1,0.3-0.2,0.5c-0.8,2.8,0.8,6,2.5,8.2c1.9,2.4,7.6,5.5,8.2,5.9c-0.8,1.8-1.6,3.5-2.4,5.1
		c-2.3,4.8-4.3,8.7-5.9,11.7l2.2,1.6c1.6-3.1,3.7-7.3,5.9-12.3c0.8-1.8,1.7-3.7,2.5-5.8c2,0.5,4.1,0.8,6.1,1.1
		c0.4,3.1,3.2,8.4,3.7,9.1c-1.6,1-3.3,2-4.8,3c-4.4,2.6-8.2,4.8-11.3,6.4l2.5,1.8c2.8-1.6,6.3-3.7,10.1-6c1.7-1,3.5-2.2,5.3-3.4
		c0.5,0.6,4.9,5.3,7.8,6.5c2.5,1.1,6,1.7,8.6,0.3c2.4-1.3,3.3-4.2,2-6.6c-0.1-0.2-0.2-0.3-0.3-0.4c-2.5-3.3-9.8-3.2-13.4-2
		c-0.2,0.1-2.4,1-3.7,1.7c0.8-0.5,1.4-1,2.2-1.5c1.5-1,3-2.1,4.6-3.2l2.3-1.8c0.8-0.6,1.5-1.3,2.3-1.9c1.7-1.5,3.4-3.1,5.1-4.8
		c0.9,1.3,4.2,5.9,6.5,7.4c2.4,1.4,5.8,2.6,8.5,1.5c2.5-0.9,3.9-3.7,3-6.2c-0.1-0.2-0.1-0.3-0.2-0.5c-1.9-3.7-9.3-4.7-12.9-4.1
		c-0.3,0-2.8,0.8-4.2,1.2c1-1,2-2,3-3.1c2.8-3.1,5.5-6.2,8.2-9.3c0.8-0.9,1.7-2,2.5-2.9c0.3,0.4,4.1,6,6.7,7.6
		c2.3,1.4,5.8,2.6,8.5,1.5c2.5-0.9,3.9-3.7,3-6.2c-0.1-0.2-0.1-0.3-0.2-0.5c-1.9-3.7-9.3-4.7-12.9-4.1c-0.3,0-4,1.1-4.9,1.4
		c1.9-2.1,3.7-4.2,5.7-6.1c2.6-2.6,5.3-5.2,8.2-7.5c0.2,0.3,4.1,6,6.7,7.7c2.3,1.4,5.8,2.6,8.5,1.5c2.5-0.9,3.9-3.7,3-6.2
		c-0.1-0.2-0.1-0.3-0.2-0.5c-1.9-3.7-9.3-4.7-12.9-4.1c-0.3,0-3.1,0.8-4.4,1.3l-0.1-0.2c3-2.3,6.2-4.2,9.5-5.9
		c1.9-0.9,3.7-1.8,5.4-2.5c0.6,1.2,3.5,6.5,5.8,8.1c2.3,1.7,5.4,3.2,8.2,2.5c2.6-0.6,4.2-3.2,3.7-5.9c0-0.2-0.1-0.3-0.2-0.5
		c-1.4-3.9-8.7-5.7-12.4-5.4c-0.2,0-2.2,0.3-3.7,0.6c0.8-0.3,1.6-0.7,2.4-0.9c2.9-1.1,5.7-2,8.1-2.6c1.4-0.4,2.6-0.8,3.8-1
		c1.2,0.8,6,4.1,8.8,4.6s6.3,0.3,8.4-1.6c2-1.8,2.3-4.8,0.5-6.9c-0.1-0.2-0.3-0.3-0.3-0.3c-3.1-2.7-10.4-1-13.5,0.8
		c-0.3,0.2-4.2,3.2-4.2,3.2l0.1,0.1c-1.1,0.3-2.4,0.6-3.7,0.9c-2.5,0.7-5.2,1.4-8.1,2.5c-3.2,1.1-6.3,2.4-9.3,3.9
		c-3.4,1.6-6.7,3.6-9.8,5.8l-0.1,0.1c0.7-0.9,2.6-3.7,2.8-4c1.7-3.2,3.2-10.5,0.3-13.5c-2-1.9-5-1.9-7,0.1c-0.1,0.1-0.3,0.3-0.3,0.3
		c-1.9,2.2-1.9,5.9-1.3,8.5c0.7,3.1,4.8,8.4,5.1,8.8c-3.1,2.3-6,4.8-8.7,7.6c-1.6,1.5-3.1,3.2-4.8,4.8c0.6-0.8,1.1-1.6,1.2-1.8
		c1.7-3.2,3.2-10.5,0.3-13.5c-2-1.9-5-1.9-6.9,0.1c-0.1,0.2-0.3,0.3-0.3,0.4c-1.9,2.2-1.9,5.8-1.3,8.5c0.6,2.7,4,7.4,4.9,8.6l-1.8,2
		c-2.8,3.1-5.6,6.2-8.4,9.1c-1,1-2,2-3.1,3.1c0.5-0.8,0.9-1.4,1-1.5c1.7-3.2,3.2-10.5,0.3-13.5c-2-1.9-5-1.9-7,0.1
		c-0.1,0.1-0.3,0.3-0.3,0.4c-1.9,2.2-1.9,5.9-1.3,8.5c0.6,2.7,3.7,7,4.8,8.4c-1.1,1-2.1,2-3.2,2.9c-0.8,0.6-1.4,1.2-2.2,1.8
		l-2.3,1.7c-1.5,1-3.1,2.1-4.5,3.1c-1,0.7-2,1.3-3.1,2c1-1,3-3.1,3.1-3.2c1.9-2.6,3-5.8,3.3-9c0.3-0.3,0.4-0.6,0.6-0.9
		c1.3-2.4,0.4-5.3-2-6.6c-0.2-0.1-0.3-0.2-0.5-0.3c-3.9-1.4-10,2.8-12.3,5.7c-0.2,0.2-1.4,2.2-2.2,3.5c0.3-0.8,0.7-1.6,1-2.5
		c0.7-1.7,1.4-3.4,2-5.2c0.3-0.9,0.6-1.8,0.9-2.7c0.3-0.9,0.5-1.9,0.8-2.8c0.6-2.2,1.1-4.5,1.6-6.8c1.4,0.6,6.7,2.6,9.5,2.5
		c2.8-0.1,6.2-1,7.9-3.4c1.6-2.1,1.2-5.2-0.9-6.9c-0.2-0.1-0.3-0.2-0.4-0.3c-3.6-2-10.3,1.2-13,3.7c-0.2,0.2-2,2.2-2.8,3.3
		c0.3-1.4,0.5-2.8,0.8-4.2c0.7-4.1,1.2-8.2,1.8-12.4c0.2-1.3,0.3-2.5,0.5-3.8c0.5,0.3,6.7,2.8,9.8,2.6c2.7-0.1,6.2-1,7.9-3.4
		c1.6-2.1,1.2-5.2-0.9-6.9c-0.2-0.1-0.3-0.2-0.4-0.3c-3.6-2-10.3,1.2-13,3.7c-0.2,0.2-2.7,3.1-3.3,3.9c0.4-2.8,0.8-5.5,1.4-8.2
		c0.7-3.7,1.6-7.3,2.8-10.8c0.3,0.1,6.7,2.8,9.8,2.7c2.7-0.1,6.2-1,7.9-3.4c1.6-2.1,1.2-5.3-0.9-6.9c-0.2-0.1-0.3-0.2-0.4-0.3
		c-3.6-2-10.3,1.2-13,3.7c-0.2,0.2-2.1,2.4-3,3.5l-0.2-0.1c1.3-3.6,2.8-7,4.7-10.2c1-1.8,2-3.5,3.1-5.1c1.2,0.6,6.5,3.4,9.3,3.7
		c2.7,0.2,6.3-0.3,8.2-2.5c1.9-2,1.8-5.1-0.2-6.9c-0.2-0.1-0.3-0.3-0.4-0.3c-3.4-2.4-10.4,0.1-13.3,2.3c-0.2,0.1-1.7,1.5-2.7,2.5
		c0.5-0.7,1-1.4,1.4-2.1c1.8-2.5,3.7-4.8,5.3-6.7c0.9-1.1,1.8-2,2.6-3c1.4,0,7.3,0.1,9.9-1c2.6-1.1,5.4-3.1,6.2-6
		c0.8-2.6-0.8-5.3-3.4-6c-0.2-0.1-0.3-0.1-0.5-0.1c-4.1-0.6-9.2,4.8-10.8,8.1c-0.2,0.3-1.8,5-1.7,5h0.1c-0.8,0.8-1.7,1.8-2.5,2.8
		c-1.7,2-3.6,4.1-5.4,6.6c-2,2.7-4,5.5-5.7,8.4c-2,3.2-3.7,6.6-4.9,10.2l-0.1,0.2c0.1-1.2,0.2-4.6,0.1-4.8
		c-0.3-3.7-3.1-10.5-7.2-11.5c-2.6-0.5-5.2,1.2-5.7,3.9c0,0.2-0.1,0.3-0.1,0.5C271,141.8,272.9,144.7,275,146.6z"/>
</g>
<g id="freepik--question-marks-2--inject-3">
	<path class="st6" d="M321.9,283.4v-2.6c0-13.4,17-14,17-23.5c0-4.2-3.4-6.9-8.4-6.9c-5.5,0-9,3-9,7.2v1.1c0,1-0.6,1.5-1.6,1.5
		l-10.3-0.4c-0.9,0-1.6-0.5-1.6-1.2v-1.1c0-11.6,9.3-19.7,22.8-19.7c13.3,0,21.9,7.6,21.9,18.8c0,16-17.2,16.1-17.2,24.9v1.7
		c0.1,0.8-0.5,1.5-1.3,1.6c-0.1,0-0.3,0-0.3,0h-10.2c-0.8,0.1-1.5-0.5-1.6-1.3C321.9,283.6,321.9,283.4,321.9,283.4z M321,298.9
		c0-4.2,3.7-7.7,8.3-7.7c4.3,0,8.2,3.5,8.2,7.7c0,4.2-3.9,7.7-8.3,7.7C324.9,306.6,321,303.1,321,298.9L321,298.9z"/>
	<path class="st7" d="M118.3,173v-2.3c0-11.6,14.8-12.1,14.8-20.5c0-3.6-2.9-5.9-7.3-5.9c-4.8,0-7.8,2.6-7.8,6.3v0.9
		c0,0.9-0.5,1.4-1.4,1.4l-8.9-0.3c-0.8,0-1.4-0.4-1.4-1v-0.9c0-10.1,8.1-17.1,19.9-17.1c11.5,0,19,6.5,19,16.3c0,13.9-15,14-15,21.6
		v1.5c0.1,0.7-0.4,1.4-1.1,1.4c-0.1,0-0.2,0-0.3,0h-8.9c-0.7,0.1-1.4-0.4-1.4-1.1C118.3,173.2,118.3,173.1,118.3,173z M117.5,186.4
		c0-3.7,3.2-6.7,7.2-6.7c3.7,0,7.1,3.1,7.1,6.7c0,3.7-3.4,6.7-7.2,6.7C120.8,193.2,117.6,190.2,117.5,186.4L117.5,186.4z"/>
	<path class="st8" d="M305.8,83.9v-1.1c0-5.9,7.5-6.1,7.5-10.4c0-1.8-1.4-3-3.7-3c-2.4,0-3.9,1.3-3.9,3.1V73c0,0.4-0.3,0.7-0.8,0.7
		l-4.5-0.2c-0.4,0-0.8-0.2-0.8-0.5v-0.4c0-5.1,4.1-8.7,10-8.7c5.9,0,9.6,3.3,9.6,8.2c0,7-7.6,7-7.6,10.9v0.8c0,0.3-0.2,0.7-0.6,0.7
		c-0.1,0-0.1,0-0.2,0h-4.5C306.1,84.6,305.8,84.3,305.8,83.9C305.8,84,305.8,83.9,305.8,83.9z M305.3,90.7c-0.2-2,1.4-3.7,3.4-3.9
		c2-0.2,3.7,1.4,3.9,3.4c0.2,2-1.4,3.7-3.4,3.9c-0.1,0-0.2,0-0.3,0C307,94.1,305.4,92.6,305.3,90.7L305.3,90.7z"/>
	<path class="st9" d="M87.6,240.9v-1.4c0-7.4,9.4-7.7,9.4-13c0-2.3-1.9-3.8-4.7-3.8c-3.1,0-4.9,1.6-4.9,4v0.6c0,0.6-0.3,0.8-0.9,0.8
		l-5.7-0.2c-0.5,0-0.9-0.3-0.9-0.7v-0.6c0-6.5,5.1-10.9,12.6-10.9c7.4,0,12.1,4.2,12.1,10.4c0,8.8-9.5,8.9-9.5,13.8v0.9
		c0.1,0.4-0.3,0.8-0.7,0.9c-0.1,0-0.2,0-0.2,0h-5.6C88.2,241.8,87.8,241.5,87.6,240.9C87.6,241.1,87.6,241,87.6,240.9z M87.1,249.5
		c-0.2-2.5,1.7-4.7,4.2-4.8s4.7,1.7,4.8,4.2s-1.7,4.7-4.2,4.8c-0.1,0-0.3,0-0.3,0C89.2,253.9,87.2,251.9,87.1,249.5L87.1,249.5z"/>
	<path class="st6" d="M159.1,106.9v-1c0-5.1,6.5-5.3,6.5-8.9c0-1.5-1.3-2.6-3.2-2.6c-2.1,0-3.4,1.1-3.4,2.7v0.4
		c0,0.4-0.3,0.6-0.6,0.6l-3.9-0.2c-0.3,0-0.6-0.2-0.6-0.4V97c0-4.4,3.5-7.5,8.7-7.5c5.2,0,8.2,2.9,8.2,7.1c0,6.1-6.5,6.1-6.5,9.4
		v0.7c0,0.3-0.2,0.6-0.5,0.6c-0.1,0-0.1,0-0.2,0h-3.9C159.3,107.4,159,107.1,159.1,106.9C159.1,106.9,159.1,106.9,159.1,106.9z
		 M158.7,112.7c-0.1-1.7,1.2-3.1,3-3.3c1.7-0.1,3.1,1.2,3.3,3c0.1,1.7-1.2,3.1-3,3.3c-0.1,0-0.1,0-0.2,0
		C160.2,115.7,158.7,114.4,158.7,112.7L158.7,112.7z"/>
	<path class="st9" d="M274,319.8v-1c0-5.1,6.5-5.3,6.5-8.9c0-1.5-1.3-2.6-3.2-2.6c-2.1,0-3.4,1.1-3.4,2.7v0.4c0,0.4-0.3,0.6-0.6,0.6
		l-3.9-0.2c-0.3,0-0.6-0.2-0.6-0.4v-0.4c0-4.4,3.5-7.5,8.7-7.5c5.2,0,8.3,2.9,8.3,7.1c0,6.1-6.5,6.1-6.5,9.4v0.7
		c0,0.3-0.2,0.6-0.5,0.6h-0.1h-3.9C274.4,320.4,274.1,320.1,274,319.8C274,319.9,274,319.9,274,319.8z M273.7,325.7
		c-0.1-1.7,1.2-3.1,3-3.3c1.7-0.1,3.1,1.2,3.3,3c0.1,1.7-1.2,3.1-3,3.3c-0.1,0-0.1,0-0.2,0C275.1,328.7,273.8,327.4,273.7,325.7
		L273.7,325.7z"/>
</g>
<path class="st6" d="M243.6,337.5c-0.1-0.2-0.1-0.3-0.2-0.5c-0.1-0.2-0.1-0.3-0.2-0.5c-0.1-0.2-0.1-0.3-0.2-0.5
	c-0.1-0.2-0.1-0.3-0.2-0.5c-0.1-0.2-0.1-0.3-0.2-0.5s-0.1-0.3-0.2-0.5l-0.2-0.5c-0.1-0.2-0.1-0.3-0.2-0.5l-0.2-0.5
	c-0.1-0.2-0.1-0.3-0.2-0.5l-0.2-0.5c-0.1-0.2-0.1-0.3-0.2-0.5l-0.2-0.5c-0.1-0.2-0.1-0.3-0.2-0.5l-0.2-0.5c-0.1-0.2-0.1-0.3-0.2-0.5
	c-0.1-0.2-0.1-0.3-0.2-0.5c-0.1-0.2-0.1-0.3-0.2-0.5c-0.1-0.2-0.1-0.3-0.2-0.5c-2.5-7.7-10.4-13.3-19-13.3
	c-8.3,0-15.6,4.8-18.7,11.7c-0.1,0.2-0.2,0.3-0.3,0.5l-0.2,0.5c-0.1,0.2-0.2,0.3-0.3,0.5c-0.1,0.2-0.2,0.3-0.3,0.5l-0.2,0.5
	c-0.1,0.2-0.2,0.3-0.3,0.5c-0.1,0.2-0.2,0.3-0.3,0.5c-0.1,0.2-0.2,0.3-0.3,0.5l-0.2,0.5c-0.1,0.2-0.2,0.3-0.3,0.5
	c-0.1,0.2-0.2,0.3-0.3,0.5l-0.2,0.5c-0.1,0.2-0.2,0.3-0.3,0.5c-0.1,0.2-0.2,0.3-0.3,0.5l-0.2,0.5c-0.1,0.2-0.2,0.3-0.3,0.5
	s-0.2,0.3-0.3,0.5l-0.2,0.5c-0.1,0.2-0.2,0.3-0.3,0.5c-0.1,0.2-0.2,0.3-0.3,0.5c-1.4,2.8-2,5.9-2,9.1c0,12.5,10.8,22.7,24.2,22.7
	c13.1,0,24.4-10.2,24.4-22.7c0-2.4-0.4-4.8-1.3-7C243.7,337.9,243.6,337.7,243.6,337.5z"/>
<path class="st6" d="M225.1,165.5c-40.1,0-67.3,23.6-67.3,58v3.1c0,1,0.6,2,1.4,2.5c0.2,0.2,0.3,0.3,0.5,0.4
	c0.2,0.2,0.3,0.3,0.5,0.4c0.2,0.2,0.3,0.3,0.5,0.4c0.2,0.2,0.3,0.3,0.5,0.4c0.2,0.2,0.3,0.3,0.5,0.4c0.2,0.2,0.3,0.3,0.5,0.4
	c0.2,0.2,0.3,0.3,0.5,0.4c0.2,0.2,0.3,0.3,0.5,0.4c0.2,0.2,0.3,0.3,0.5,0.4c0.2,0.2,0.4,0.3,0.6,0.4c0.2,0.2,0.3,0.3,0.5,0.4
	c0.2,0.2,0.3,0.3,0.5,0.4c0.2,0.2,0.3,0.3,0.5,0.4c0.2,0.2,0.3,0.3,0.5,0.4c0.2,0.2,0.3,0.3,0.5,0.4c0.2,0.2,0.3,0.3,0.5,0.4
	c0.2,0.2,0.3,0.3,0.5,0.4c0.2,0.2,0.3,0.3,0.5,0.4c0.2,0.2,0.3,0.3,0.5,0.4c0.2,0.2,0.3,0.3,0.5,0.4c0.9,0.8,2,1.2,3.2,1.1l25,0.9
	c2.5,0,4-1.2,4-3.7v-2.5c0-10.3,8.4-17.5,21.7-17.5c12.1,0,20.3,6.5,20.3,16.6c0,1.1-0.1,2.3-0.3,3.4
	c-12.6,16.5-45.2,23.7-45.2,55.6v7.6c0,3.1,1.7,4.8,4.8,4.8h30c3.1,0,4.8-1.7,4.8-4.8V294c0-25.9,50.8-26.1,50.8-73.3
	C289.6,187.6,264.3,165.5,225.1,165.5z"/>
<path class="st10" d="M199,299.2v-7.6c0-39.5,50-41.2,50-69.4c0-12.2-9.9-20.2-24.7-20.2c-16.2,0-26.4,8.8-26.4,21.3v3.1
	c0,3.1-1.7,4.6-4.8,4.6l-30.4-1.1c-2.8,0-4.8-1.4-4.8-3.4v-3.1c0-34.4,27.2-58,67.3-58c39.2,0,64.5,22.2,64.5,55.4
	c0,47.2-50.8,47.5-50.8,73.3v5.1c0,3.1-1.7,4.8-4.8,4.8h-30.1C200.7,304.1,199,302.4,199,299.2z"/>
<path class="st11" d="M196.4,345.1c0-12.5,11-22.7,24.4-22.7c12.8,0,24.2,10.3,24.2,22.7s-11.4,22.7-24.4,22.7
	C207.2,367.7,196.4,357.5,196.4,345.1z"/>
<ellipse class="st6" cx="219.4" cy="383.7" rx="42.4" ry="9.5"/>
<path class="st12" d="M262.1,80.7c2.9,0.1,5.8-0.2,8.6-0.7"/>
<g>
	<path class="st13" d="M185.2,169l-1.7,3.8c0,0-10,1.1-10,1.8c0,0.7,0.1,6,0.6,6.1c0.5,0.2,0.9,0.2,1.3,0l14.8-3.8l1.4-6.7
		L185.2,169z"/>
	<path class="st13" d="M182.4,175.7c-1.8,1.5-3.8,2.8-5.9,4c-2.3,1.1-2.4,2.7-1.7,2.7c0.7,0,7.5-2.8,7.5-2.8s6.1-1.6,7-2.1
		s1-3.2,1-3.2"/>
	<polygon class="st14" points="194,96.7 187.8,143.9 183.6,169.5 193,171.7 200.2,141.4 203.5,122.4 	"/>
	<polygon class="st13" points="243.6,62.5 239.9,62 232.3,59 231.9,68.2 243.9,69.3 	"/>
	<path class="st15" d="M199.8,229.9c-2.8,3.2-5.4,6.7-7.8,10.2c-3.2,4.9-2.1,10.1,1.9,11.4c4,1.3,8.9-2.3,10.3-5s0.9-4.2,3-7.1
		c2.1-2.8,3.7-5.6,3-9.3C209.3,226.3,201.8,227.3,199.8,229.9z"/>
	<path class="st13" d="M203.7,247.1c-0.3-0.5-0.5-1.2-0.9-1.8c-3-5.2-8.3-4.9-11.5-3.9c-2.2,4.4-0.9,8.8,2.6,10
		C197.4,252.7,202,249.8,203.7,247.1z"/>
	<path class="st13" d="M202.8,245.3c-1.1,1.6-2.6,6.1-8.4,4.3c-1.6-0.5-3.1-1.4-4.1-2.6c0.3,2.1,1.6,3.8,3.6,4.5
		c3.9,1.3,8.9-2.3,10.3-5s0.9-4.2,3-7.1c2.1-2.8,3.7-5.6,3-9.3c0,4.5-1.6,5.2-3.7,7.7C204.2,240.2,203.9,243.7,202.8,245.3z"/>
	<path class="st15" d="M254.8,229.9c2.8,3.2,5.4,6.7,7.8,10.2c3.2,4.9,2.1,10.1-1.9,11.4c-3.9,1.4-8.9-2.3-10.3-5s-0.9-4.2-3-7.1
		c-2.1-2.8-3.7-5.6-3-9.3C245.3,226.3,252.7,227.3,254.8,229.9z"/>
	<path class="st13" d="M250.9,247.1c0.3-0.5,0.5-1.2,0.9-1.8c3-5.2,8.3-4.9,11.5-3.9c2.2,4.4,0.9,8.8-2.6,10
		C257.3,252.7,252.7,249.8,250.9,247.1z"/>
	<path class="st13" d="M251.8,245.3c1.1,1.6,2.6,6.1,8.4,4.3c1.6-0.5,3.1-1.4,4.1-2.6c-0.3,2.1-1.6,3.8-3.6,4.5
		c-3.9,1.3-8.9-2.3-10.3-5s-0.9-4.2-3-7.1c-2.1-2.8-3.7-5.6-3-9.3c0,4.5,1.6,5.2,3.7,7.7C250.3,240.2,250.8,243.7,251.8,245.3z"/>
	<path class="st16" d="M263.6,165.5c0-3.3-5.8-7.1-5.8-7.1c-8.7-8.8-24.4-7.7-30.2-6.9c-5.8-0.8-21.5-2-30.2,6.9
		c0,0-5.8,3.7-5.8,7.1s7.3,63.9,7.3,63.9s-0.2,3.2,5,3.5c5.2,0.4,7.4-2.6,7.4-2.6l2.1-51.3c0,0,8.4-6,9.9-6.1
		c0.5-0.1,1.3-0.2,2.1-0.3v0.1c1.4-0.3,3-0.3,4.5,0l0,0c0.8,0.1,1.5,0.2,2.1,0.3c1.5,0.2,9.9,6.1,9.9,6.1l2.1,51.3
		c0,0,2.3,3,7.4,2.6c5.2-0.4,5-3.5,5-3.5S263.6,168.9,263.6,165.5z"/>
	<path class="st17" d="M241.7,179.1c0,0-1.1-12.4,4.3-17"/>
	<path class="st17" d="M213.4,179.1c0,0,0.5-10.3-0.5-14c-1.1-3.7-3-5.2-3-5.2"/>
	<path class="st17" d="M220.3,154.7c0,0,6,6.9,7.1,12.7"/>
	<path class="st17" d="M233.4,155.1c0,0-3.3,3.7-3.7,6.5"/>
	<path class="st18" d="M225,82.6c0,0-5.4-0.7-7.3,1.1c-1.9,1.9-8.2,8.7-8.2,8.7l3.3,59.3c0,0,7.7,3,14.2,3s14-2.4,15.7-3.7
		c1.7-1.3,0.2-64.9,0.2-64.9S229,82,225,82.6z"/>
	<path class="st14" d="M234.9,83.8c2.8-0.5,5.7-0.7,8.6-0.7c3.7,0,7.4,0.2,7.4,0.2l9.3-8.9L241.4,70l1.5-8.6c0,0,13.8-0.9,20.7,0.4
		s17.7,4.7,18.3,4.7c0.5,0,1.3,2.1,0.7,3.5c-0.5,1.4-18.1,20.9-23.4,26c-3.4,3.3-6.7,6.9-9.7,10.6l-2.4,41.6c0,0,6.1,3.3,7.3,4.5
		c1.1,1.1,2.4,5.6,2.4,5.6s-11.4-4.7-14.3-5c-3-0.4-4.9-0.5-5.4-1.6c-0.5-1.1-5.2-50.9-5.2-50.9l0.2-15.9
		C232.1,84.8,232.1,83.8,234.9,83.8z"/>
	<polygon class="st12" points="246.1,109.4 236,110.7 236.9,114.5 241.9,115.7 246.8,113.5 	"/>
	<polyline class="st12" points="251.8,87.1 249.6,106.6 255.4,90 	"/>
	<path class="st12" d="M260.2,74.3c0,0,4.7,0.9,11.7-1.9"/>
	<path class="st13" d="M218.7,82.4l0.9,13.6c1.7,2.3,4.4,3.6,7.3,3.5c4.7-0.2,5.2-3.5,5.2-3.5V84.8L218.7,82.4z"/>
	<path class="st15" d="M232.3,89.4l-0.4,11.2l3.9-6.1c0,0,4.3,5.4,5.4,5.2c1.1-0.2-0.7-2.4-1.1-4.5s-3.5-9.3-3.9-11.4
		c-0.4-2.1-3.9-2.4-4.1-1.5c-0.1,0.8-0.1,1.6,0,2.4L232.3,89.4z"/>
	<path class="st14" d="M219.4,99.5c0,0,0.7,52.2-1.1,52.8c-1.9,0.6-9.3,0.7-14.1,3c-4.8,2.3-6.9,3.2-6.9,3.2s2.3-5.4,4.9-7.8
		c1.7-1.5,3.7-2.9,5.8-3.9l-4.9-25c0,0-8.9-23.7-9.1-25c-0.2-1.3,17-11,20.5-12.7c3.5-1.7,4.5-0.2,4.5-0.2L219.4,99.5z"/>
	<path class="st15" d="M214.7,81.4c0,0-4.5,14.2-4.9,16.1c-0.4,1.9,0,1.9,1.4,0.5s4.7-4.5,4.7-4.5l3.5,6l-0.2-11v-6.3
		C219.2,82.2,219,79.6,214.7,81.4z"/>
	<polygon class="st12" points="205.9,112 216.9,112 216.8,116.5 211.9,118.2 205.8,116.5 	"/>
	<path class="st13" d="M236.2,63c0,0,2.6,11.4,3.2,13.2c0.5,1.8-3,9.1-4.1,10.8c-0.9,1.4-2.4,2.4-4.1,2.6c-1.3,0-8.4-2.4-10.1-3.5
		c-1.7-1.1-3.3-2.4-3.3-2.4c-1.6,0.7-3.5,0.5-4.9-0.7c-2.3-2.1-5.2-4.5-4.5-6.1c0.7-1.7,2.4-2.7,4.3-2.6c2.1,0,1.4-0.2,1.4-0.2
		s-3.7-5.4-3.7-9.7s8-7.4,12.7-7.4c3.2,0.1,6.4,0.9,9.3,2.3L236.2,63z"/>
	<polyline class="st12" points="229.7,67.2 233,73.6 229.7,75.8 228.1,74 	"/>
	<path class="st12" d="M235.8,73c0,0,0.2,1.5-2.1,3.9"/>
	<path class="st6" d="M226.1,69.6c0,0.9-0.4,1.6-0.8,1.6s-0.8-0.7-0.8-1.6s0.4-1.6,0.8-1.6S226.1,68.7,226.1,69.6z"/>
	<path class="st6" d="M231.9,65c0.5,0,0.8,0.7,0.8,1.6s-0.4,1.6-0.8,1.6s-0.8-0.7-0.8-1.6S231.5,65,231.9,65z"/>
	<path class="st19" d="M216,53.2c0,0-11.7,4.3-12.1,9.7c-0.4,5.4,10.5,12.9,11,13.8c0.5,0.9,2.3-1.1,2.3-1.1c-0.7-1-1-2.3-0.7-3.5
		c0.5-1.9,3-4.1,3-5c0-0.9-2.8,0.7-2.8-2.1c0-2.8,6.9-4.5,11-4.3c4.1,0.2,7.7,7.1,10.6,3.7c3-3.3-1.4-4.2-1.4-4.2s5.8-0.7,5.8-3.7
		s-3-5-4.3-5s-4.9,2.3-4.9-0.2s3.5-3.5,0.2-7.4s-7.7,0-7.7,1.5s-1.1,4.2-1.9,4.2s-3-3.3-5.6-1.4C217,49.4,216,51.3,216,53.2z"/>
	<line class="st12" x1="220.8" y1="67.6" x2="226.9" y2="65.4"/>
	<path class="st12" d="M227.8,62.8c-0.1-0.5,0-1.2,0.3-1.7"/>
	<path class="st20" d="M228,61c0.5-0.8,1.4-1.9,3.4-2.8"/>
</g>
</svg>
