<?xml version="1.0" encoding="utf-8"?>
<!-- Generator: Adobe Illustrator 21.0.2, SVG Export Plug-In . SVG Version: 6.00 Build 0)  -->
<svg version="1.1" id="Слой_1" xmlns="http://www.w3.org/2000/svg" xmlns:xlink="http://www.w3.org/1999/xlink" x="0px" y="0px"
	 viewBox="0 0 597 550.3" style="enable-background:new 0 0 597 550.3;" xml:space="preserve">
<style type="text/css">
	.st0{fill:#FFFFFF;}
	.st1{fill:#A00D0D;}
</style>
<g>
	<g>
		<path class="st0" d="M326.7,348.9c7.4,0,14.8,0,22.3,0c1.7,0,3.4,0.2,5.1,0.5c2.4,0.4,3.5,2.9,2.1,4.9c-0.9,1.3-1.9,2.5-2.9,3.8
			c-0.2,0.3-0.6,0.4-1,0.4c-1.3,0-2.6-0.1-3.9-0.2c-1.7-0.1-3.4-0.2-5.1-0.2c-26.3,0-52.6,0-78.9,0c-3.2,0-6.2-1-8.9-2.8
			c-1.9-1.2-1.7-3.3,0.4-4.1c1.6-0.6,3.2-1.1,4.9-1.5c1.4-0.4,2.8-0.6,4.2-0.8c1.8-0.2,3.6-0.4,5.4-0.5c2-0.2,4-0.2,6-0.6
			c2.7-0.5,5.1-1.6,7.5-2.9c3.5-2,6.5-4.5,9.1-7.7c2.2-2.8,4.1-5.7,5.4-9c0.8-2,1.5-3.9,2.2-6c0.4-1.3,0.7-2.7,0.8-4.1
			c0.2-2-0.8-3.2-2.8-3.5c-1.1-0.2-2.1-0.2-3.2-0.4c-2.5-0.3-5-0.6-7.5-0.9c-1.8-0.2-3.6-0.4-5.4-0.7c-2.1-0.3-4.2-0.7-6.3-1.1
			c-2.3-0.5-4.5-1-6.8-1.5c-1.8-0.4-3.5-1-5.3-1.5c-2.1-0.7-4.2-1.3-6.3-2.1c-2.9-1.1-5.8-2.2-8.6-3.5c-2.9-1.3-5.8-2.6-8.6-4.1
			c-3.2-1.6-6.3-3.4-9.3-5.2c-3.3-2.1-6.6-4.2-9.7-6.6c-3.5-2.7-6.7-5.6-9.9-8.5c-1.8-1.6-3.6-3.3-5.3-5.1c-3.2-3.5-6.4-7-9.4-10.7
			c-2.4-3-4.7-6.1-6.9-9.2c-1.7-2.4-3.2-4.9-4.6-7.5c-1.9-3.3-3.7-6.7-5.3-10.2c-1.5-3.3-2.7-6.6-4-10c-0.9-2.5-1.8-5.1-2.6-7.6
			c-0.7-2.1-1.3-4.2-1.8-6.3c-0.6-2.3-1.2-4.6-1.7-6.9c-0.3-1.4-0.5-2.9-0.7-4.3c-0.3-1.9-0.6-3.7-0.8-5.6c-0.2-2.1-0.3-4.2-0.5-6.3
			c-0.1-0.7-0.2-1.4-0.4-2c-1.1-3-1-6.1-1-9.2c0-1.1,0.2-2.3,0.2-3.4c0.1-1.1,0.3-2.1,0.5-3.2c0.2-1.2,0.3-2.1,0.6-3.3
			c0-0.2,0.1-0.4,0.1-0.5c0.2-2.8,0.4-5.7,0.7-8.5c0.1-1.2,0.4-2.3,0.7-3.5c0.2-1.2,0.4-2.3,0.6-3.5c0.3-1.7,0.7-3.4,1.1-5
			c0.4-1.5,0.8-3,1.2-4.5c0.8-2.7,1.6-5.4,2.5-8.1c0.8-2.4,1.7-4.9,2.6-7.3c1.3-3.1,2.7-6.2,4.1-9.2c2.2-4.6,4.9-9,7.8-13.2
			c2.2-3.2,4.6-6.4,7-9.5c1.7-2.2,3.6-4.3,5.4-6.4c5.9-7,12.5-13.3,19.1-19.7c3.4-3.3,6.8-6.5,10.2-9.7c1.2-1.2,2.7-1.9,4.3-2.5
			c0.2-0.1,0.4-0.1,0.5,0c1.9,0.7,2.8,2.1,2.9,4.1c0.2,2.2-0.8,3.8-2.2,5.3c-3.4,3.5-6.8,7-10.2,10.5c-2,2-4.1,3.8-6.1,5.8
			c-2.3,2.3-1.7,4.5,0.4,6.5c3.2,3,6.3,6,9.4,9.1c0.9,0.9,1.8,1.9,2.7,2.8c1.2,1.3,3.2,1.6,4.8,0.7c1.3-0.7,2.5-1.6,3.8-2.4
			c3.6-2.3,7.1-4.7,10.7-6.9c2.6-1.7,5.3-3.3,8.1-4.8c3.7-2,7.5-3.9,11.6-5.1c2.1-0.6,4.1-1.4,6.2-1.9c1.9-0.5,3.9-0.9,5.9-1.3
			c2.5-0.5,5.1-1,7.6-1.3c7.5-1.1,15.1-1.3,22.7-1c2,0.1,4.1,0.3,6.1,0.6c2.3,0.3,4.5,0.8,6.8,1.2c2.8,0.6,5.6,1.2,8.3,1.9
			c2.8,0.8,5.6,1.7,8.3,2.7c2.9,1.1,5.8,2.3,8.7,3.6c2.7,1.3,5.4,2.7,8,4.3c2.9,1.8,5.7,3.7,8.4,5.7c2.2,1.6,4.2,3.4,6.3,5.1
			c3.7,3,6.8,6.5,9.9,10.1c3,3.5,5.7,7.2,8.1,11c1.5,2.4,3,4.8,4.3,7.3c1.5,2.9,2.8,6,4.2,9c0.8,1.7,1.5,3.5,2.1,5.3
			c0.6,1.8,1.2,3.6,1.6,5.4c0.6,2.1,1.1,4.3,1.6,6.4c0.3,1.5,0.6,3,0.8,4.5c0.3,2,0.6,4,0.9,6c0,0.2,0,0.4,0.1,0.5
			c0.4,5.4,0.6,10.7,0.3,16.1c-0.2,3.3-0.5,6.6-0.9,9.9c-0.3,2.5-0.8,5.1-1.4,7.6c-0.5,2-1.1,4-1.6,6c-0.6,2-1.2,4.1-1.9,6.1
			c-1.6,4.2-3.3,8.3-5.5,12.2c-1.8,3.2-3.7,6.4-5.8,9.4c-2.2,3.3-4.8,6.3-7.2,9.5c-0.5,0.6-0.9,1.2-1.2,1.9c-0.5,1.3,0,2.4,1,3.4
			c3.1,3,6.2,6.1,9.2,9.1c1.3,1.2,2.5,2.5,3.8,3.7c0.6,0.5,1.4,1,2.2,1.3c1.2,0.4,2.3-0.1,3.2-0.9c1.4-1.3,2.7-2.7,4.1-4
			c3.8-3.8,7.7-7.6,11.5-11.3c1.2-1.2,2.4-2.4,4.1-3c1.2-0.4,2.4-0.8,3.8-0.7c1.1,0.1,2.3,1.2,2.7,2.5c0.6,2-0.1,3.6-1.4,4.9
			c-2.6,2.8-5.3,5.5-8,8.2c-4.8,4.8-9.6,9.6-14.5,14.3c-2.4,2.4-5,4.6-7.6,6.9c-2.5,2.1-5,4.2-7.6,6.1c-3.5,2.6-7.1,5-10.8,7.3
			c-2.7,1.7-5.5,3.1-8.3,4.5c-2.9,1.5-5.8,3-8.8,4.2c-4.1,1.7-8.2,3.2-12.4,4.7c-2.3,0.8-4.5,1.6-6.9,2.1c-3.2,0.8-6.5,1.5-9.7,2.1
			c-2.4,0.4-4.8,0.7-7.1,1c-3.1,0.3-6.2,0.6-9.4,0.9c-2.8,0.3-4.2,1.6-4.9,4.2c-1.3,4.5-2.5,9-4.4,13.3c-2,4.4-4.5,8.5-7.6,12.2
			c-0.8,1-1.3,2.2-1.9,3.4c-0.2,0.4-0.1,0.8,0.4,1.1c1.3,0.6,2.6,1,4,1C310,348.9,318.4,348.9,326.7,348.9
			C326.7,348.9,326.7,348.9,326.7,348.9z M400,179.6c0.1,0,0.2,0,0.2,0c-0.2-3.4-0.3-6.8-0.7-10.2c-0.3-2.6-0.8-5.2-1.3-7.8
			c-0.5-2.4-1-4.9-1.7-7.3c-0.5-1.9-1.5-3.7-3.4-4.6c-0.8-0.4-1.7-0.7-2.5-0.8c-2.5-0.1-5.1-0.3-7.5,0.1c-2.6,0.3-5,0.1-7.4-0.6
			c-2-0.6-3.8-1.7-5.3-3c-2.1-1.8-3.6-4.1-5.1-6.3c-3.2-5-7.3-8.9-12.6-11.5c-2.3-1.1-4.7-1.9-7.1-2.6c-1.5-0.4-3.1-0.5-4.6-0.7
			c-0.3,0-0.6-0.1-0.9-0.2c-1.9-0.1-3.8-0.3-5.6-0.1c-1.4,0.1-2.7,0.8-4.1,1.2c-2.4,0.8-4.7,1.6-7.1,2.4c-1.4,0.4-2.9,0.5-4.3-0.1
			c-2.9-1.3-5.9-2.5-8.8-3.9c-3.6-1.8-7.2-3.6-10.7-5.6c-4.6-2.6-8.5-6.1-11.6-10.3c-1.3-1.7-2.3-3.7-2-5.9c0.2-1.5,0.7-3,1.3-4.4
			c1.2-2.6,2.7-5.1,4-7.7c0.6-1.1,0.5-1.3-0.7-1.7c-0.2-0.1-0.4-0.1-0.6-0.1c-3.6-0.5-7.2,0.1-10.6,1.1c-4.7,1.3-9.3,3.1-13.7,5.3
			c-4,2.1-8,4.2-11.8,6.6c-3.5,2.2-6.8,4.7-10.1,7.2c-3.4,2.7-6.5,5.8-8.3,9.8c-0.6,1.3-0.4,1.6,1,1.6c3.2,0,6.4-0.1,9.6,0.1
			c2.5,0.1,3.6,1.1,4.1,3.2c0.3,1.2,0.4,2.5,0.4,3.8c0,3-0.2,6-0.2,9.1c0,5.7,0.2,11.3,0.2,17c0,2.2-0.6,4.3-1.8,6.1
			c-1.5,2.3-3.7,3.9-6,5.3c-3.5,2.1-4.4,5.3-3.6,8.7c0.5,2.1,1.8,3.9,3.4,5.5c2.1,2,4.7,3,7.6,3.2c2.6,0.1,5.1,0,7.7,0.1
			c1.6,0.1,3.3,0.5,4.9,1c1.6,0.4,2.2,1.3,2,2.9c-0.2,2-0.7,4-2.1,5.6c-1.8,2.1-3.5,4.3-5.3,6.3c-3.6,4.2-7.2,8.4-10.8,12.5
			c-1.3,1.5-2.9,2.6-5,2.4c-1.3-0.1-2.5-0.7-3.6-1.4c-3-2.1-6-4.3-9-6.5c-2-1.4-4.2-2-6.5-1.2c-1.7,0.6-3.2,1.5-4.8,2.3
			c-0.4,0.2-0.7,0.7-0.8,1.1c-0.8,1.7-0.5,3.3,0.2,5c1.2,2.7,2.3,5.4,3.6,8c3.1,6.4,6.9,12.4,11.4,17.9c4.5,5.6,9.7,10.6,15.5,15
			c4.4,3.4,9.1,6.4,14,9.1c4.2,2.3,8.5,4.2,13.1,5.7c3,1,6,1.8,9,2.5c2.3,0.6,4.6,1,7,1.4c2.2,0.4,4.3,0.8,6.5,0.9
			c3.5,0.2,7.1,0.3,10.6,0.4c1,0,1.9,0.1,2.9,0c2.2-0.2,4.3-0.4,6.5-0.7c2.3-0.3,4.6-0.6,6.9-1c2.7-0.5,5.4-1.1,8.1-1.9
			c3.5-1.1,7-2.2,10.4-3.6c3.2-1.3,6.2-2.9,9.3-4.5c5.9-3.2,11.4-7.1,16.5-11.4c4.1-3.5,7.9-7.4,11.3-11.6c2.9-3.6,5.7-7.3,7.9-11.3
			c1.9-3.4,3.7-6.9,5.3-10.4c1.5-3.3,2.7-6.7,3.8-10.1c0.9-2.7,1.5-5.4,2.2-8.1c0.4-1.6,0.7-3.2,0.9-4.8c0.3-2.3,0.7-4.7,0.9-7
			C400.1,183.7,400,181.6,400,179.6z M176.3,186C176.4,186,176.4,186,176.3,186c0.1,0.7,0,1.5,0.1,2.2c0.3,2.6,0.6,5.3,0.9,7.9
			c0.4,3.5,1.1,7,1.9,10.5c0.6,2.5,1.2,5,2,7.5c1.1,3.6,2.3,7.2,3.7,10.8c1.6,4.2,3.5,8.2,5.8,12.1c2.1,3.6,4.2,7.1,6.5,10.5
			c3.2,4.7,6.4,9.3,9.9,13.8c4.4,5.7,9.6,10.7,15.2,15.2c3.5,2.8,7.1,5.4,10.9,7.8c4.3,2.8,8.8,5.3,13.4,7.8
			c3.1,1.7,6.4,3.1,9.7,4.4c3.1,1.2,6.2,2.3,9.4,3.2c1.9,0.6,3.8,1,5.8,1.4c1.8,0.4,3.5,0.9,5.3,1.2c2,0.4,4,0.8,6,1.2
			c1.3,0.3,2.6,0.6,3.8,0.8c2.7,0.4,5.4,0.8,8.2,1.1c2.2,0.2,4.3,0.5,6.5,0.5c4.2,0,8.4-0.1,12.6-0.3c2.8-0.1,5.6-0.5,8.4-0.8
			c1.3-0.2,2.7-0.4,4-0.7c2.8-0.6,5.6-1.1,8.4-1.7c2-0.5,4-1.1,6-1.7c2.9-0.9,5.7-1.6,8.5-2.7c3.7-1.4,7.5-2.8,11.1-4.6
			c4.6-2.3,9.1-4.7,13.5-7.3c4.5-2.7,8.8-5.8,13.1-8.8c1.6-1.1,3.1-2.4,4.5-3.7c0.9-0.8,1-1.9,0.4-3c-0.4-0.9-1-1.7-1.7-2.4
			c-3.8-3.8-7.6-7.5-11.4-11.2c-1.3-1.3-2.7-2.1-4.6-1.4c-0.8,0.3-1.6,0.9-2.3,1.4c-2.1,1.6-4.1,3.4-6.3,5c-4.7,3.5-9.7,6.5-15.1,9
			c-2.8,1.3-5.6,2.5-8.5,3.6c-2.6,1-5.2,1.8-7.8,2.6c-1.3,0.4-2.7,0.8-4.1,1.1c-1.9,0.4-3.9,0.8-5.8,1.2c-1.4,0.3-2.9,0.6-4.3,0.8
			c-1.4,0.2-2.9,0.3-4.4,0.5c-2.1,0.2-4.1,0.4-6.2,0.5c-3.1,0.1-6.1,0.1-9.2,0c-2.8-0.1-5.7-0.3-8.5-0.7c-2.9-0.4-5.7-1-8.5-1.6
			c-2.3-0.5-4.6-1-6.8-1.6c-4.2-1.2-8.3-2.7-12.3-4.5c-5.4-2.4-10.6-5.2-15.6-8.4c-6.3-4.1-12.2-8.7-17.5-14.1
			c-4.6-4.6-8.7-9.7-12.3-15.1c-3.3-4.9-6.1-10.1-8.4-15.4c-1.1-2.6-2.2-5.1-3.2-7.7c-0.9-2.6-1.8-5.2-2.5-7.9c-0.5-2-0.8-4-1.1-6.1
			c-0.3-2.3-0.5-4.6-0.6-6.9c-0.1-5.1-0.1-10.2,0-15.2c0.1-6-0.4-12.1,0.9-18c0.4-1.9,0.6-3.8,1.1-5.6c0.9-2.9,1.7-5.8,2.9-8.6
			c1.5-3.6,3.3-7.1,5-10.7c2.4-4.9,5.6-9.3,8.8-13.7c1.8-2.5,3.7-4.9,5.5-7.5c1.1-1.5,1.3-3.1-0.3-4.5c-1.5-1.3-3-2.4-4.4-3.7
			c-3.5-3.1-7-6.3-10.5-9.4c-0.5-0.5-1-0.7-1.7-0.2c-0.7,0.5-1.4,0.9-1.9,1.5c-1.7,1.9-3.3,3.8-4.8,5.8c-2.7,3.6-5.4,7.3-7.8,11.1
			c-2.1,3.2-4,6.6-5.6,10.1c-2,4.2-3.9,8.4-5.5,12.7c-1.3,3.3-2.2,6.7-3.2,10.1c-0.8,2.9-1.5,5.9-2.2,8.8c-0.5,2.1-0.8,4.3-1.2,6.5
			c-0.5,3.2-1,6.5-1.3,9.7c-0.3,2.8-0.4,5.6-0.4,8.3C176.1,181.1,176.3,183.5,176.3,186z M332.7,114c0.9,0.1,1.8,0.1,2.7,0.2
			c1.4,0.2,2.9,0.5,4.3,0.8c2.1,0.3,4.2,0.6,6.3,1c3.1,0.7,6.2,1.5,9.3,2.4c2.4,0.7,4.7,1.8,6.6,3.4c4.6,3.6,8.3,8.1,11.4,13
			c1.6,2.5,3.9,4.1,6.8,4.5c2.4,0.3,5,0.1,7.4,0c1.5-0.1,2.3-1.2,2.1-2.7c-0.1-0.6-0.2-1.1-0.5-1.6c-2.5-4.4-5.2-8.5-8.3-12.5
			c-1.7-2.1-3.4-4.2-5.2-6.2c-3.3-3.8-7-7.2-10.9-10.4c-5-4-10.3-7.6-16.1-10.4c-2.9-1.4-5.9-2.7-9-4c-2.1-0.8-4.2-1.5-6.4-2.1
			c-2.1-0.6-4.2-1.2-6.4-1.7c-1.7-0.4-3.4-0.7-5.1-1.1c-1.6-0.3-3.2-0.6-4.8-0.8c-1.4-0.2-2.9-0.3-4.3-0.5c-2-0.2-3.9-0.5-5.9-0.7
			c-1.3-0.1-2.6,0.2-3.5,1.1c-0.8,0.8-1.6,1.7-2.1,2.8c-0.9,2-1.9,4-3.2,5.8c-1.5,2.1-2,4.5-1.6,7c0.4,2.5,1.7,4.6,3.5,6.4
			c2.7,2.7,6.1,4.3,9.6,5.8c3.2,1.4,6.5,2.8,9.7,4.1c0.5,0.2,1.1,0.4,1.6,0.3c1.2-0.1,2.2-0.6,3.2-1.2
			C326.6,115,329.5,113.9,332.7,114z M211.1,180.2C211.1,180.2,211.1,180.2,211.1,180.2c-0.1,2.7-0.1,5.5,0,8.2
			c0.1,1.6,0.2,3.3,0.6,4.8c0.6,2.4,2.7,3.5,5.1,2.8c1.1-0.3,2.2-0.9,3.2-1.4c1.8-0.9,3.7-1.6,5.8-1.5c2.2,0.1,4.2,0.9,5.9,2.2
			c1.9,1.4,3.7,2.8,5.5,4.2c1.3,0.9,2.7,1.5,4.2,0.7c0.6-0.3,1.2-0.7,1.7-1.2c1.5-1.5,3.1-3,4.5-4.6c0.9-1,0.7-2-0.3-2.8
			c-0.5-0.4-1.2-0.7-1.8-1.1c-2.8-1.5-5.7-2.8-8.4-4.5c-5.6-3.6-8.3-8.7-7.2-15.4c0.2-1,0-2.2-0.1-3.2c-0.3-2.1-0.3-4.2,1.1-6
			c1.1-1.5,2.6-2.3,4.2-3.2c2.4-1.3,4.5-3.1,5.4-5.7c0.4-1.2,0.5-2.6,0.5-4c0-1.2-0.3-2.5-0.3-3.7c0-3.1,0.2-6.3,0.2-9.4
			c0-1.5-0.3-3-0.6-4.5c-0.2-1.1-1-1.9-2.1-2.4c-2.5-1-5.1-1.1-7.6-0.4c-3.9,1-7,3.3-9,6.7c-1.2,2-2.1,4-3.1,6.1
			c-1.8,3.9-3.4,7.9-4.6,12.1c-1,3.3-1.7,6.6-2.1,10c-0.4,2.5-0.5,5.1-0.6,7.6C211,173.8,211.1,177,211.1,180.2z"/>
	</g>
	<g>
		<path class="st0" d="M319.4,253.9c-3.9,0-7.8,0-11.6,0c-0.5,0-2-0.3-2.3-0.3c-4.9,0.1-9.7-0.2-14.5-0.1c-5,0.1-10-0.2-14.9-1
			c-3.4-0.5-6.7-1.3-10-2c-2.8-0.6-5.5-1.5-8.4-2c-4-0.7-6-4.5-6.2-7.3c-0.2-2.9-0.4-5.9-0.4-8.8c0-1.9,0.2-3.9,0.5-5.8
			c0.4-2.4,1.5-4.5,3-6.4c2.3-3.1,4.7-6,7.1-9c1.8-2.3,3.7-4.4,5.3-6.8c1.9-2.9,2.9-6.1,3.8-9.5c0.6-2.5,1.3-5,2.3-7.4
			c1-2.6,3.7-3.9,5.8-3.1c1.3,0.5,2.5,1.1,3.6,1.8c4.9,3.2,9.7,6.5,14.7,9.7c5.5,3.5,11,7,16.5,10.4c0.5,0.3,1,0.6,1.6,0.6
			c1.7,0.3,2.8-0.2,3.5-1.8c0.7-1.7,1.3-3.5,1.9-5.2c0.7-1.7,1.3-3.5,2.1-5.2c0.6-1.3,1.6-2.3,3.2-2c0.9,0.2,1.9,0.8,2.4,1.5
			c3.1,3.7,6,7.4,9,11.2c1.9,2.4,3.7,4.7,5.6,7.1c1.1,1.4,2.1,2.8,3.2,4.2c0.8,1.1,1.1,2.3,1.2,3.6c0.2,3.1,0.7,6.3,0.8,9.4
			c0.2,7.5-2.5,13.6-8.7,18.1c-2.2,1.6-4.5,2.9-6.9,4.2c-2.4,1.3-5,2-7.8,1.8C322.9,253.9,321.2,254,319.4,253.9
			C319.4,254,319.4,254,319.4,253.9z M339.2,228.6c-0.1-1.9-0.4-4.4-1.6-6.7c-1.3-2.3-2.7-4.6-4.2-6.8c-0.9-1.3-1.9-2.5-2.9-3.7
			c-0.8-0.9-2.3-0.8-3.2,0.1c-1.1,1.1-1.6,2.4-2.2,3.8c-0.5,1.3-1,2.6-1.8,3.7c-1.1,1.6-2.8,2.1-4.6,1.5c-0.9-0.3-1.7-0.8-2.4-1.3
			c-1.4-1.1-2.6-2.4-4.1-3.4c-2.7-2-5.4-3.8-8.1-5.7c-4.9-3.3-9.9-6.5-14.9-9.7c-1.7-1.1-3.5-2.3-5.3-3.4c-1.8-1.1-3.8-0.7-4.7,0.9
			c-0.3,0.6-0.6,1.2-0.6,1.8c-0.2,2.1-1,4-2.3,5.8c-3.9,5.3-7.8,10.7-11.7,16.1c-0.8,1.1-1.7,2.1-2.4,3.3c-1.4,2.4-1.5,5.1-1.2,7.8
			c0.2,1.8,0.4,3.6,0.4,5.4c0,1.4,0.9,2.2,2.2,2.5c2.9,0.8,5.8,1.4,8.7,2.2c2.6,0.7,5.2,1.5,7.8,2.1c1.7,0.4,3.4,0.8,5.1,1
			c1.5,0.3,3.1,0.4,4.6,0.6c0.5,0.1,0.9,0.1,1.4,0.1c0.6,0,1.3,0.1,2,0.1c1.5-0.1,3-0.3,4.5-0.4c2.2,0,4.5,0.1,6.7,0.1
			c2.2,0,4.5-0.1,6.7-0.3c1.6-0.1,3.2-0.4,4.8-0.6c2-0.2,4-0.4,5.9-0.7c3.5-0.6,7-1.7,10.1-3.5C336.7,238.7,339.2,234.7,339.2,228.6
			z"/>
	</g>
	<g>
		<path class="st0" d="M370,159.1c3.3,0,6.6,0,9.8,0c2.9,0,4.3,2.1,4.3,4.3c0.1,3.2,0.1,6.4-0.1,9.6c-0.1,2-0.2,4.1-1.2,6
			c-0.9,1.8-2.2,3.1-4.2,3.7c-2.6,0.7-5,1.7-7.6,2.5c-2.2,0.7-4.5,1.2-6.8,1.8c-0.7,0.2-1.5,0.3-2.2,0.5c-1.7,0.6-3,0-4.3-1
			c-1.7-1.3-2.4-2.9-2.4-5c0-3.7-0.2-7.5-0.2-11.2c0-2.4,0.1-4.7,0.2-7.1c0.1-2.1,2-3.9,4.3-3.9C363.1,159.1,366.6,159.1,370,159.1
			C370,159.1,370,159.1,370,159.1z M370.3,166.8C370.3,166.8,370.3,166.8,370.3,166.8c-0.6,0-1.1,0-1.7,0c-0.6,0-1.2,0.1-1.7,0.1
			c-1.3,0.1-2.4,0.9-2.5,1.9c-0.2,1.9-0.3,3.9-0.3,5.9c0,1.2,1.1,2.4,2.1,2.4c1.6,0,3.2,0.2,4.7-0.4c1-0.4,2-0.7,2.8-1.3
			c2-1.4,2.5-3.4,2.2-5.7c-0.3-1.9-1.5-2.9-3.5-3C371.7,166.7,371,166.8,370.3,166.8z"/>
	</g>
</g>
<path class="st0" d="M529.8,550.3H69.9c-23.5,0-42.6-19.1-42.6-42.6V47.8c0-23.5,19.1-42.6,42.6-42.6h459.9
	c23.5,0,42.6,19.1,42.6,42.6v459.9C572.4,531.2,553.3,550.3,529.8,550.3z M69.9,19.4c-15.7,0-28.4,12.7-28.4,28.4v459.9
	c0,15.7,12.7,28.4,28.4,28.4h459.9c15.7,0,28.4-12.7,28.4-28.4V47.8c0-15.7-12.7-28.4-28.4-28.4H69.9z"/>
<g>
	
		<image style="overflow:visible;opacity:0.63;" width="155" height="117" xlink:href="93FD0FF2.png"  transform="matrix(1.094 0 0 1.094 212.1154 335.0479)">
	</image>
	<g>
		<g>
			<path class="st1" d="M246.6,430c-4.5,0-8.9-0.8-13.2-2.4c-4.3-1.6-8-3.9-11-7l6.4-12.2c3.2,2.4,6.3,4.2,9.2,5.5
				c3,1.3,5.7,1.9,8.2,1.9c2.6,0,3.9-0.9,3.9-2.7c0-1-0.5-1.9-1.5-2.6c-1-0.7-3-1.5-5.9-2.5c-3.7-1.1-6.7-2.3-9.1-3.4
				c-2.4-1.1-4.4-2.3-6-3.6c-1.5-1.3-2.6-2.7-3.3-4.3c-0.7-1.6-1-3.4-1-5.6c0-2.9,0.5-5.5,1.6-7.9c1-2.4,2.5-4.5,4.4-6.3
				c1.9-1.8,4.1-3.2,6.6-4.1c2.6-1,5.4-1.4,8.5-1.4c3.8,0,7.4,0.5,10.8,1.6c3.4,1.1,6.9,3.3,10.3,6.5l-7,12.2
				c-3.2-2.3-5.9-3.9-8-4.9c-2.2-1-4.2-1.4-6.1-1.4c-1.1,0-2,0.2-2.7,0.7c-0.7,0.5-1.1,1.2-1.1,2.2c0,1.1,0.5,1.9,1.6,2.6
				c1,0.7,3.1,1.4,6.2,2.3c3.7,1.1,6.8,2.2,9.4,3.4c2.5,1.2,4.6,2.5,6.1,3.9c1.5,1.4,2.6,3,3.3,4.7c0.7,1.8,1,3.8,1,6.1
				c0,2.9-0.5,5.5-1.5,7.8c-1,2.3-2.4,4.3-4.3,5.9c-1.9,1.6-4.1,2.9-6.7,3.8C252.9,429.5,249.9,430,246.6,430z"/>
			<path class="st1" d="M299.7,430c-4.6,0-8.7-0.8-12.2-2.4c-3.5-1.6-6.4-3.8-8.8-6.4c-2.4-2.7-4.2-5.8-5.4-9.3
				c-1.2-3.5-1.8-7.2-1.8-11.1s0.6-7.6,1.8-11.1c1.2-3.5,3-6.6,5.4-9.3c2.4-2.7,5.3-4.8,8.8-6.4c3.5-1.6,7.5-2.4,12.2-2.4
				c4.6,0,8.6,0.8,12.1,2.4c3.5,1.6,6.5,3.8,8.8,6.4c2.4,2.7,4.2,5.8,5.4,9.3c1.2,3.5,1.8,7.2,1.8,11.1s-0.6,7.6-1.8,11.1
				c-1.2,3.5-3,6.6-5.4,9.3c-2.4,2.7-5.3,4.8-8.8,6.4C308.3,429.2,304.2,430,299.7,430z M290.6,400.7c0,3.8,0.8,6.8,2.5,8.9
				c1.7,2.1,3.9,3.2,6.6,3.2c2.7,0,4.9-1.1,6.5-3.2c1.7-2.1,2.5-5.1,2.5-8.9c0-3.8-0.8-6.8-2.5-8.9c-1.7-2.1-3.9-3.2-6.5-3.2
				c-2.7,0-4.9,1.1-6.6,3.2C291.4,393.9,290.6,396.9,290.6,400.7z"/>
			<path class="st1" d="M355.6,430c-4.5,0-8.9-0.8-13.2-2.4c-4.3-1.6-8-3.9-11-7l6.4-12.2c3.2,2.4,6.3,4.2,9.2,5.5
				c3,1.3,5.7,1.9,8.2,1.9c2.6,0,3.9-0.9,3.9-2.7c0-1-0.5-1.9-1.5-2.6c-1-0.7-3-1.5-5.9-2.5c-3.7-1.1-6.7-2.3-9.1-3.4
				c-2.4-1.1-4.4-2.3-6-3.6c-1.5-1.3-2.6-2.7-3.3-4.3c-0.7-1.6-1-3.4-1-5.6c0-2.9,0.5-5.5,1.6-7.9c1-2.4,2.5-4.5,4.4-6.3
				c1.9-1.8,4.1-3.2,6.6-4.1c2.6-1,5.4-1.4,8.5-1.4c3.8,0,7.4,0.5,10.8,1.6c3.4,1.1,6.9,3.3,10.3,6.5l-7,12.2
				c-3.2-2.3-5.9-3.9-8-4.9c-2.2-1-4.2-1.4-6.1-1.4c-1.1,0-2,0.2-2.7,0.7c-0.7,0.5-1.1,1.2-1.1,2.2c0,1.1,0.5,1.9,1.6,2.6
				c1,0.7,3.1,1.4,6.2,2.3c3.7,1.1,6.8,2.2,9.4,3.4c2.5,1.2,4.6,2.5,6.1,3.9c1.5,1.4,2.6,3,3.3,4.7c0.7,1.8,1,3.8,1,6.1
				c0,2.9-0.5,5.5-1.5,7.8c-1,2.3-2.4,4.3-4.3,5.9c-1.9,1.6-4.1,2.9-6.7,3.8C361.9,429.5,358.9,430,355.6,430z"/>
		</g>
	</g>
</g>
<g>
	<path class="st0" d="M142.5,455.5c0-3,0.5-5.9,1.6-8.8c1-2.9,2.5-5.5,4.5-7.8c2-2.3,4.4-4.2,7.2-5.6c2.8-1.4,6.1-2.1,9.7-2.1
		c4.4,0,8.1,1,11.3,2.9c3.2,2,5.6,4.5,7.1,7.8l-9.4,7.3c-0.4-1.2-1-2.2-1.7-3c-0.7-0.8-1.5-1.4-2.3-1.9c-0.8-0.5-1.7-0.8-2.6-1
		c-0.9-0.2-1.8-0.3-2.6-0.3c-1.8,0-3.3,0.4-4.6,1.1c-1.3,0.8-2.3,1.7-3.2,3c-0.8,1.2-1.4,2.6-1.8,4.1c-0.4,1.5-0.6,3.1-0.6,4.6
		c0,1.7,0.2,3.3,0.7,4.9c0.5,1.6,1.1,2.9,2,4.1c0.9,1.2,2,2.2,3.3,2.9c1.3,0.7,2.7,1.1,4.3,1.1c0.8,0,1.7-0.1,2.6-0.3
		c0.9-0.2,1.7-0.6,2.6-1c0.8-0.5,1.6-1.1,2.2-1.9c0.7-0.8,1.2-1.7,1.6-2.8l10.1,6.6c-0.7,1.8-1.7,3.4-3.1,4.8
		c-1.4,1.4-2.9,2.6-4.7,3.6c-1.8,1-3.6,1.7-5.6,2.2c-2,0.5-4,0.8-5.9,0.8c-3.3,0-6.4-0.7-9.2-2.2c-2.8-1.4-5.2-3.4-7.2-5.8
		c-2-2.4-3.6-5.1-4.7-8.1C143,461.7,142.5,458.7,142.5,455.5z"/>
	<path class="st0" d="M204.3,481.1c-3,0-5.6-0.5-7.9-1.6c-2.3-1-4.2-2.4-5.7-4.1c-1.5-1.7-2.7-3.7-3.5-6c-0.8-2.3-1.2-4.7-1.2-7.1
		c0-2.5,0.4-4.9,1.2-7.1c0.8-2.3,1.9-4.3,3.5-6c1.5-1.7,3.4-3.1,5.7-4.1c2.3-1,4.9-1.6,7.9-1.6c3,0,5.6,0.5,7.9,1.6
		c2.3,1,4.2,2.4,5.7,4.1c1.5,1.7,2.7,3.7,3.5,6c0.8,2.3,1.2,4.7,1.2,7.1c0,2.5-0.4,4.9-1.2,7.1c-0.8,2.3-1.9,4.3-3.5,6
		c-1.5,1.7-3.5,3.1-5.7,4.1C209.9,480.6,207.3,481.1,204.3,481.1z M198.4,462.3c0,2.4,0.5,4.3,1.6,5.7c1.1,1.4,2.5,2.1,4.2,2.1
		c1.7,0,3.1-0.7,4.2-2.1c1.1-1.4,1.6-3.3,1.6-5.7c0-2.4-0.6-4.3-1.6-5.7c-1.1-1.4-2.5-2.1-4.2-2.1c-1.7,0-3.1,0.7-4.2,2.1
		C199,457.9,198.4,459.9,198.4,462.3z"/>
	<path class="st0" d="M280.6,480.4h-12V460c0-1.8-0.3-3.1-1-3.9c-0.7-0.8-1.4-1.2-2.4-1.2c-1,0-2,0.5-3.1,1.4
		c-1.1,1-1.9,2.2-2.4,3.7v20.3h-12V460c0-1.8-0.3-3.1-1-3.9c-0.7-0.8-1.4-1.2-2.4-1.2c-1,0-2,0.5-3.1,1.4c-1.1,1-1.9,2.2-2.4,3.7
		v20.3h-12v-36.3h10.8v5.4c1.2-2,2.8-3.5,4.9-4.5c2.1-1,4.5-1.6,7.4-1.6c1.4,0,2.5,0.2,3.6,0.5c1,0.3,1.9,0.8,2.6,1.4
		c0.7,0.6,1.3,1.3,1.8,2c0.4,0.7,0.8,1.5,1,2.3c1.2-2,2.8-3.5,4.9-4.6c2.1-1.1,4.4-1.7,7-1.7c2.2,0,3.9,0.4,5.2,1.3
		c1.3,0.9,2.3,2,2.9,3.3c0.7,1.3,1.1,2.8,1.3,4.3c0.2,1.5,0.3,2.9,0.3,4.1V480.4z"/>
	<path class="st0" d="M308.9,481.1c-2.4,0-4.5-0.5-6.3-1.6c-1.8-1-3.1-2.5-4.1-4.5v20.1h-12v-51h10.5v5.4c1.2-2,2.6-3.5,4.4-4.6
		c1.7-1.1,3.9-1.6,6.4-1.6c2.2,0,4.2,0.5,6.2,1.4c1.9,0.9,3.5,2.2,4.9,3.9c1.4,1.7,2.4,3.6,3.2,5.9c0.8,2.3,1.2,4.8,1.2,7.4
		c0,2.7-0.4,5.2-1.1,7.6c-0.7,2.3-1.7,4.3-3,6c-1.3,1.7-2.8,3-4.5,4C312.8,480.6,310.9,481.1,308.9,481.1z M304.7,470.1
		c0.9,0,1.7-0.2,2.4-0.6c0.7-0.4,1.4-1,1.9-1.7c0.5-0.7,1-1.6,1.3-2.6c0.3-1,0.5-2,0.5-3.1c0-2.3-0.6-4.1-1.8-5.5
		c-1.2-1.4-2.8-2.1-4.8-2.1c-2.2,0-4.1,1.2-5.7,3.7v6.3c0.6,1.6,1.5,2.9,2.6,4C302.2,469.6,303.4,470.1,304.7,470.1z"/>
	<path class="st0" d="M337.6,481.1c-3.4,0-6-1.1-7.7-3.3c-1.8-2.2-2.7-5.5-2.7-9.8v-23.9h12V465c0,1.6,0.3,2.9,1,3.7
		c0.7,0.9,1.6,1.3,2.7,1.3c0.9,0,1.9-0.2,2.9-0.7c1-0.5,1.9-1.5,2.9-3v-22.2h12v21.8c0,1.2,0.2,2.1,0.5,2.6c0.3,0.5,0.9,0.8,1.8,0.9
		v11c-2.1,0.5-3.8,0.7-5.1,0.7c-4.1,0-6.5-1.7-7.1-5l-0.3-1.3c-1.6,2.3-3.4,3.9-5.6,4.9C342.8,480.6,340.3,481.1,337.6,481.1z"/>
	<path class="st0" d="M391.3,478.4c-1.7,0.8-3.5,1.4-5.4,2c-1.9,0.5-3.8,0.8-5.7,0.8c-1.4,0-2.6-0.2-3.9-0.6c-1.2-0.4-2.3-1-3.2-1.8
		c-0.9-0.8-1.6-1.9-2.2-3.2c-0.5-1.3-0.8-3-0.8-5V454h-4.1v-9.9h4.1v-11.4h12v11.4h6.5v9.9h-6.5v12c0,1.2,0.2,2,0.7,2.5
		c0.5,0.5,1.1,0.7,1.9,0.7c0.6,0,1.3-0.1,2-0.3c0.8-0.2,1.5-0.5,2.3-0.9L391.3,478.4z"/>
	<path class="st0" d="M411.2,481.1c-2.9,0-5.5-0.5-7.8-1.5c-2.3-1-4.2-2.3-5.7-4c-1.5-1.7-2.7-3.7-3.5-5.9c-0.8-2.2-1.2-4.5-1.2-7
		c0-2.6,0.4-5.1,1.2-7.4c0.8-2.3,1.9-4.4,3.5-6.1c1.5-1.7,3.4-3.1,5.7-4.2c2.3-1,4.9-1.6,7.9-1.6c3,0,5.6,0.5,7.9,1.6
		c2.3,1,4.2,2.4,5.7,4.1c1.5,1.7,2.7,3.7,3.5,6c0.8,2.3,1.2,4.7,1.2,7.1c0,0.7,0,1.4-0.1,2.1c-0.1,0.7-0.1,1.3-0.2,1.9h-23.4
		c0.1,1.9,0.8,3.3,2,4.2c1.2,0.9,2.5,1.3,3.9,1.3c1.3,0,2.5-0.3,3.7-1c1.2-0.6,1.9-1.5,2.3-2.7l10.2,3.2c-1.4,2.9-3.4,5.3-6.2,7.1
		C418.7,480.2,415.3,481.1,411.2,481.1z M416.5,458.4c-0.2-1.7-0.8-3.1-1.8-4.1c-1-1-2.2-1.5-3.7-1.5c-1.5,0-2.8,0.5-3.7,1.5
		c-1,1-1.6,2.4-1.8,4.1H416.5z"/>
	<path class="st0" d="M456,455.3c-2.3,0-4.4,0.3-6.3,0.8c-1.9,0.6-3.3,1.5-4.2,2.8v21.5h-12v-36.3h11v6.9c1.2-2.4,2.7-4.3,4.4-5.6
		c1.8-1.3,3.6-2,5.7-2c0.8,0,1.3,0,1.5,0.1V455.3z"/>
</g>
</svg>
