<?xml version="1.0" standalone="no"?>
<!DOCTYPE svg PUBLIC "-//W3C//DTD SVG 20010904//EN"
 "http://www.w3.org/TR/2001/REC-SVG-20010904/DTD/svg10.dtd">
<svg version="1.0" xmlns="http://www.w3.org/2000/svg"
 width="505.000000pt" height="488.000000pt" viewBox="0 0 505.000000 488.000000"
 preserveAspectRatio="xMidYMid meet">

<g transform="translate(0.000000,488.000000) scale(0.100000,-0.100000)"
fill="#000000" stroke="none">
<path d="M0 2440 l0 -2440 2525 0 2525 0 0 2440 0 2440 -2525 0 -2525 0 0
-2440z m1810 2296 c0 -3 -4 -8 -10 -11 -5 -3 -10 -1 -10 4 0 6 5 11 10 11 6 0
10 -2 10 -4z m-9 -62 c-2 -10 -4 -98 -5 -194 -1 -170 -10 -232 -39 -268 -8
-10 -7 -16 6 -23 9 -6 24 -24 33 -40 11 -23 18 -28 28 -20 19 16 140 59 231
82 240 61 450 80 665 60 142 -14 379 -69 485 -113 38 -16 87 -36 108 -44 41
-15 119 -55 127 -65 3 -4 25 -17 50 -29 24 -13 68 -40 97 -61 29 -22 57 -39
63 -39 5 0 10 -4 10 -8 0 -5 30 -33 68 -62 37 -29 94 -84 127 -121 33 -38 66
-69 74 -69 8 0 12 -3 8 -6 -3 -4 13 -32 36 -63 24 -31 51 -69 61 -84 11 -19
23 -27 33 -23 12 5 13 3 6 -6 -7 -9 -3 -25 13 -53 13 -22 30 -55 39 -73 9 -20
20 -30 27 -26 6 4 8 3 5 -3 -6 -10 8 -55 33 -108 41 -85 74 -217 109 -440 8
-55 7 -250 -3 -337 -4 -36 -3 -37 25 -31 16 3 49 0 73 -7 50 -14 108 -1 138
30 16 17 16 19 -12 29 -55 19 -33 64 31 66 19 0 25 -3 21 -14 -4 -11 1 -13 29
-7 19 3 36 11 37 16 2 6 8 10 12 10 19 0 81 43 71 49 -6 4 9 7 32 8 l42 2 -40
-37 c-22 -20 -39 -41 -37 -45 1 -5 -1 -6 -6 -3 -5 3 -30 -6 -57 -19 -27 -14
-54 -25 -62 -25 -7 0 -15 -11 -19 -25 -3 -14 -15 -30 -25 -35 -11 -7 -16 -17
-13 -28 5 -13 4 -14 -4 -3 -9 12 -15 12 -42 1 -26 -11 -44 -11 -95 -1 -67 14
-102 8 -122 -18 -9 -13 -14 -13 -24 -4 -9 9 -40 11 -113 7 -109 -7 -400 17
-519 41 -37 8 -75 11 -85 8 -10 -4 -13 -2 -9 3 8 9 -65 24 -213 44 -106 14
-170 26 -236 44 -44 12 -62 12 -130 -1 -85 -15 -197 -60 -188 -74 3 -5 -1 -6
-9 -3 -10 4 -19 -6 -27 -30 -6 -20 -9 -40 -6 -45 4 -5 1 -13 -5 -17 -8 -4 -9
-3 -5 4 12 20 -5 13 -23 -9 -20 -24 -63 -28 -87 -8 -13 10 -15 27 -12 84 3 38
9 79 13 89 7 17 5 16 -14 -3 -16 -16 -30 -21 -47 -17 -13 4 -24 2 -24 -3 0
-12 37 -24 50 -16 5 3 10 2 10 -4 0 -5 -8 -11 -17 -13 -24 -5 -55 25 -47 45 4
11 -6 29 -30 53 -20 20 -36 40 -36 45 0 5 -7 12 -15 15 -8 4 -15 10 -15 16 0
5 5 6 10 3 14 -9 13 -4 -17 61 -23 52 -67 186 -108 327 -11 39 -11 47 0 47 22
0 28 18 20 66 -5 35 -10 44 -26 44 -11 0 -27 -7 -36 -15 -12 -12 -18 -13 -29
-4 -8 6 -14 7 -14 2 0 -23 24 -79 40 -93 16 -14 48 -100 98 -260 12 -36 26
-102 33 -147 7 -46 16 -83 20 -83 4 0 20 -11 35 -25 14 -13 31 -22 37 -18 6 3
7 1 3 -5 -4 -6 5 -30 19 -53 50 -78 43 -149 -15 -149 -19 0 -37 8 -48 21 -9
12 -22 26 -28 33 -6 6 -9 16 -7 23 2 6 -3 28 -11 48 -9 21 -16 50 -16 65 0 41
-19 51 -119 60 -96 9 -139 7 -286 -10 -139 -17 -156 -20 -150 -30 3 -4 -4 -6
-15 -3 -11 3 -26 0 -34 -6 -8 -7 -18 -11 -22 -9 -5 1 -26 -4 -46 -11 -21 -7
-42 -10 -48 -6 -5 3 -10 2 -10 -3 0 -5 -30 -17 -66 -27 -47 -13 -62 -20 -52
-27 9 -6 6 -7 -10 -3 -13 4 -56 -5 -110 -24 -191 -66 -296 -76 -427 -43 -78
21 -160 27 -192 15 -36 -13 -123 -94 -123 -113 0 -31 18 -33 47 -5 34 32 83
59 83 46 0 -5 7 -17 16 -25 8 -9 11 -16 6 -16 -5 0 -19 -9 -32 -20 -13 -11
-35 -23 -49 -27 -46 -11 -111 -61 -105 -81 5 -13 4 -14 -4 -4 -8 12 -14 11
-38 -1 -52 -27 -140 -40 -179 -27 -70 23 -130 155 -96 209 7 11 11 4 16 -25
12 -75 15 -85 27 -78 7 4 8 3 4 -4 -10 -17 13 -55 30 -48 8 3 13 0 11 -7 -3
-19 77 -20 138 -3 63 19 122 63 106 79 -25 25 -12 68 34 111 25 24 42 46 38
49 -3 4 -13 1 -22 -5 -11 -8 -10 -6 2 8 15 16 19 17 27 5 7 -13 11 -13 26 0
15 12 190 32 178 20 -11 -11 98 -34 174 -36 59 -2 107 3 160 17 43 11 87 22
99 25 13 3 20 10 16 16 -4 6 -1 7 6 2 7 -4 23 -3 34 3 25 12 88 31 202 62 44
12 106 30 139 41 32 11 106 27 165 36 112 16 367 23 414 10 16 -4 27 -3 27 3
0 5 -8 10 -17 10 -14 0 -15 2 -4 9 13 9 6 57 -30 196 -5 22 -10 48 -10 58 0 9
-4 17 -8 17 -4 0 -14 19 -20 43 -26 86 -40 110 -55 98 -12 -10 -13 -8 -9 9 3
12 1 25 -4 29 -5 3 -20 66 -32 139 -13 74 -29 149 -37 167 -10 24 -11 36 -3
41 6 3 15 0 20 -7 10 -16 36 -102 45 -149 4 -16 10 -30 15 -30 4 0 9 -6 12
-12 2 -7 3 -6 1 2 -2 8 -12 42 -24 75 -29 84 -36 135 -19 135 9 0 26 -40 49
-112 18 -61 36 -106 38 -99 3 10 -7 52 -38 156 -5 17 -11 42 -14 57 -4 25 -3
27 15 17 23 -12 32 -32 58 -137 11 -43 28 -93 37 -112 10 -18 19 -55 22 -80 4
-40 1 -51 -19 -69 -13 -12 -17 -21 -10 -21 7 0 11 -6 8 -14 -3 -8 -3 -17 1
-21 4 -4 7 -10 7 -13 1 -4 8 -20 16 -37 8 -16 21 -55 29 -85 7 -30 26 -86 42
-125 16 -38 34 -86 41 -105 l11 -35 6 50 c19 138 21 197 9 189 -9 -5 -10 -2
-4 12 5 10 9 29 9 42 1 12 4 22 9 22 4 0 7 14 7 30 0 19 6 33 16 37 22 8 -4
24 -31 18 -11 -3 -14 -2 -7 1 6 3 12 13 12 22 1 15 2 15 11 0 5 -10 14 -18 20
-18 5 0 -11 25 -36 55 l-45 56 0 122 c0 67 5 149 10 182 6 33 13 74 15 91 2
17 11 44 20 60 8 16 15 36 15 44 0 9 13 31 29 50 l29 35 6 -125 c3 -69 8 -163
10 -210 3 -47 4 -168 4 -270 -2 -273 -1 -294 11 -333 7 -20 13 -60 14 -91 2
-65 -24 -109 -66 -114 -15 -2 -27 -6 -27 -10 1 -19 18 -31 38 -25 12 3 19 9
16 14 -3 5 -1 9 4 9 5 0 19 21 32 48 13 26 32 59 43 74 10 16 15 33 11 39 -4
7 -3 9 3 6 6 -4 15 18 22 51 18 79 40 152 56 182 32 60 31 133 -3 166 -13 14
-17 35 -17 101 1 46 5 87 10 91 6 4 19 24 29 45 11 20 41 58 67 82 51 48 97
59 131 33 29 -23 50 -108 51 -208 1 -80 -2 -102 -22 -142 -12 -27 -27 -48 -33
-48 -6 0 -8 -6 -5 -14 4 -11 0 -12 -21 -6 -59 16 -104 -36 -117 -135 -4 -27
-20 -95 -37 -150 -16 -55 -32 -109 -35 -119 -3 -10 -31 -47 -63 -81 -37 -39
-60 -74 -65 -96 -3 -19 -8 -41 -11 -50 -5 -17 27 -59 44 -59 12 0 42 39 42 55
0 5 -7 1 -15 -9 -12 -16 -15 -17 -15 -4 0 9 -5 18 -11 20 -10 3 -14 32 -10 76
1 7 5 11 10 7 5 -3 20 13 32 35 33 58 49 52 49 -16 l0 -55 28 19 c34 24 70 37
153 57 72 17 130 15 224 -8 33 -9 101 -20 150 -26 50 -6 124 -17 165 -26 105
-22 113 -23 223 -39 127 -19 427 -40 435 -31 18 18 1 386 -20 420 -3 6 -9 33
-13 60 -17 122 -107 342 -147 364 -13 6 -15 9 -5 7 19 -6 20 -5 11 18 -3 9
-11 13 -17 9 -6 -4 -7 -1 -2 7 5 8 1 18 -10 27 -11 7 -16 13 -12 13 8 0 -43
81 -58 92 -5 4 -7 8 -2 8 4 0 -1 8 -10 19 -10 10 -29 34 -43 52 -14 19 -37 47
-52 62 -16 16 -28 31 -28 34 0 2 -19 23 -42 45 -189 179 -375 292 -609 371
-163 55 -260 74 -296 58 l-25 -11 4 -150 3 -150 -28 -10 c-25 -8 -29 -6 -37
16 -7 17 -7 31 0 42 9 14 10 13 5 -5 -5 -17 -3 -21 7 -18 10 4 14 40 16 139 4
145 2 149 -52 139 l-27 -6 5 -76 c5 -75 9 -204 7 -228 -1 -7 -14 -13 -31 -13
-29 0 -40 13 -21 25 13 8 14 295 1 295 -23 0 -7 20 23 29 26 7 15 9 -58 9 -49
1 -99 -3 -110 -8 -11 -5 -14 -9 -8 -9 7 -1 12 -4 11 -8 -1 -5 5 -21 14 -37
l16 -30 21 42 c14 27 28 42 41 42 24 0 36 -18 17 -26 -8 -3 -22 -32 -33 -66
-17 -57 -17 -62 -1 -90 9 -16 17 -34 17 -39 0 -5 10 -30 21 -54 12 -25 19 -48
16 -52 -10 -9 -57 7 -57 20 -1 6 -11 34 -24 62 l-23 49 -7 -49 c-4 -28 -10
-60 -13 -73 -7 -29 -42 -44 -60 -26 -18 18 -16 31 6 37 13 3 20 16 24 43 3 22
10 59 17 84 8 34 8 46 -1 49 -7 2 -8 6 -1 10 17 11 -17 80 -37 76 -23 -4 -45
10 -37 24 4 6 19 12 34 12 17 1 21 3 9 6 -41 11 -240 -29 -383 -77 -82 -27
-150 -53 -152 -59 -2 -5 -19 -15 -38 -21 -19 -6 -34 -16 -34 -22 0 -6 7 -7 16
-4 8 3 13 2 10 -3 -3 -5 2 -15 11 -22 29 -25 63 -111 57 -145 -5 -28 -3 -32
23 -39 31 -7 53 -23 53 -36 0 -14 -28 -11 -61 7 -30 15 -30 15 -80 -30 -60
-54 -118 -68 -170 -42 -41 20 -42 20 -29 -4 6 -11 15 -18 21 -15 5 4 9 1 9 -4
0 -6 -3 -11 -7 -11 -5 0 -6 -23 -5 -51 7 -91 -29 -139 -104 -139 -23 0 -58 -7
-79 -15 -71 -30 -135 19 -135 104 0 17 -4 31 -9 31 -5 0 -7 10 -4 23 6 21 6
21 -15 -3 -14 -17 -17 -26 -8 -28 7 -2 18 -32 25 -68 6 -35 16 -75 22 -88 l11
-23 77 16 c43 10 87 14 101 10 23 -6 23 -7 3 -8 -12 -1 -23 -4 -25 -8 -5 -14
-172 -65 -198 -61 -21 3 -25 -2 -31 -35 -3 -20 -8 -39 -10 -41 -2 -2 -24 -6
-49 -9 -25 -3 -38 -3 -30 -1 11 3 15 14 12 37 -3 30 -6 33 -38 32 -40 -2 -39
-1 -58 -47 -12 -27 -12 -38 -3 -47 9 -10 8 -11 -4 -6 -12 4 -20 -3 -30 -27 -8
-18 -14 -35 -15 -38 0 -3 -4 -12 -7 -20 -20 -45 -65 -245 -55 -249 6 -2 5 -6
-3 -11 -15 -10 -21 -62 -25 -219 -2 -63 -7 -118 -11 -122 -5 -3 -36 -9 -69
-12 l-62 -5 -6 45 c-3 25 -6 59 -6 76 0 17 -8 35 -17 43 -10 7 -14 16 -10 20
4 5 12 2 17 -6 9 -13 12 45 15 257 0 17 2 29 5 27 2 -3 10 28 17 68 8 51 9 76
1 85 -8 10 -6 13 8 13 15 0 24 17 42 82 22 81 105 266 142 317 22 32 11 62
-20 56 -11 -2 -20 1 -20 7 0 5 7 8 15 4 19 -7 20 17 1 33 -10 8 -21 7 -46 -6
-30 -14 -44 -15 -116 -5 -45 7 -97 19 -116 26 -18 8 -46 17 -63 19 -44 8 -105
27 -105 33 0 3 16 12 36 20 32 13 34 17 22 32 -12 15 -11 16 5 3 19 -15 11
-20 110 62 32 26 62 47 66 47 5 0 8 8 8 18 0 40 3 48 12 33 7 -11 18 -11 67 5
64 21 195 25 229 8 11 -6 34 -8 50 -5 l30 6 -30 12 c-16 6 -48 17 -70 24 -51
15 -108 44 -128 64 -14 14 -19 13 -49 -3 -29 -16 -38 -17 -73 -6 -22 6 -32 12
-22 13 20 1 23 16 5 28 -7 4 -20 17 -28 27 -14 18 -14 19 8 5 12 -8 22 -17 22
-21 0 -5 10 -8 23 -7 22 0 22 0 -3 17 -63 43 -81 94 -39 107 34 11 63 -3 92
-45 35 -50 101 -96 190 -132 83 -34 105 -36 57 -6 -19 12 -38 26 -41 31 -4 5
-12 6 -19 2 -8 -5 -11 -4 -7 2 4 6 -10 29 -30 52 -46 55 -57 126 -25 161 11
12 18 28 16 35 -3 7 -1 16 5 20 7 4 9 -1 5 -12 -3 -10 9 -1 28 19 43 48 118
82 161 72 50 -10 85 -32 101 -62 15 -26 15 -26 16 33 0 73 32 148 79 188 18
15 37 27 42 27 16 0 89 35 89 42 0 5 7 8 16 8 29 0 99 49 154 109 55 59 78 71
71 35z m29 -18 c0 -3 -4 -8 -10 -11 -5 -3 -10 -1 -10 4 0 6 5 11 10 11 6 0 10
-2 10 -4z m-221 -92 c-6 -8 -16 -11 -23 -7 -7 5 -5 9 7 11 15 3 16 6 5 20 -12
15 -11 16 5 3 13 -10 15 -17 6 -27z m-104 -44 c-3 -5 -12 -10 -18 -10 -7 0 -6
4 3 10 19 12 23 12 15 0z m-68 -36 c-3 -3 -12 -4 -19 -1 -8 3 -5 6 6 6 11 1
17 -2 13 -5z m-100 -181 c-3 -10 -5 -2 -5 17 0 19 2 27 5 18 2 -10 2 -26 0
-35z m-20 15 c-3 -8 -6 -5 -6 6 -1 11 2 17 5 13 3 -3 4 -12 1 -19z m-147 -12
c0 -2 -9 -6 -20 -9 -11 -3 -18 -1 -14 4 5 9 34 13 34 5z m1543 -13 c-7 -2 -19
-2 -25 0 -7 3 -2 5 12 5 14 0 19 -2 13 -5z m100 -10 c-7 -2 -19 -2 -25 0 -7 3
-2 5 12 5 14 0 19 -2 13 -5z m383 -85 c-10 -6 -22 -6 -26 -2 -5 5 3 10 18 11
22 1 24 0 8 -9z m-2339 -84 c-3 -3 -12 -4 -19 -1 -8 3 -5 6 6 6 11 1 17 -2 13
-5z m110 -56 c-3 -8 -6 -5 -6 6 -1 11 2 17 5 13 3 -3 4 -12 1 -19z m1523 -2
c0 -2 -8 -10 -17 -17 -16 -13 -17 -12 -4 4 13 16 21 21 21 13z m187 -78 c-2
-13 -4 -3 -4 22 0 25 2 35 4 23 2 -13 2 -33 0 -45z m-26 29 c-10 -9 -11 -8 -5
6 3 10 9 15 12 12 3 -3 0 -11 -7 -18z m924 -7 c3 -5 1 -10 -4 -10 -6 0 -11 5
-11 10 0 6 2 10 4 10 3 0 8 -4 11 -10z m-1042 -35 c-3 -9 -8 -14 -10 -11 -3 3
-2 9 2 15 9 16 15 13 8 -4z m-577 -19 c12 -13 12 -17 -6 -29 -24 -17 -21 -27
27 -107 18 -30 33 -62 33 -71 0 -12 7 -15 25 -11 18 3 25 0 25 -11 0 -8 6 -18
13 -21 6 -3 1 -3 -11 0 -18 4 -32 -2 -53 -22 -23 -22 -32 -25 -41 -16 -9 9 -9
16 3 28 14 13 12 22 -19 87 -19 40 -39 75 -44 78 -5 3 -9 9 -9 13 3 20 0 27
-11 25 -36 -4 -43 2 -21 20 12 10 19 22 15 26 -4 5 -1 5 6 1 16 -9 54 3 47 15
-9 14 5 11 21 -5z m578 -22 c5 -14 4 -15 -9 -4 -17 14 -19 20 -6 20 5 0 12 -7
15 -16z m-121 -34 c-3 -11 -7 -20 -9 -20 -2 0 -4 9 -4 20 0 11 4 20 9 20 5 0
7 -9 4 -20z m869 -15 c11 -3 23 -7 27 -11 3 -4 -3 -4 -14 -1 -18 6 -17 5 3 -9
28 -21 30 -48 2 -41 -11 3 -20 2 -20 -2 0 -4 -19 -36 -42 -72 -63 -95 -92
-152 -74 -146 10 4 12 0 9 -14 -7 -24 -31 -24 -62 1 -26 23 -22 50 8 50 14 0
23 11 32 38 6 20 15 39 20 42 4 3 23 31 43 63 38 63 41 98 10 123 -15 13 -14
13 9 -1 16 -9 38 -18 49 -20z m-1304 2 c6 -7 7 -18 3 -26 -6 -9 -11 -10 -15
-2 -4 6 -2 11 5 11 7 0 4 7 -7 15 -10 8 -14 15 -8 15 6 0 16 -6 22 -13z
m-1043 -17 c-3 -5 -14 -10 -23 -9 -14 0 -13 2 3 9 27 11 27 11 20 0z m1072
-12 c-3 -8 -6 -5 -6 6 -1 11 2 17 5 13 3 -3 4 -12 1 -19z m660 -10 c-3 -8 -6
-5 -6 6 -1 11 2 17 5 13 3 -3 4 -12 1 -19z m-1890 -10 c-3 -8 -6 -5 -6 6 -1
11 2 17 5 13 3 -3 4 -12 1 -19z m100 16 c-3 -3 -12 -4 -19 -1 -8 3 -5 6 6 6
11 1 17 -2 13 -5z m1610 -73 c0 -11 -5 -18 -9 -15 -4 3 -5 11 -1 19 7 21 12
19 10 -4z m-397 -15 c0 -2 -7 -7 -16 -10 -8 -3 -12 -2 -9 4 6 10 25 14 25 6z
m1090 0 c0 -2 -8 -10 -17 -17 -16 -13 -17 -12 -4 4 13 16 21 21 21 13z m-1222
-60 c-7 -8 -15 -12 -17 -11 -5 6 10 25 20 25 5 0 4 -6 -3 -14z m762 -7 c0 -6
-4 -7 -10 -4 -5 3 -10 11 -10 16 0 6 5 7 10 4 6 -3 10 -11 10 -16z m-113 5
c-3 -3 -12 -4 -19 -1 -8 3 -5 6 6 6 11 1 17 -2 13 -5z m-52 -14 c-3 -5 -12
-10 -18 -10 -7 0 -6 4 3 10 19 12 23 12 15 0z m105 6 c0 -3 -4 -8 -10 -11 -5
-3 -10 -1 -10 4 0 6 5 11 10 11 6 0 10 -2 10 -4z m474 -27 c-8 -14 -21 -11
-21 5 0 8 6 12 14 9 7 -3 10 -9 7 -14z m532 -87 c1 -6 -2 -10 -7 -6 -5 3 -7 9
-4 14 3 5 1 11 -5 15 -5 3 -10 12 -10 18 1 14 23 -22 26 -41z m-551 -12 c3 -6
-1 -7 -9 -4 -18 7 -21 14 -7 14 6 0 13 -4 16 -10z m560 -19 c-9 -8 -36 -10
-30 -2 2 4 11 8 20 8 8 0 13 -3 10 -6z m383 -11 c7 -11 11 -20 9 -20 -2 0 -12
9 -22 20 -10 11 -14 20 -9 20 5 0 15 -9 22 -20z m-2393 -10 c3 -5 1 -10 -4
-10 -6 0 -11 5 -11 10 0 6 2 10 4 10 3 0 8 -4 11 -10z m-935 -4 c0 -2 -9 -6
-20 -9 -11 -3 -18 -1 -14 4 5 9 34 13 34 5z m93 -3 c-7 -2 -19 -2 -25 0 -7 3
-2 5 12 5 14 0 19 -2 13 -5z m2054 -29 c-3 -3 -12 -4 -19 -1 -8 3 -5 6 6 6 11
1 17 -2 13 -5z m123 -8 c0 -2 -9 -6 -20 -9 -11 -3 -18 -1 -14 4 5 9 34 13 34
5z m816 -103 c4 -13 12 -23 20 -23 8 0 14 -5 14 -11 0 -5 5 -7 12 -3 6 4 8 3
4 -4 -3 -6 -2 -13 4 -17 18 -11 10 -25 -15 -25 -26 0 -34 -15 -12 -23 9 -4 9
-6 0 -6 -6 -1 -15 3 -18 9 -11 18 -197 -91 -207 -122 -6 -18 -38 -1 -38 19 0
17 -37 49 -51 45 -4 -1 -5 8 -2 19 4 14 12 19 23 16 10 -2 25 4 34 15 18 20
164 118 177 118 4 0 6 9 4 19 -3 18 -1 19 21 9 13 -6 27 -22 30 -35z m-2836
29 c0 -5 -7 -17 -15 -28 -14 -18 -14 -17 -4 9 12 27 19 34 19 19z m2761 -15
c-10 -9 -11 -8 -5 6 3 10 9 15 12 12 3 -3 0 -11 -7 -18z m-2091 -1 c0 -3 -4
-8 -10 -11 -5 -3 -10 -1 -10 4 0 6 5 11 10 11 6 0 10 -2 10 -4z m1120 -27 c-7
-11 -14 -18 -17 -15 -3 3 0 12 7 21 18 21 23 19 10 -6z m-1245 -28 c-3 -2 -19
-5 -36 -6 -21 -2 -27 0 -18 6 14 8 62 9 54 0z m52 -13 c-3 -8 -6 -5 -6 6 -1
11 2 17 5 13 3 -3 4 -12 1 -19z m-217 -3 c0 -8 -2 -15 -4 -15 -2 0 -6 7 -10
15 -3 8 -1 15 4 15 6 0 10 -7 10 -15z m-435 -5 c3 -5 1 -10 -4 -10 -6 0 -11 5
-11 10 0 6 2 10 4 10 3 0 8 -4 11 -10z m-48 -32 c-3 -8 -6 -5 -6 6 -1 11 2 17
5 13 3 -3 4 -12 1 -19z m1270 -50 c-3 -8 -6 -5 -6 6 -1 11 2 17 5 13 3 -3 4
-12 1 -19z m-1273 -14 c3 -8 2 -12 -4 -9 -6 3 -10 10 -10 16 0 14 7 11 14 -7z
m283 -46 c-3 -8 -6 -5 -6 6 -1 11 2 17 5 13 3 -3 4 -12 1 -19z m2793 7 c0 -8
-2 -15 -4 -15 -2 0 -6 7 -10 15 -3 8 -1 15 4 15 6 0 10 -7 10 -15z m-273 -40
c0 -8 -4 -12 -9 -9 -5 3 -6 10 -3 15 9 13 12 11 12 -6z m-2810 -1 c-3 -3 -12
-4 -19 -1 -8 3 -5 6 6 6 11 1 17 -2 13 -5z m1431 -19 c-3 -3 -9 2 -12 12 -6
14 -5 15 5 6 7 -7 10 -15 7 -18z m-54 -21 c3 -8 2 -12 -4 -9 -6 3 -10 10 -10
16 0 14 7 11 14 -7z m-1164 -14 c0 -5 -5 -10 -11 -10 -5 0 -7 5 -4 10 3 6 8
10 11 10 2 0 4 -4 4 -10z m1227 -12 c-3 -8 -6 -5 -6 6 -1 11 2 17 5 13 3 -3 4
-12 1 -19z m700 -20 c-3 -8 -6 -5 -6 6 -1 11 2 17 5 13 3 -3 4 -12 1 -19z
m-770 -100 c-3 -8 -6 -5 -6 6 -1 11 2 17 5 13 3 -3 4 -12 1 -19z m1803 -3 c0
-14 -2 -25 -4 -25 -2 0 -6 11 -8 25 -3 14 -1 25 3 25 5 0 9 -11 9 -25z m-23
-27 c-3 -8 -6 -5 -6 6 -1 11 2 17 5 13 3 -3 4 -12 1 -19z m290 -40 c-3 -8 -6
-5 -6 6 -1 11 2 17 5 13 3 -3 4 -12 1 -19z m-1827 -18 c0 -5 -2 -10 -4 -10 -3
0 -8 5 -11 10 -3 6 -1 10 4 10 6 0 11 -4 11 -10z m1827 -22 c-3 -8 -6 -5 -6 6
-1 11 2 17 5 13 3 -3 4 -12 1 -19z m-1645 -50 c-8 -8 -9 -4 -5 13 4 13 8 18
11 10 2 -7 -1 -18 -6 -23z m18 -15 c-11 -17 -11 -17 -6 0 3 10 6 24 7 30 0 9
2 9 5 0 3 -7 0 -20 -6 -30z m-1893 -15 c-3 -7 -5 -2 -5 12 0 14 2 19 5 13 2
-7 2 -19 0 -25z m1523 -23 c0 -8 -2 -15 -4 -15 -2 0 -6 7 -10 15 -3 8 -1 15 4
15 6 0 10 -7 10 -15z m357 -17 c-3 -8 -6 -5 -6 6 -1 11 2 17 5 13 3 -3 4 -12
1 -19z m-1656 -12 c1 -6 1 -16 0 -21 0 -6 29 -21 66 -33 66 -23 67 -24 135 -6
63 17 68 20 68 45 0 31 15 46 26 27 13 -20 4 -72 -13 -85 -9 -7 -35 -15 -59
-19 -43 -6 -61 -24 -26 -24 9 -1 36 -11 59 -23 31 -16 40 -26 34 -36 -13 -20
-118 -19 -138 2 -15 14 -12 14 27 1 23 -8 48 -13 54 -11 6 3 2 8 -9 11 -11 4
-39 17 -63 28 -42 21 -45 21 -90 5 -26 -10 -54 -17 -64 -17 -21 0 -28 -21 -12
-38 10 -10 48 -12 148 -10 l135 3 5 -28 c3 -16 2 -36 -4 -45 -6 -11 -9 -13
-10 -4 0 9 -8 11 -22 8 -13 -3 -17 -3 -10 0 35 16 0 24 -112 24 -101 0 -125
-3 -130 -15 -11 -30 -26 -14 -26 28 0 23 -4 56 -9 73 l-9 32 49 6 c27 4 49 11
49 15 0 5 10 7 23 5 13 -3 9 2 -12 11 -18 9 -40 14 -48 11 -8 -3 -11 -2 -8 3
3 5 1 12 -4 15 -5 4 -12 -8 -16 -25 l-7 -31 -12 23 c-9 16 -10 30 -4 42 5 10
7 25 4 32 -3 8 -1 17 5 20 5 4 7 11 4 16 -3 5 1 6 9 3 9 -3 17 -11 17 -18z
m3082 9 c4 -8 3 -16 -1 -19 -4 -3 -9 4 -9 15 -2 23 3 25 10 4z m-2753 -45 c6
-11 8 -20 6 -20 -3 0 -10 9 -16 20 -6 11 -8 20 -6 20 3 0 10 -9 16 -20z m1130
-15 c0 -5 -5 -3 -10 5 -5 8 -10 20 -10 25 0 6 5 3 10 -5 5 -8 10 -19 10 -25z
m-1698 -7 c-8 -8 -9 -4 -5 13 4 13 8 18 11 10 2 -7 -1 -18 -6 -23z m315 26
c-3 -3 -12 -4 -19 -1 -8 3 -5 6 6 6 11 1 17 -2 13 -5z m3004 -16 c1 -13 2 -43
3 -67 l1 -45 -144 -2 c-103 -2 -146 -7 -152 -15 -4 -7 -6 -16 -3 -20 6 -10
254 1 274 11 18 10 39 -16 33 -40 -4 -15 -23 -17 -149 -18 -79 0 -149 -4 -155
-7 -14 -9 -24 2 -25 28 -1 12 -4 40 -7 62 l-5 41 131 2 c72 2 136 7 142 12 7
6 14 7 17 4 3 -3 9 0 13 7 6 9 -23 10 -126 5 -74 -4 -142 -9 -151 -12 -15 -4
-18 1 -18 30 0 25 4 36 15 36 8 0 15 -3 15 -7 0 -11 231 -3 250 8 25 15 40 10
41 -13z m-2971 2 c0 -5 -2 -10 -4 -10 -3 0 -8 5 -11 10 -3 6 -1 10 4 10 6 0
11 -4 11 -10z m1283 -20 c3 -11 1 -18 -4 -14 -5 3 -9 12 -9 20 0 20 7 17 13
-6z m377 3 c0 -5 -5 -15 -10 -23 -7 -12 -9 -10 -7 8 1 19 17 33 17 15z m-1456
-18 c-4 -8 -11 -15 -16 -15 -6 0 -5 6 2 15 7 8 14 15 16 15 2 0 1 -7 -2 -15z
m483 -41 c-3 -3 -12 -4 -19 -1 -8 3 -5 6 6 6 11 1 17 -2 13 -5z m2758 -34 c3
-5 1 -10 -4 -10 -6 0 -11 5 -11 10 0 6 2 10 4 10 3 0 8 -4 11 -10z m-2880 -18
c-3 -3 -11 0 -18 7 -9 10 -8 11 6 5 10 -3 15 -9 12 -12z m-635 -7 c0 -2 -6 -5
-13 -8 -8 -3 -14 1 -14 8 0 7 6 11 14 8 7 -3 13 -6 13 -8z m77 9 c-3 -3 -12
-4 -19 -1 -8 3 -5 6 6 6 11 1 17 -2 13 -5z m1168 -22 c-3 -3 -11 0 -18 7 -9
10 -8 11 6 5 10 -3 15 -9 12 -12z m64 -8 c14 -12 -19 -1 -35 12 -18 14 -18 14
6 3 14 -6 27 -13 29 -15z m-1202 10 c-3 -3 -12 -4 -19 -1 -8 3 -5 6 6 6 11 1
17 -2 13 -5z m1618 -4 c-3 -5 -12 -10 -18 -10 -7 0 -6 4 3 10 19 12 23 12 15
0z m44 -5 c-9 -8 -79 -35 -79 -30 0 3 15 11 33 19 32 15 54 20 46 11z m-1284
-15 c13 -6 15 -9 5 -9 -8 0 -22 4 -30 9 -18 12 -2 12 25 0z m1870 -8 c-3 -3
-11 0 -18 7 -9 10 -8 11 6 5 10 -3 15 -9 12 -12z m355 8 c0 -5 -5 -10 -11 -10
-5 0 -7 5 -4 10 3 6 8 10 11 10 2 0 4 -4 4 -10z m-2366 -38 c2 -4 -4 -8 -14
-8 -10 0 -16 4 -14 8 3 4 9 8 14 8 5 0 11 -4 14 -8z m3101 -2 c3 -5 1 -10 -4
-10 -6 0 -11 5 -11 10 0 6 2 10 4 10 3 0 8 -4 11 -10z m-715 -15 c19 -22 8
-25 -12 -3 -10 10 -14 18 -9 18 5 0 14 -7 21 -15z m58 2 c14 4 14 3 2 -5 -16
-12 -30 -7 -29 11 0 9 2 9 5 0 3 -7 13 -9 22 -6z m195 6 c-7 -2 -19 -2 -25 0
-7 3 -2 5 12 5 14 0 19 -2 13 -5z m453 -31 c-4 -3 -14 2 -24 12 -16 18 -16 18
6 6 13 -6 21 -14 18 -18z m201 22 c-3 -3 -12 -4 -19 -1 -8 3 -5 6 6 6 11 1 17
-2 13 -5z m-3357 -19 c0 -2 -6 -5 -13 -8 -8 -3 -14 1 -14 8 0 7 6 11 14 8 7
-3 13 -6 13 -8z m-615 -5 c-3 -5 -12 -10 -18 -10 -7 0 -6 4 3 10 19 12 23 12
15 0z m3702 4 c-3 -3 -12 -4 -19 -1 -8 3 -5 6 6 6 11 1 17 -2 13 -5z m-3444
-11 c-7 -2 -19 -2 -25 0 -7 3 -2 5 12 5 14 0 19 -2 13 -5z m42 -3 c-3 -5 -12
-10 -18 -10 -7 0 -6 4 3 10 19 12 23 12 15 0z m272 4 c-3 -3 -12 -4 -19 -1 -8
3 -5 6 6 6 11 1 17 -2 13 -5z m3170 0 c-3 -3 -12 -4 -19 -1 -8 3 -5 6 6 6 11
1 17 -2 13 -5z m60 -50 c-3 -3 -12 -4 -19 -1 -8 3 -5 6 6 6 11 1 17 -2 13 -5z
m-3657 -14 c8 -5 11 -10 5 -10 -5 0 -17 5 -25 10 -8 5 -10 10 -5 10 6 0 17 -5
25 -10z m-32 -27 c-10 -2 -26 -2 -35 0 -10 3 -2 5 17 5 19 0 27 -2 18 -5z
m1882 -7 c0 -3 -4 -8 -10 -11 -5 -3 -10 -1 -10 4 0 6 5 11 10 11 6 0 10 -2 10
-4z m-1980 -10 c0 -2 -8 -10 -17 -17 -16 -13 -17 -12 -4 4 13 16 21 21 21 13z
m-340 -86 c0 -5 -2 -10 -4 -10 -3 0 -8 5 -11 10 -3 6 -1 10 4 10 6 0 11 -4 11
-10z m1965 -31 c3 -4 11 -7 18 -5 7 1 9 1 5 -1 -5 -3 -8 -13 -8 -24 0 -64
-106 -183 -191 -216 -37 -14 -54 -26 -52 -38 0 -9 -2 -13 -5 -10 -4 4 -12 -10
-18 -31 -14 -50 -40 -61 -29 -13 3 19 7 50 6 69 0 21 8 43 19 55 36 38 80 168
51 150 -6 -3 -15 5 -22 17 -6 13 -8 20 -4 16 4 -4 25 2 46 12 62 32 170 43
184 19z m-785 -10 c0 -21 -55 -151 -96 -226 -24 -46 -42 -83 -40 -83 2 0 23 9
47 19 58 26 135 37 153 22 10 -9 17 -6 30 14 9 14 14 30 11 36 -4 5 -3 8 2 7
4 -2 26 16 48 40 28 30 50 44 75 48 61 9 66 -4 31 -87 -17 -40 -31 -84 -31
-97 l0 -24 35 22 c19 12 35 17 35 12 0 -16 -68 -54 -87 -50 -13 3 -17 12 -16
31 l2 28 -42 -36 c-51 -44 -82 -44 -82 1 l0 30 -55 -1 c-41 -1 -75 -11 -131
-38 -42 -21 -79 -37 -83 -37 -3 0 -6 9 -6 20 0 11 4 20 8 20 12 0 67 88 104
165 28 61 47 121 51 166 1 17 37 15 37 -2z m1783 5 c4 -4 -2 -19 -13 -34 -39
-55 -134 -310 -115 -310 14 0 45 21 41 28 -2 4 5 8 16 8 18 0 16 -4 -11 -28
-37 -33 -81 -38 -81 -10 0 23 26 97 80 227 50 120 63 139 83 119z m-321 -39
c3 -13 1 -23 -5 -22 -13 3 -78 -125 -72 -141 3 -7 0 -10 -5 -7 -6 3 -11 1 -11
-4 -2 -16 -4 -23 -17 -54 -24 -56 -9 -73 36 -41 36 25 37 10 2 -20 -38 -32
-80 -35 -80 -6 0 18 -2 17 -25 -5 -30 -31 -78 -33 -98 -5 -8 11 -17 17 -20 13
-4 -3 -1 -13 6 -22 10 -14 10 -14 -3 -4 -10 8 -21 9 -30 3 -8 -6 -25 -10 -37
-10 -33 0 -30 27 12 110 19 39 33 70 30 70 -9 0 -49 -47 -102 -117 -26 -35
-53 -63 -60 -63 -16 0 -16 5 -2 31 8 15 7 25 -3 37 -11 15 -11 15 3 5 13 -11
19 -7 37 26 29 51 29 67 0 47 -28 -20 -58 -20 -58 -1 0 9 9 15 21 15 27 0 79
37 79 56 0 8 7 14 15 14 20 0 19 -10 -10 -77 l-26 -58 30 35 c31 36 40 57 19
44 -7 -4 -8 -3 -4 5 4 6 11 9 15 6 5 -2 19 7 31 20 26 28 50 33 50 11 0 -8
-16 -47 -35 -87 -39 -81 -44 -112 -19 -102 13 5 13 8 2 15 -9 7 -8 8 6 4 10
-4 25 -1 32 5 18 14 19 43 2 33 -7 -4 -10 -4 -6 0 3 4 9 7 13 6 3 0 22 23 41
52 44 67 93 102 133 96 25 -4 31 0 46 31 38 82 59 100 67 56z m-2575 -1 c-3
-3 -12 -4 -19 -1 -8 3 -5 6 6 6 11 1 17 -2 13 -5z m-127 -14 c0 -5 -5 -10 -11
-10 -5 0 -7 5 -4 10 3 6 8 10 11 10 2 0 4 -4 4 -10z m67 -46 c-3 -3 -12 -4
-19 -1 -8 3 -5 6 6 6 11 1 17 -2 13 -5z m190 0 c-3 -3 -12 -4 -19 -1 -8 3 -5
6 6 6 11 1 17 -2 13 -5z m1939 -66 c-3 -24 -7 -48 -8 -55 -1 -6 -8 -9 -16 -5
-9 3 -13 1 -9 -5 3 -5 1 -10 -6 -11 -7 -1 -31 -5 -54 -8 -34 -5 -42 -10 -46
-32 -7 -34 8 -62 33 -62 25 0 92 59 84 74 -5 8 -4 8 5 0 28 -26 -40 -94 -93
-94 -41 0 -56 16 -56 57 0 80 83 181 149 183 22 0 23 -3 17 -42z m581 2 c-1
-15 -6 -26 -11 -22 -5 3 -6 -2 -3 -12 4 -9 3 -15 -1 -12 -5 3 -23 -25 -41 -62
l-32 -67 36 38 c20 21 33 43 29 49 -4 6 -3 8 3 5 14 -9 37 19 27 34 -4 7 -3 9
3 6 6 -4 23 11 38 33 15 22 34 40 41 40 19 0 19 -2 -26 -84 -22 -40 -40 -80
-40 -89 0 -26 -22 -67 -37 -67 -7 0 -13 4 -13 8 0 12 -30 8 -58 -7 -18 -9 -23
-9 -26 1 -2 7 -7 21 -10 31 -3 10 -2 16 3 13 11 -7 23 22 14 36 -3 6 -2 8 4 5
12 -8 46 61 37 75 -5 7 -2 8 6 3 10 -6 12 -4 7 9 -4 10 -3 15 3 11 9 -5 14 15
13 51 0 6 8 9 18 7 13 -4 17 -13 16 -33z m439 18 c10 -13 15 -19 9 -15 -5 4
-17 -12 -27 -39 -15 -38 -16 -49 -6 -63 12 -14 11 -14 -4 -3 -15 12 -18 11
-23 -11 -4 -14 -5 -34 -3 -44 3 -17 4 -17 24 2 23 22 44 30 44 16 0 -15 -68
-53 -87 -49 -13 3 -17 12 -16 32 2 27 1 28 -17 11 -16 -15 -18 -21 -8 -34 10
-13 10 -14 -1 -5 -10 9 -20 8 -40 -4 -86 -49 -76 61 16 167 55 64 105 78 139
39z m-992 -34 c3 -8 2 -12 -4 -9 -6 3 -10 10 -10 16 0 14 7 11 14 -7z m-1159
-113 c3 -5 2 -12 -3 -15 -5 -3 -9 1 -9 9 0 17 3 19 12 6z m1950 -99 c-3 -3
-11 0 -18 7 -9 10 -8 11 6 5 10 -3 15 -9 12 -12z m1155 -134 c-10 -43 -31 -88
-41 -88 -4 0 -1 16 7 35 7 19 14 43 14 54 0 11 6 22 13 24 6 3 13 6 13 6 1 1
-2 -14 -6 -31z m-3700 10 c-1 -19 -49 -105 -50 -88 0 22 32 100 41 100 5 0 9
-6 9 -12z m28 -27 c-2 -21 -6 -37 -10 -35 -4 2 -9 -5 -13 -16 -3 -11 -11 -20
-16 -20 -5 0 -2 16 6 36 8 20 15 45 15 55 0 11 5 19 10 19 6 0 9 -17 8 -39z
m3639 22 c-3 -10 -21 -54 -40 -98 -19 -44 -38 -91 -42 -105 -8 -24 -8 -24 19
-7 14 10 26 13 26 7 0 -15 -48 -43 -60 -35 -7 4 -9 16 -7 27 5 19 4 19 -19 -2
-19 -19 -22 -26 -12 -39 10 -13 10 -14 -2 -3 -8 6 -23 12 -33 12 -15 0 -18 5
-15 28 3 15 9 36 13 46 6 15 5 17 -5 11 -8 -5 -11 -4 -6 3 3 6 -3 16 -14 22
-11 6 -18 15 -15 21 4 5 0 9 -9 9 -18 0 -64 -54 -72 -85 -13 -51 19 -51 75 -1
l24 21 -12 -22 c-22 -42 -89 -70 -105 -44 -4 5 -19 4 -36 -2 -25 -9 -33 -9
-39 2 -6 9 -11 10 -15 2 -11 -17 -46 -13 -46 4 0 9 9 35 21 58 l20 42 -28 -30
c-15 -17 -38 -44 -50 -60 -33 -46 -39 -21 -9 37 l28 53 -29 -30 c-15 -17 -38
-44 -50 -60 -30 -42 -41 -23 -15 24 27 48 27 55 1 41 -11 -7 -24 -8 -27 -4 -4
4 -2 9 5 11 7 2 28 17 49 33 20 17 41 27 48 23 6 -4 19 -6 29 -5 21 4 21 0 2
-41 l-16 -32 25 29 c14 17 23 33 21 36 -2 3 7 7 21 8 13 1 24 0 24 -2 0 -2
-12 -29 -26 -60 -14 -32 -24 -60 -21 -62 15 -15 47 22 72 83 34 80 31 77 43
69 6 -4 -4 -35 -24 -76 -19 -39 -34 -75 -34 -81 0 -21 40 13 59 49 28 54 66
86 104 87 29 1 32 -1 31 -24 -2 -43 7 -44 42 -6 26 29 39 36 59 33 14 -3 25
-1 25 6 0 21 33 96 43 96 5 0 7 -8 4 -17z m-3309 -20 c-2 -5 -20 -42 -41 -83
-36 -72 -46 -110 -29 -110 4 0 13 5 20 12 9 9 12 9 12 0 0 -6 -11 -19 -25 -28
-21 -14 -28 -14 -42 -3 -9 8 -14 9 -11 4 9 -15 -51 -18 -68 -5 -9 8 -18 8 -33
1 -23 -13 -36 0 -26 26 5 14 3 14 -14 -1 -11 -10 -19 -22 -16 -25 2 -4 -10 -8
-26 -9 -25 -2 -29 1 -29 21 0 26 38 89 74 123 15 14 28 19 41 14 11 -4 23 -6
27 -4 3 2 4 -6 0 -18 -4 -16 -2 -19 8 -13 9 5 11 4 6 -4 -4 -6 -11 -9 -16 -6
-4 3 -15 -16 -24 -42 -20 -58 -20 -56 4 -43 11 6 20 17 20 25 0 8 20 36 45 61
32 34 49 45 65 41 11 -3 20 -2 20 1 0 15 40 72 51 72 6 0 9 -3 7 -7z m707 -43
c-5 -17 -2 -20 24 -20 44 0 38 -18 -6 -22 -29 -2 -38 -7 -37 -20 1 -10 -2 -16
-6 -13 -9 6 -43 -86 -35 -94 3 -3 15 0 25 7 25 15 26 4 3 -14 -24 -18 -53 -17
-53 1 0 11 -5 12 -25 5 -28 -11 -41 1 -30 28 4 11 -4 7 -22 -11 -64 -61 -85
-15 -31 69 18 27 31 51 31 54 -2 10 61 9 73 0 17 -15 61 4 69 29 3 12 11 21
16 21 6 0 7 -9 4 -20z m30 10 c-3 -5 -1 -10 6 -10 7 0 10 -3 6 -6 -9 -9 -28 6
-22 17 4 5 8 9 11 9 3 0 2 -4 -1 -10z m620 -10 c-5 -17 -2 -20 24 -20 17 0 31
-4 31 -10 0 -5 -16 -10 -35 -10 -28 0 -37 -5 -50 -31 -9 -17 -14 -37 -11 -45
3 -8 2 -13 -3 -10 -9 6 -24 -35 -15 -43 3 -3 14 0 24 7 11 7 20 9 20 6 0 -12
-35 -33 -54 -34 -16 0 -17 5 -11 33 4 17 8 42 9 54 1 11 4 19 7 17 7 -4 22 26
16 32 -6 6 -47 -9 -47 -17 0 -5 -5 -9 -11 -9 -5 0 -7 5 -3 12 20 32 -16 -8
-51 -56 -38 -52 -64 -74 -52 -42 5 12 2 12 -20 1 -32 -17 -47 -10 -40 17 5 19
5 19 -13 3 -11 -10 -18 -21 -15 -24 2 -4 -10 -8 -26 -9 -24 -2 -29 1 -29 21 0
13 14 45 32 73 18 27 31 51 31 54 -1 3 15 6 35 5 34 0 37 -2 34 -25 -2 -14 -4
-35 -5 -47 -1 -11 -5 -19 -9 -16 -5 2 -8 0 -8 -6 0 -5 -3 -18 -7 -28 -7 -17
-6 -17 20 0 15 9 27 14 27 10 1 -5 8 5 16 21 15 27 15 30 -1 39 -15 8 -13 11
14 28 41 25 42 24 30 -8 l-10 -28 30 29 c16 15 34 25 39 22 17 -10 60 11 67
33 3 12 11 21 16 21 6 0 7 -9 4 -20z m790 0 c-5 -17 -2 -20 24 -20 44 0 38
-18 -6 -22 -36 -3 -39 -6 -61 -62 -25 -62 -23 -78 8 -58 11 7 20 9 20 6 0 -12
-35 -33 -54 -34 -14 0 -17 5 -14 25 6 31 -16 34 -47 5 -12 -12 -39 -23 -59
-27 -30 -5 -36 -3 -36 12 0 14 -3 15 -15 5 -19 -16 -38 -3 -32 22 4 16 3 17
-9 7 -7 -6 -11 -16 -7 -22 3 -5 1 -7 -5 -3 -6 3 -13 2 -17 -4 -3 -5 -16 -10
-27 -10 -18 0 -20 4 -15 35 4 26 3 34 -6 29 -7 -4 -10 -5 -7 -1 3 3 10 6 15 8
16 3 37 38 30 49 -4 6 -3 9 2 8 4 -1 20 5 34 15 14 9 37 16 51 15 l26 -2 -24
-63 c-29 -77 -29 -77 -1 -61 12 7 27 13 32 13 35 3 85 19 85 26 0 5 -13 15
-30 24 -16 9 -30 22 -30 30 0 14 50 29 86 25 41 -5 55 1 66 25 13 30 32 34 23
5z m-1914 -18 c-30 -14 -120 -135 -125 -167 -1 -8 -6 -18 -11 -22 -4 -4 -5 -3
-2 4 4 6 2 13 -4 15 -15 5 16 146 37 167 11 12 10 4 -1 -45 -7 -32 -12 -60
-11 -62 8 -7 36 50 30 61 -4 7 -3 9 1 4 10 -8 77 52 70 63 -2 4 7 5 21 2 l26
-5 -31 -15z m623 -68 c-30 -80 -30 -80 1 -60 14 9 25 12 25 7 0 -13 -22 -29
-45 -33 -15 -2 -20 2 -19 19 0 18 -2 20 -13 12 -7 -6 -10 -16 -6 -22 3 -5 1
-7 -5 -3 -6 3 -13 2 -17 -4 -3 -5 -15 -10 -26 -10 -13 0 -18 -4 -13 -12 4 -6
3 -8 -3 -5 -15 10 1 74 27 110 12 16 23 36 24 45 2 9 9 17 17 18 8 0 24 2 37
2 16 2 21 6 16 15 -6 9 -4 8 8 -1 15 -12 15 -19 -8 -78z m-520 1 c-29 -79 -29
-78 -3 -64 17 9 19 13 8 20 -9 6 -10 9 -2 9 6 0 15 -5 19 -11 4 -8 12 -2 21
15 13 25 13 29 -4 42 -16 12 -16 13 -2 14 9 0 22 7 29 15 20 24 30 17 19 -12
l-10 -28 28 28 c16 15 33 27 37 27 13 0 2 -43 -13 -48 -9 -3 -11 0 -7 9 4 8
-2 3 -13 -10 -12 -12 -18 -28 -14 -34 3 -6 1 -7 -5 -3 -7 4 -21 -8 -34 -28
-23 -35 -45 -49 -35 -22 5 12 2 12 -20 1 -32 -17 -47 -10 -39 17 4 18 1 17
-23 -6 -41 -39 -62 -35 -59 13 2 22 5 37 7 35 2 -2 17 14 33 36 27 36 80 64
100 53 4 -2 -4 -33 -18 -68z m2180 16 l-15 -36 31 38 c17 20 38 37 46 37 19 0
18 -2 -11 -60 -27 -54 -31 -70 -14 -70 5 0 7 4 4 10 -3 5 0 7 9 4 10 -4 24 11
46 49 32 57 54 74 74 58 6 -5 20 -5 31 0 28 11 55 11 55 -1 0 -5 -10 -10 -23
-10 -31 0 -49 -16 -81 -72 -34 -61 -86 -91 -86 -51 0 13 -3 14 -12 5 -18 -18
-48 -15 -48 6 0 9 9 35 20 57 l21 40 -41 -45 c-22 -25 -38 -50 -36 -55 2 -6
-5 -12 -15 -12 -24 -2 -24 8 1 49 25 41 25 52 1 38 -26 -13 -31 -13 -31 5 0 8
8 15 18 15 11 0 26 8 35 18 13 15 14 21 4 31 -10 11 -8 11 10 0 21 -12 21 -15
7 -48z m-2434 20 c0 -34 -31 -61 -68 -61 -19 0 -23 -4 -20 -27 4 -37 20 -38
58 -6 29 24 32 25 21 5 -14 -26 -36 -39 -76 -43 -29 -4 -30 -3 -26 31 4 45 24
83 57 109 37 29 54 27 54 -8z m1435 19 c4 -6 -3 -35 -14 -66 -26 -69 -26 -70
4 -50 14 9 25 12 25 6 0 -5 -13 -16 -29 -25 -32 -16 -48 -7 -36 23 4 11 -4 7
-22 -11 -60 -57 -86 -15 -37 59 43 65 91 93 109 64z m271 -4 c5 -13 -50 -161
-68 -180 -13 -16 -9 11 7 51 l16 37 -25 -23 c-14 -13 -23 -27 -21 -31 2 -4 -7
-5 -20 -2 -34 6 -33 38 4 92 40 60 95 88 107 56z m453 -23 l-10 -28 30 29 c17
16 33 27 37 24 8 -9 -5 -48 -17 -48 -6 0 -7 6 -4 13 11 21 -55 -56 -73 -85
-16 -28 -32 -37 -32 -19 0 6 9 26 21 45 l21 36 -23 20 c-22 18 -22 19 -3 14
12 -3 26 1 33 10 21 25 32 19 20 -11z m166 17 c4 -6 15 -6 31 0 33 13 54 13
54 0 0 -5 -9 -10 -21 -10 -32 0 -61 -20 -55 -36 3 -8 2 -12 -3 -9 -5 3 -12 -4
-16 -14 -9 -29 -60 -81 -79 -81 -24 0 -20 35 11 88 36 63 63 86 78 62z m-995
-14 c0 -2 -7 -7 -16 -10 -8 -3 -12 -2 -9 4 6 10 25 14 25 6z m-680 -51 c-7 -9
-15 -13 -19 -10 -3 3 1 10 9 15 21 14 24 12 10 -5z m1870 11 c0 -2 -8 -10 -17
-17 -16 -13 -17 -12 -4 4 13 16 21 21 21 13z m-160 -62 c0 -8 -19 -13 -24 -6
-3 5 1 9 9 9 8 0 15 -2 15 -3z m-1630 -28 c0 -3 -4 -8 -10 -11 -5 -3 -10 -1
-10 4 0 6 5 11 10 11 6 0 10 -2 10 -4z m1245 -15 c3 -5 2 -12 -3 -15 -5 -3 -9
1 -9 9 0 17 3 19 12 6z m940 0 c3 -5 2 -12 -3 -15 -5 -3 -9 1 -9 9 0 17 3 19
12 6z m130 0 c3 -5 2 -12 -3 -15 -5 -3 -9 1 -9 9 0 17 3 19 12 6z m-1070 -115
c22 -3 216 -10 430 -16 215 -6 442 -15 505 -20 63 -5 165 -10 225 -11 250 -3
-73 -27 -406 -30 -138 -2 -146 -3 -142 -20 3 -11 0 -26 -7 -35 -11 -13 -5 -23
40 -69 45 -46 51 -56 40 -69 -28 -35 -140 -15 -195 34 -16 14 -25 16 -45 8
-24 -10 -24 -10 -5 -18 11 -5 17 -9 13 -9 -5 -1 8 -22 27 -47 35 -46 48 -104
23 -104 -19 0 -114 50 -138 72 -12 11 -20 32 -20 51 l0 32 -107 0 c-60 0 -127
3 -151 7 -33 6 -41 5 -36 -5 5 -8 3 -8 -9 1 -9 8 -49 20 -89 29 -40 8 -82 19
-93 24 -19 9 -19 9 -1 -3 10 -7 41 -36 69 -65 l50 -52 26 19 c36 27 111 38
111 17 0 -16 -54 -67 -73 -68 -30 -2 63 -28 102 -28 35 -1 47 4 63 24 24 31
68 55 94 51 29 -4 28 -39 -1 -75 -15 -17 -23 -31 -17 -31 17 0 49 -35 55 -61
9 -37 -12 -52 -58 -43 -20 3 -35 2 -34 -2 1 -5 -1 -16 -5 -25 -6 -13 -14 -15
-44 -8 -28 6 -39 5 -45 -7 -10 -17 -39 -18 -55 -2 -8 8 -12 9 -12 1 0 -23 -29
-6 -69 40 -42 49 -49 65 -53 127 -2 23 -8 34 -16 32 -8 -1 -11 2 -8 7 4 5 2
12 -3 15 -5 3 -11 -20 -14 -52 -4 -49 -1 -61 20 -90 13 -18 27 -30 31 -28 15
9 11 -63 -4 -78 -22 -23 -81 -21 -94 3 -16 30 -14 90 4 150 24 81 21 142 -7
169 -13 12 -27 19 -31 15 -4 -5 -6 -3 -4 3 3 10 -53 64 -66 64 -15 0 -86 52
-81 59 2 5 -4 11 -15 14 -25 6 -17 -9 22 -42 36 -29 58 -71 73 -137 22 -91 -6
-103 -94 -40 -60 43 -90 75 -111 119 -16 33 -17 41 -4 65 7 15 14 29 14 32 0
10 -270 9 -296 0 -17 -7 -23 -7 -19 0 4 7 -17 10 -64 9 -39 -1 -71 -3 -71 -5
0 -7 103 -64 127 -70 25 -7 27 -6 14 10 -12 14 -12 16 3 10 9 -3 16 -1 16 5 0
6 11 18 25 27 28 18 75 12 75 -11 0 -11 15 -14 72 -12 60 2 73 -1 76 -15 3
-18 -45 -68 -66 -68 -7 0 -23 -7 -36 -15 -13 -9 -28 -14 -32 -13 -5 2 -11 -1
-14 -7 -3 -6 15 -12 41 -15 50 -6 99 -33 99 -54 0 -26 -28 -38 -69 -31 -36 6
-40 4 -43 -17 -2 -18 -11 -24 -40 -29 -20 -3 -36 -3 -36 0 1 3 -4 18 -12 33
-11 23 -16 25 -38 17 -18 -7 -31 -5 -48 6 -29 19 -30 42 -4 75 22 29 37 22 20
-9 -12 -24 -6 -41 16 -41 8 0 12 4 9 10 -3 6 1 7 9 4 20 -8 20 -2 2 41 -8 19
-12 35 -8 35 4 1 -22 14 -57 31 -36 16 -80 41 -98 55 -26 20 -31 21 -26 7 3
-10 11 -25 18 -33 22 -29 55 -106 80 -187 25 -80 37 -97 49 -70 3 6 3 1 0 -13
-6 -30 27 -67 47 -54 7 4 10 3 6 -3 -4 -6 28 -28 69 -49 42 -21 78 -42 80 -46
3 -5 10 -8 16 -8 6 0 9 3 5 6 -9 9 18 69 42 93 22 22 41 27 41 12 0 -5 9 -11
21 -14 15 -4 19 -11 15 -25 -7 -19 -6 -19 31 -2 21 10 52 21 70 25 25 5 32 3
37 -13 4 -11 2 -31 -4 -44 -12 -26 -90 -78 -118 -79 -12 0 -11 -3 6 -10 16 -6
30 -5 45 5 29 19 138 7 166 -18 26 -24 12 -53 -26 -58 -37 -4 -121 17 -142 36
-15 13 -16 11 -13 -33 3 -35 -1 -53 -16 -71 -19 -23 -20 -24 -46 -6 -15 9 -32
28 -38 40 -10 23 -11 23 -39 7 -21 -12 -31 -13 -40 -4 -13 13 -20 105 -7 97 4
-3 8 1 8 8 0 7 -18 21 -40 30 -39 16 -40 16 -29 -3 11 -22 3 -112 -13 -142 -5
-10 -7 -25 -4 -35 11 -34 -8 -45 -62 -38 -63 8 -74 -5 -37 -44 37 -39 30 -65
-17 -64 l-37 1 19 -25 c20 -24 26 -66 14 -96 -5 -14 -8 -14 -29 0 -13 9 -30
12 -36 8 -7 -4 -9 -3 -5 4 3 6 2 13 -4 17 -6 4 -10 -5 -10 -20 0 -32 -24 -81
-44 -88 -18 -7 -33 16 -38 56 -2 14 -7 29 -10 33 -4 3 -4 13 -1 22 5 12 2 14
-13 7 -77 -33 -119 -4 -88 60 8 19 22 39 30 46 11 9 11 13 -1 26 -21 21 -19
40 10 68 29 30 59 31 103 5 38 -24 46 -25 39 -6 -3 7 -2 17 3 22 4 5 16 53 25
107 15 89 15 105 0 189 -8 50 -19 96 -22 102 -4 6 -8 17 -8 26 -2 23 -26 94
-36 105 -5 5 -9 -10 -9 -36 0 -25 -11 -77 -24 -116 l-24 -71 20 -19 c11 -10
27 -31 35 -47 17 -33 34 -146 26 -176 -8 -31 -38 -24 -59 15 -10 20 -24 33
-31 31 -7 -3 -15 0 -19 6 -4 7 -3 8 4 4 18 -11 14 13 -7 43 -10 14 -21 36 -22
48 -4 21 -9 18 -72 -32 -38 -30 -74 -55 -82 -55 -10 0 -9 -13 6 -62 30 -94 32
-113 13 -129 -27 -22 -44 -19 -64 13 l-19 31 -7 -29 c-18 -79 -65 -100 -81
-37 -5 21 -6 50 -2 65 l7 27 -35 -17 c-70 -33 -98 27 -38 84 20 19 31 34 24
34 -19 0 -79 67 -79 89 0 67 92 65 152 -4 17 -20 17 -20 18 6 0 14 10 37 23
51 l22 24 23 -43 c12 -23 22 -50 22 -58 0 -13 3 -13 26 2 15 9 44 34 66 55 22
21 44 38 49 38 5 0 9 4 9 8 0 5 -13 7 -30 4 -18 -3 -45 4 -70 17 -48 25 -47
25 -53 9 -2 -7 -3 -5 -2 4 2 10 -5 20 -15 23 -24 8 -50 38 -55 64 -2 12 -1 19
4 17 4 -3 27 1 51 8 25 7 39 16 32 20 -7 4 -12 18 -12 32 0 22 4 25 33 22 29
-3 32 -6 31 -34 -2 -31 0 -32 49 -37 27 -4 57 -13 66 -20 19 -16 49 -34 39
-23 -3 4 0 25 7 47 17 48 14 186 -5 247 l-13 43 -107 -2 -107 -1 -11 -32 c-7
-18 -12 -38 -12 -46 0 -42 -143 -179 -174 -167 -18 7 -29 83 -16 107 16 30 4
25 -50 -21 -47 -40 -48 -41 -47 -96 l2 -56 40 -3 c57 -5 75 -8 70 -12 -2 -2 5
-12 16 -23 25 -25 24 -45 -6 -75 -24 -23 -26 -24 -54 -9 -35 17 -45 19 -36 5
11 -18 -37 -60 -71 -60 -26 0 -34 5 -42 28 -5 16 -6 37 0 52 8 22 6 22 -17 -7
-33 -41 -81 -59 -94 -35 -9 16 -10 16 -16 0 -8 -20 -50 -24 -61 -7 -3 6 -15 8
-26 6 -23 -7 -58 12 -58 30 0 16 -9 16 -40 -2 -14 -8 -31 -14 -37 -15 -21 0
-15 48 9 83 13 18 23 33 24 35 1 1 9 0 18 -4 15 -6 16 -8 1 -31 -21 -32 -11
-43 15 -17 32 31 30 55 -6 109 -19 27 -34 42 -34 33 0 -9 12 -31 26 -48 30
-35 28 -44 -8 -35 -25 7 -48 51 -48 94 0 18 4 21 23 16 37 -11 71 -40 87 -74
14 -31 17 -32 60 -27 25 3 59 14 77 23 l32 17 -32 30 c-22 22 -32 40 -31 59 1
27 -1 28 -29 23 -16 -3 -69 -6 -117 -6 l-87 0 -18 -42 c-19 -46 -81 -101 -127
-112 -23 -5 -28 -3 -28 11 1 29 37 101 65 129 21 21 24 29 13 35 -23 15 -57
10 -68 -10 -21 -40 -165 -64 -185 -30 -8 11 70 87 100 99 14 5 25 14 25 20 0
6 -5 8 -12 4 -7 -4 -8 -3 -4 5 4 6 -2 23 -13 37 -12 15 -21 33 -21 40 0 8 -10
14 -22 14 -44 0 -254 11 -338 17 -166 11 -44 20 385 28 237 4 504 11 595 15
187 8 1514 5 1575 -4z m-831 -202 c3 -8 2 -12 -4 -9 -6 3 -10 10 -10 16 0 14
7 11 14 -7z m-224 -57 c0 -10 8 -13 25 -9 27 5 65 -21 65 -45 0 -21 -38 -53
-65 -53 -28 0 -49 31 -40 59 4 15 1 17 -17 14 -13 -2 -32 2 -42 10 -24 18 -15
60 16 74 19 8 26 6 40 -13 10 -12 18 -29 18 -37z m265 35 c-3 -3 -11 0 -18 7
-9 10 -8 11 6 5 10 -3 15 -9 12 -12z m-1259 -40 c-17 -16 -18 -16 -5 5 7 12
15 20 18 17 3 -2 -3 -12 -13 -22z m1918 -18 c3 -8 2 -12 -4 -9 -6 3 -10 10
-10 16 0 14 7 11 14 -7z m-1797 -76 c-3 -7 -5 -2 -5 12 0 14 2 19 5 13 2 -7 2
-19 0 -25z m1223 -107 c0 -5 -9 -7 -20 -4 -11 3 -20 7 -20 9 0 2 9 4 20 4 11
0 20 -4 20 -9z m560 -101 c0 -5 -2 -10 -4 -10 -3 0 -8 5 -11 10 -3 6 -1 10 4
10 6 0 11 -4 11 -10z m-977 -45 c-3 -9 -8 -14 -10 -11 -3 3 -2 9 2 15 9 16 15
13 8 -4z m984 -67 c-3 -7 -5 -2 -5 12 0 14 2 19 5 13 2 -7 2 -19 0 -25z m-928
9 c-2 -1 -13 -9 -24 -17 -19 -14 -19 -14 -6 3 7 9 18 17 24 17 6 0 8 -1 6 -3z
m67 -76 c19 -25 -9 -71 -43 -71 -22 0 -53 38 -46 57 15 43 63 51 89 14z m-109
-13 c-3 -8 -6 -5 -6 6 -1 11 2 17 5 13 3 -3 4 -12 1 -19z m77 -164 c10 -27
-12 -56 -42 -52 -27 3 -39 25 -28 54 7 19 62 18 70 -2z m93 -140 c-3 -3 -12
-4 -19 -1 -8 3 -5 6 6 6 11 1 17 -2 13 -5z"/>
<path d="M1700 4550 c-25 -22 -60 -45 -77 -51 -18 -6 -33 -15 -33 -20 0 -5 -8
-9 -17 -9 -29 0 -125 -49 -118 -60 3 -5 0 -7 -8 -4 -8 3 -17 -3 -21 -13 -4
-10 -14 -31 -23 -48 -11 -20 -17 -55 -17 -106 -1 -43 -4 -75 -8 -72 -5 2 -8 1
-8 -4 0 -12 44 -113 50 -113 3 0 10 21 17 48 7 29 24 62 47 86 36 40 41 61 9
35 -16 -13 -17 -12 -5 3 8 9 23 19 35 21 24 4 13 11 -36 21 -16 4 -35 19 -46
37 -16 27 -20 28 -24 13 -4 -18 -5 -18 -6 -1 -1 21 16 57 27 57 5 0 14 -15 20
-34 9 -24 22 -38 44 -45 17 -6 32 -11 34 -11 12 0 42 71 40 93 -2 15 1 30 5
33 5 3 9 17 9 30 0 16 5 24 13 21 12 -4 13 -11 2 -62 l-6 -30 18 25 c9 14 35
44 58 68 22 24 42 48 43 53 2 5 10 9 18 9 8 0 14 6 15 13 0 6 2 22 3 35 3 29
-1 28 -54 -18z m-16 -61 c-9 -10 -22 -19 -28 -19 -6 0 -5 4 3 9 7 5 9 11 5 13
-5 3 -3 3 4 1 8 -2 16 7 20 19 3 13 7 17 10 10 2 -7 -4 -22 -14 -33z m-139
-59 c-3 -5 -3 -10 2 -10 9 0 11 -95 2 -105 -4 -3 -19 -8 -33 -11 -23 -4 -25
-3 -14 10 9 10 15 11 20 2 4 -6 6 19 3 57 -4 56 -2 67 11 67 8 0 12 -4 9 -10z
m-68 -82 c-3 -8 -6 -5 -6 6 -1 11 2 17 5 13 3 -3 4 -12 1 -19z m-52 -97 c3 -5
1 -12 -5 -16 -5 -3 -10 1 -10 9 0 18 6 21 15 7z m62 -7 c-3 -3 -12 -4 -19 -1
-8 3 -5 6 6 6 11 1 17 -2 13 -5z"/>
<path d="M1695 4435 c-50 -59 -49 -67 3 -35 41 25 61 26 39 2 -21 -23 -22 -39
-2 -22 11 9 15 9 15 1 0 -22 -63 -52 -100 -48 -35 4 -45 -1 -66 -39 -10 -18
-8 -19 37 -19 36 0 53 -6 73 -24 20 -18 27 -21 30 -10 3 8 11 28 18 44 14 34
19 175 7 175 -5 0 -6 7 -3 15 11 27 -2 16 -51 -40z m40 5 c-3 -5 -11 -10 -16
-10 -6 0 -7 5 -4 10 3 6 11 10 16 10 6 0 7 -4 4 -10z m-5 -110 c-8 -5 -22 -9
-30 -9 -10 0 -8 3 5 9 27 12 43 12 25 0z m-10 -60 c0 -5 -4 -10 -10 -10 -5 0
-10 5 -10 10 0 6 5 10 10 10 6 0 10 -4 10 -10z"/>
<path d="M1630 4348 c0 -11 12 -10 30 2 12 7 10 9 -8 7 -12 0 -22 -5 -22 -9z"/>
<path d="M1160 4240 c-38 -20 -100 -82 -119 -117 -9 -18 -9 -29 3 -50 39 -74
200 -193 259 -193 16 0 10 6 -20 21 -28 14 -43 28 -43 40 0 18 1 18 33 -1 36
-23 62 -27 34 -6 -10 8 -19 18 -19 23 0 12 -38 83 -44 83 -3 0 -3 -10 1 -22 5
-20 4 -20 -5 -6 -8 13 -7 23 2 38 7 11 16 20 20 20 8 0 22 -21 23 -35 1 -5 6
-9 13 -8 6 2 9 -3 6 -11 -3 -7 4 -29 15 -47 l21 -34 0 48 c0 26 5 47 11 47 5
0 7 6 3 13 -4 6 -4 9 1 5 4 -4 9 -24 11 -45 5 -57 13 -84 24 -78 15 9 12 27
-2 19 -7 -4 -5 2 5 13 15 17 16 25 7 42 -6 12 -15 21 -21 21 -6 0 -8 4 -5 9 3
4 -5 31 -19 59 -13 27 -27 62 -31 76 -3 14 -10 24 -14 21 -5 -3 -6 5 -2 17 4
17 2 20 -12 15 -9 -4 -15 -3 -12 2 6 9 -53 41 -76 41 -7 -1 -29 -9 -48 -20z
m95 -10 c13 -6 15 -9 5 -9 -8 0 -22 4 -30 9 -18 12 -2 12 25 0z m-135 -80 c0
-5 -5 -10 -11 -10 -5 0 -7 5 -4 10 3 6 8 10 11 10 2 0 4 -4 4 -10z m-40 -14
c0 -3 -4 -8 -10 -11 -5 -3 -10 -1 -10 4 0 6 5 11 10 11 6 0 10 -2 10 -4z m260
-50 c0 -3 -4 -8 -10 -11 -5 -3 -10 -1 -10 4 0 6 5 11 10 11 6 0 10 -2 10 -4z
m-65 -116 c3 -5 1 -10 -4 -10 -6 0 -11 5 -11 10 0 6 2 10 4 10 3 0 8 -4 11
-10z m-55 -14 c0 -9 -30 -14 -35 -6 -4 6 3 10 14 10 12 0 21 -2 21 -4z"/>
<path d="M2415 4234 c-11 -2 -49 -6 -85 -9 l-65 -6 -13 -39 c-17 -54 -15 -63
8 -57 11 3 18 1 14 -4 -3 -5 -14 -9 -25 -9 -10 0 -19 -5 -19 -10 0 -6 12 -8
28 -6 15 2 53 7 85 11 32 4 56 9 53 12 -2 3 6 23 20 44 14 22 22 45 18 51 -4
6 -3 8 3 5 6 -4 16 0 23 8 13 16 6 17 -45 9z m-29 -83 c-9 -17 -23 -31 -32
-31 -12 0 -10 5 6 22 20 21 24 33 20 53 -1 6 4 5 10 -1 9 -9 8 -19 -4 -43z"/>
<path d="M2495 4227 c-16 -18 -75 -107 -75 -113 0 -2 17 -4 38 -4 26 0 39 5
39 14 0 19 55 93 78 105 16 8 12 10 -25 10 -25 0 -50 -5 -55 -12z"/>
<path d="M2602 4234 c4 -4 -2 -16 -15 -28 -22 -21 -67 -80 -67 -89 0 -2 15 -3
33 -2 26 2 44 13 77 49 38 41 70 59 70 39 0 -5 -19 -26 -41 -48 l-42 -40 33
-3 c26 -3 39 4 73 37 38 38 67 52 67 33 0 -5 -16 -21 -35 -36 -19 -16 -35 -31
-35 -35 0 -4 42 -12 94 -19 89 -11 326 -81 393 -116 18 -9 35 -11 43 -6 15 9
30 4 30 -10 0 -5 -8 -7 -17 -4 -16 5 -16 4 0 -6 10 -6 25 -9 33 -6 8 3 12 2 9
-4 -5 -8 24 -30 39 -30 11 0 6 19 -6 23 -7 2 -5 3 4 2 10 -2 37 11 62 29 l44
31 -34 23 c-19 12 -56 31 -82 41 -26 10 -72 30 -102 44 -97 45 -349 111 -462
122 -34 3 -88 8 -118 11 -30 3 -52 3 -48 -2z m38 -18 c0 -2 -7 -7 -16 -10 -8
-3 -12 -2 -9 4 6 10 25 14 25 6z m180 -54 c0 -4 -10 -13 -22 -21 -23 -14 -23
-14 -4 8 20 22 26 25 26 13z m160 -2 c0 -5 -4 -10 -10 -10 -5 0 -10 5 -10 10
0 6 5 10 10 10 6 0 10 -4 10 -10z m115 -30 c-27 -12 -43 -12 -25 0 8 5 22 9
30 9 10 0 8 -3 -5 -9z m-78 -16 c-3 -3 -12 -4 -19 -1 -8 3 -5 6 6 6 11 1 17
-2 13 -5z m173 -9 c7 -8 9 -15 6 -15 -4 0 -14 7 -22 15 -9 8 -11 15 -6 15 5 0
15 -7 22 -15z m46 -27 c4 -6 3 -8 -4 -4 -6 3 -13 2 -17 -4 -3 -5 -11 -10 -17
-10 -7 0 -6 6 2 15 15 18 26 19 36 3z m54 -18 c0 -5 -4 -10 -10 -10 -5 0 -10
5 -10 10 0 6 5 10 10 10 6 0 10 -4 10 -10z m-181 -14 c11 -14 6 -15 -27 -7 -4
1 8 21 12 21 2 0 9 -6 15 -14z m144 -7 c-6 -6 -19 -9 -29 -6 -17 3 -16 5 6 14
28 12 39 8 23 -8z m120 -29 c-4 -16 -8 -18 -19 -9 -11 9 -14 8 -14 -5 0 -9 -7
-16 -15 -16 -8 0 -18 0 -22 0 -22 0 -3 24 27 35 49 17 49 17 43 -5z"/>
<path d="M1573 4215 c-41 -29 -89 -110 -111 -187 -12 -42 -25 -84 -28 -92 -4
-11 -1 -16 10 -16 10 0 16 9 16 25 0 14 4 25 9 25 6 0 22 22 38 49 31 55 64
75 61 36 -1 -13 -6 -21 -10 -19 -11 7 -78 -98 -77 -121 1 -18 2 -18 6 -2 9 35
75 87 109 87 24 0 15 -20 -13 -31 -22 -8 -25 -12 -13 -21 12 -8 12 -9 -3 -4
-10 3 -25 -1 -34 -10 -14 -13 -13 -14 13 -8 16 4 40 11 53 16 13 5 26 6 29 4
6 -6 92 52 92 63 0 4 8 16 18 27 10 11 22 34 25 52 6 28 2 36 -31 67 -25 23
-43 33 -57 29 -14 -4 -16 -3 -7 4 11 7 10 12 -3 26 -20 20 -64 21 -92 1z m43
-180 c3 -17 -12 -20 -21 -5 -3 6 -1 10 5 10 6 0 8 6 4 13 -4 6 -3 8 1 4 5 -4
10 -14 11 -22z m64 -3 c0 -5 -12 -14 -27 -21 l-28 -12 25 21 c29 22 30 23 30
12z m-65 -72 c-3 -5 -12 -10 -18 -10 -7 0 -6 4 3 10 19 12 23 12 15 0z"/>
<path d="M2115 4183 c-49 -13 -106 -28 -125 -33 -28 -8 -35 -14 -35 -35 0 -14
3 -25 6 -25 4 0 14 -15 23 -32 14 -26 16 -28 11 -8 -16 68 -17 80 -7 80 11 0
32 -52 33 -84 0 -12 3 -16 5 -9 3 7 11 10 17 8 7 -3 30 4 52 14 28 14 34 20
20 20 -16 1 -17 3 -6 10 17 11 23 51 8 51 -6 0 -8 2 -5 5 8 9 38 -6 32 -16 -3
-5 0 -9 5 -9 8 0 7 -7 -1 -20 -7 -10 -10 -21 -8 -24 8 -8 60 6 55 14 -3 5 -1
11 5 15 6 4 8 11 5 16 -4 5 -1 9 5 9 7 0 9 8 5 19 -3 11 -1 22 5 26 14 9 13
35 -2 34 -7 -1 -53 -12 -103 -26z m55 -7 c0 -2 -8 -10 -17 -17 -16 -13 -17
-12 -4 4 13 16 21 21 21 13z m-125 -76 c0 -22 -3 -40 -7 -40 -5 0 -8 18 -8 40
0 22 3 40 8 40 4 0 7 -18 7 -40z m55 6 c0 -2 -7 -6 -15 -10 -8 -3 -15 -1 -15
4 0 6 7 10 15 10 8 0 15 -2 15 -4z"/>
<path d="M1863 4104 c-35 -18 -53 -33 -57 -50 -4 -13 -33 -51 -66 -84 -59 -60
-60 -60 -30 -60 17 0 68 20 115 44 47 25 99 47 115 51 32 7 36 15 19 32 -7 7
-12 30 -12 52 0 49 -9 51 -84 15z m45 -43 c25 -44 19 -54 -24 -41 -16 4 -21 9
-11 9 21 1 22 9 1 32 -15 17 -12 39 5 39 4 0 17 -18 29 -39z m-63 9 c-3 -5
-12 -10 -18 -10 -7 0 -6 4 3 10 19 12 23 12 15 0z m-65 -119 c0 -14 -29 -21
-36 -9 -4 6 -3 8 4 4 6 -3 13 -2 17 4 8 12 15 13 15 1z"/>
<path d="M3475 3970 c17 -18 17 -20 1 -20 -25 0 -67 -30 -59 -43 4 -6 0 -8
-10 -4 -9 3 -19 2 -21 -2 -6 -9 4 -17 85 -74 26 -17 72 -52 104 -77 32 -25 67
-51 79 -57 11 -7 17 -13 13 -13 -4 0 9 -18 29 -40 20 -22 41 -37 45 -34 5 3 9
0 9 -6 0 -11 17 -34 108 -148 24 -30 48 -64 53 -76 9 -20 17 -35 50 -86 9 -14
36 -69 59 -122 24 -54 49 -99 56 -99 33 -3 41 -3 77 4 38 8 42 13 29 34 -5 8
-19 9 -47 3 -22 -5 -42 -7 -44 -4 -10 10 24 24 58 24 33 0 33 0 17 25 -9 13
-16 30 -16 37 0 7 -28 68 -62 135 -67 134 -60 129 -151 114 -42 -7 -50 -6 -62
13 -8 11 -15 25 -15 31 0 5 4 4 9 -4 7 -10 26 -14 67 -12 32 1 60 4 62 6 4 4
-62 99 -92 133 -11 12 -27 20 -35 17 -26 -8 -111 -23 -111 -19 0 2 18 12 40
22 22 10 38 21 34 24 -3 4 5 4 18 1 22 -6 22 -5 -6 25 -16 17 -34 28 -40 25
-6 -3 -8 -2 -3 2 9 11 -41 65 -60 65 -8 0 -12 -3 -9 -8 2 -4 -20 -15 -50 -23
-69 -21 -66 -4 5 26 30 12 49 25 44 28 -11 7 -96 -30 -101 -44 -5 -11 -32 -12
-32 -1 0 5 12 14 26 21 15 6 24 14 22 16 -3 3 -19 -2 -37 -11 -26 -13 -35 -14
-44 -4 -9 10 -9 11 1 6 6 -4 12 -4 12 1 0 4 20 19 45 32 25 13 45 27 45 32 0
10 -91 72 -97 66 -2 -3 3 -12 12 -20 23 -23 18 -30 -9 -12 -14 10 -27 12 -30
6 -3 -5 0 -12 6 -15 7 -3 0 -3 -17 0 -23 4 -27 3 -15 -5 18 -13 1 -15 -18 -2
-11 6 -8 13 13 29 14 11 31 23 38 25 7 2 9 8 5 12 -4 4 -22 -3 -40 -17 -18
-13 -42 -28 -53 -32 -18 -7 -17 -9 10 -21 41 -18 23 -19 -20 -1 -34 14 -51 32
-20 19 13 -4 15 0 11 21 -3 14 0 26 6 26 5 0 7 -7 4 -16 -5 -12 0 -12 22 4 15
10 35 23 44 28 14 8 10 13 -24 32 -38 20 -40 21 -23 2z m35 -27 c-8 -3 -18
-11 -22 -17 -4 -6 -10 -7 -15 -3 -9 10 16 27 37 26 13 -1 13 -1 0 -6z m31
-130 c13 -17 13 -17 -6 -3 -11 8 -22 16 -24 17 -2 2 0 3 6 3 6 0 17 -8 24 -17z
m249 -93 c0 -5 -6 -10 -14 -10 -7 0 -19 -6 -25 -14 -16 -19 -58 -26 -58 -9 0
7 9 13 19 13 10 0 21 7 24 15 7 17 54 21 54 5z m33 -56 c-3 -8 -13 -14 -23
-14 -11 0 -22 -4 -25 -10 -10 -16 -41 -12 -56 7 -8 9 -9 14 -3 10 12 -7 74 13
74 24 0 4 9 5 19 2 12 -3 17 -11 14 -19z m91 -93 c6 -9 -69 -27 -88 -22 -5 1
-6 -5 -3 -14 10 -23 1 -18 -19 13 -15 23 -15 25 -1 13 12 -9 17 -10 17 -2 0 7
5 9 10 6 6 -3 10 -1 10 4 0 13 67 15 74 2z m36 -52 c15 -28 5 -23 -15 7 -9 15
-12 23 -6 20 6 -4 16 -16 21 -27z m-36 -5 c3 -8 2 -13 -3 -9 -5 3 -11 1 -13
-4 -1 -5 -16 -7 -32 -4 l-29 6 24 13 c32 18 46 17 53 -2z m111 -104 c3 -6 -1
-7 -9 -4 -18 7 -21 14 -7 14 6 0 13 -4 16 -10z m22 -50 c1 -14 0 -20 -5 -13
-4 6 -27 10 -55 9 -52 -2 -62 1 -48 18 6 6 31 11 57 11 42 0 47 -2 51 -25z
m20 -56 c-3 -3 -21 -9 -40 -13 -25 -6 -34 -5 -34 5 0 10 13 14 40 14 22 0 38
-3 34 -6z m30 -94 c18 0 33 -3 34 -7 0 -5 2 -17 4 -28 4 -20 3 -20 -10 -1 -11
14 -26 19 -54 18 -26 -1 -43 4 -52 15 -12 15 -12 16 4 10 10 -4 17 -2 17 5 0
9 3 9 12 0 7 -7 27 -12 45 -12z m0 -46 c-3 -3 -12 -4 -19 -1 -8 3 -5 6 6 6 11
1 17 -2 13 -5z m-27 -34 c0 -5 -2 -10 -4 -10 -3 0 -8 5 -11 10 -3 6 -1 10 4
10 6 0 11 -4 11 -10z"/>
<path d="M1557 3899 c-10 -6 -27 -9 -38 -6 -10 3 -19 1 -19 -3 0 -18 17 -18
55 0 22 10 36 19 30 19 -5 0 -18 -4 -28 -10z"/>
<path d="M1585 3862 c-19 -8 -35 -18 -35 -23 0 -5 -7 -9 -17 -9 -9 0 -13 -3
-9 -7 4 -4 26 -6 49 -4 38 2 43 0 43 -19 0 -19 -5 -21 -42 -18 -48 3 -47 -8 2
-28 19 -8 34 -19 34 -24 0 -18 -32 -11 -66 15 -29 22 -33 23 -45 9 -15 -19 1
-51 23 -46 7 2 10 1 6 -3 -17 -17 130 -105 176 -105 11 0 38 11 61 25 43 24
80 82 77 118 -1 27 -39 83 -70 103 -37 25 -142 34 -187 16z m205 -57 c7 -9 8
-15 2 -15 -5 0 -12 7 -16 15 -3 8 -4 15 -2 15 2 0 9 -7 16 -15z m-210 -127 c0
-14 -19 1 -31 25 -12 22 -12 22 10 3 11 -11 21 -23 21 -28z m54 13 c4 -5 -3
-7 -14 -4 -23 6 -26 13 -6 13 8 0 17 -4 20 -9z"/>
<path d="M1205 3804 c-86 -20 -135 -36 -135 -45 0 -4 -9 -10 -20 -14 -11 -3
-33 -20 -50 -36 -39 -40 -39 -75 0 -119 17 -18 30 -36 30 -39 0 -3 7 -15 15
-25 11 -15 17 -16 28 -7 12 9 14 8 14 -6 0 -40 3 -43 47 -43 39 0 49 5 86 44
60 63 90 110 105 168 11 46 11 55 -4 82 -10 17 -16 37 -14 44 6 15 -24 14
-102 -4z m15 -9 c0 -3 -10 -10 -22 -15 -22 -8 -22 -9 -2 -9 11 -1 29 6 40 14
25 19 54 19 54 0 0 -13 -145 -95 -169 -95 -24 0 4 30 47 50 26 12 37 19 24 17
-12 -3 -20 -1 -16 4 3 5 -1 9 -8 10 -7 0 1 7 17 14 35 17 35 16 35 10z m99
-75 c0 -10 -3 -8 -9 5 -6 13 -9 15 -9 5 -1 -8 -12 -28 -25 -45 -20 -24 -27
-28 -37 -17 -11 10 -10 12 1 12 7 0 11 2 8 5 -3 3 9 20 26 38 30 31 46 30 45
-3z m-82 -15 c-54 -50 -59 -52 -78 -28 -12 15 -12 16 3 10 9 -3 18 -2 20 2 4
11 81 61 93 61 5 0 -12 -20 -38 -45z m23 -128 c0 -2 -12 -14 -26 -28 -25 -22
-26 -23 -15 -2 9 18 19 26 39 32 1 1 2 0 2 -2z m-190 -27 c0 -5 -2 -10 -4 -10
-3 0 -8 5 -11 10 -3 6 -1 10 4 10 6 0 11 -4 11 -10z m66 -68 c-10 -2 -22 0
-28 6 -6 6 0 7 19 4 21 -5 23 -7 9 -10z"/>
<path d="M893 3785 c-32 -14 -53 -31 -53 -40 0 -10 5 -13 12 -9 6 4 8 3 4 -4
-8 -13 10 -62 24 -62 5 0 10 15 10 33 0 45 10 75 25 81 14 5 14 -11 -1 -75 -4
-19 -1 -28 10 -32 9 -4 16 -2 16 4 0 22 41 68 87 98 l46 31 -64 0 c-47 0 -78
-7 -116 -25z m97 -15 c0 -5 -5 -10 -11 -10 -5 0 -7 5 -4 10 3 6 8 10 11 10 2
0 4 -4 4 -10z m-113 -52 c-3 -8 -6 -5 -6 6 -1 11 2 17 5 13 3 -3 4 -12 1 -19z"/>
<path d="M792 3717 c-8 -10 -4 -16 19 -26 16 -7 27 -17 23 -22 -3 -5 2 -9 11
-9 13 0 11 7 -11 35 -30 40 -28 39 -42 22z"/>
<path d="M1414 3660 c12 -98 12 -108 5 -126 -10 -28 -30 53 -26 104 2 23 0 39
-5 36 -12 -8 -9 11 4 24 9 9 8 12 -5 12 -10 0 -20 -13 -26 -37 -20 -76 -31
-129 -31 -157 0 -25 2 -27 17 -15 15 13 15 12 3 -7 -21 -34 4 -110 42 -130 27
-14 32 -14 47 0 10 9 23 16 30 16 7 0 9 5 5 11 -4 8 1 9 17 3 37 -13 79 -9 97
10 20 19 23 119 4 138 -15 15 -17 -4 -3 -31 7 -13 6 -18 -3 -18 -9 0 -13 12
-12 36 3 40 -28 96 -46 85 -7 -4 -8 -2 -4 4 4 6 -8 32 -26 56 -27 36 -38 44
-62 43 l-28 -2 6 -55z m33 21 c-10 -12 -9 -14 5 -8 12 4 19 -2 26 -21 5 -15
19 -37 31 -49 21 -22 21 -22 1 -33 -15 -8 -20 -8 -20 2 0 7 -7 22 -16 33 -12
17 -16 18 -24 5 -13 -20 -17 -12 -22 42 -4 40 -2 46 13 45 15 -1 16 -4 6 -16z
m-70 -53 c-3 -8 -6 -5 -6 6 -1 11 2 17 5 13 3 -3 4 -12 1 -19z m-20 -40 c-3
-8 -6 -5 -6 6 -1 11 2 17 5 13 3 -3 4 -12 1 -19z m208 -178 c-3 -5 -12 -10
-18 -10 -7 0 -6 4 3 10 19 12 23 12 15 0z m-152 -10 c7 0 6 -4 -3 -10 -21 -14
-27 -12 -34 6 -5 12 -2 15 10 10 8 -3 21 -6 27 -6z"/>
<path d="M738 3668 c-17 -17 -16 -18 22 -18 44 0 52 12 18 27 -18 7 -27 5 -40
-9z"/>
<path d="M905 3646 c-18 -13 -18 -14 4 -21 23 -7 46 4 23 12 -6 3 -10 9 -6 14
7 13 1 11 -21 -5z"/>
<path d="M670 3619 l-35 -19 40 6 c30 4 36 3 25 -5 -13 -9 -13 -11 1 -11 8 0
21 6 28 13 10 10 11 9 6 -4 -4 -11 1 -18 17 -23 31 -8 63 -8 55 1 -4 3 0 17 8
30 l16 24 -45 -6 c-24 -4 -53 -2 -63 3 -13 7 -28 5 -53 -9z"/>
<path d="M843 3606 c-6 -19 -8 -37 -5 -40 3 -3 24 -6 48 -6 l42 0 -11 30 c-14
36 -31 40 -25 5 5 -26 -6 -32 -32 -15 -12 8 -12 10 -1 10 8 0 11 3 8 6 -3 4
-2 15 4 25 7 14 6 19 -4 19 -7 0 -18 -15 -24 -34z"/>
<path d="M946 3585 c4 -8 11 -15 16 -15 6 0 5 6 -2 15 -7 8 -14 15 -16 15 -2
0 -1 -7 2 -15z"/>
<path d="M2529 3548 c-8 -24 -14 -46 -14 -50 0 -3 -3 -10 -7 -14 -4 -4 -2 -14
5 -22 7 -10 8 -13 1 -9 -18 11 -25 -35 -24 -157 1 -61 -1 -119 -5 -129 -12
-29 12 -88 52 -132 20 -22 33 -33 30 -24 -5 16 -20 478 -18 547 2 43 -3 40
-20 -10z m-22 -250 c-3 -7 -5 -2 -5 12 0 14 2 19 5 13 2 -7 2 -19 0 -25z m0
-170 c-3 -7 -5 -2 -5 12 0 14 2 19 5 13 2 -7 2 -19 0 -25z"/>
<path d="M1202 3444 c-7 -8 -32 -14 -58 -14 -31 0 -44 -4 -42 -12 2 -6 11 -13
19 -16 11 -3 11 -2 -1 7 -9 7 -10 11 -3 11 19 0 25 -18 8 -27 -11 -7 -14 -18
-9 -41 8 -40 16 -40 37 1 25 47 40 70 57 83 8 7 13 15 10 17 -3 3 -11 -1 -18
-9z m-46 -59 c-24 -37 -34 -39 -15 -3 7 12 13 26 12 29 -1 3 4 6 11 6 9 0 6
-10 -8 -32z"/>
<path d="M1044 3406 c-14 -23 -14 -30 6 -102 11 -42 18 -86 15 -98 -2 -11 4
-3 15 19 23 46 24 61 8 71 -8 5 -9 0 -5 -17 6 -23 5 -23 -8 -5 -19 25 -20 50
-2 40 8 -5 7 -2 -2 9 -9 11 -12 32 -9 62 3 25 4 45 2 45 -2 0 -11 -11 -20 -24z"/>
<path d="M2877 3407 c-20 -11 -39 -27 -42 -36 -5 -13 -3 -13 12 1 10 9 35 21
55 26 30 8 36 8 31 -4 -3 -8 -1 -14 4 -14 20 0 37 -58 43 -140 l7 -85 1 75 c2
90 -24 179 -54 191 -14 5 -33 0 -57 -14z"/>
<path d="M2910 3352 c15 -13 27 -39 36 -83 l14 -64 -6 60 c-5 64 -25 105 -50
105 -12 0 -11 -4 6 -18z"/>
<path d="M2798 3323 c-52 -59 -62 -167 -23 -237 30 -55 31 -80 4 -154 -11 -31
-29 -88 -38 -127 -26 -100 -46 -155 -76 -209 -15 -26 -24 -50 -22 -53 10 -9
66 85 72 123 4 21 13 49 21 61 7 11 15 32 18 45 20 95 57 223 70 237 9 10 13
21 9 25 -4 4 0 4 10 0 12 -4 16 -2 14 7 -2 8 -2 11 0 7 14 -24 53 30 53 72 0
11 3 20 8 20 6 0 9 135 2 153 -1 4 -3 11 -4 17 0 5 -6 14 -12 20 -15 15 -45 0
-74 -37 -17 -21 -23 -24 -30 -13 -5 8 -2 22 7 37 18 27 13 30 -9 6z"/>
<path d="M987 3300 c-15 -30 -11 -74 10 -115 6 -11 17 -33 24 -50 10 -25 13
-27 17 -11 4 19 -26 96 -37 96 -4 0 -8 12 -9 26 -1 19 2 25 12 21 11 -4 14 3
13 29 -2 42 -11 43 -30 4z"/>
<path d="M1100 3324 c0 -17 17 -36 24 -26 3 5 -1 15 -9 22 -8 7 -15 9 -15 4z"/>
<path d="M1183 3307 c-33 -23 -62 -67 -40 -63 50 11 68 20 63 32 -3 8 -1 14 5
14 6 0 9 6 6 14 -3 8 -1 17 6 20 7 2 8 4 2 4 -5 0 -24 -10 -42 -21z m-3 -31
c0 -2 -7 -7 -16 -10 -8 -3 -12 -2 -9 4 6 10 25 14 25 6z"/>
<path d="M1021 3243 c0 -5 9 -26 20 -48 18 -37 17 -18 -2 33 -8 21 -20 31 -18
15z"/>
<path d="M929 3160 c-25 -75 -25 -76 -6 -108 19 -32 17 -62 -2 -62 -6 0 -8 7
-5 15 6 16 -19 48 -30 38 -12 -12 -6 -44 17 -81 12 -20 29 -50 36 -67 12 -30
12 -30 -6 -10 -10 11 -29 35 -42 53 -13 18 -26 30 -29 27 -4 -3 -2 -9 4 -13 5
-4 26 -33 47 -66 36 -58 36 -58 42 -30 4 16 15 60 25 98 l18 69 -25 49 c-14
27 -22 52 -19 55 3 4 1 12 -5 19 -6 8 -7 19 -2 29 7 11 15 -3 32 -57 19 -57
26 -69 31 -53 4 11 4 27 0 35 -22 47 -49 107 -52 120 -3 8 -16 -19 -29 -60z
m31 -100 c11 -21 20 -47 19 -57 0 -10 -6 -3 -13 16 -7 19 -17 36 -24 39 -6 2
-8 10 -5 19 4 11 2 14 -5 9 -7 -4 -12 -2 -12 3 0 24 21 9 40 -29z m0 -69 c0
-5 3 -18 6 -28 6 -16 5 -16 -9 2 -19 23 -21 35 -7 35 6 0 10 -4 10 -9z"/>
<path d="M2941 3134 c0 -11 3 -14 6 -6 3 7 2 16 -1 19 -3 4 -6 -2 -5 -13z"/>
<path d="M2973 3133 c-3 -10 -8 -22 -11 -27 -3 -5 0 -6 5 -3 11 7 25 47 17 47
-3 0 -7 -8 -11 -17z"/>
<path d="M2946 3073 c-6 -14 -5 -15 5 -6 7 7 10 15 7 18 -3 3 -9 -2 -12 -12z"/>
<path d="M4134 3050 l-62 -5 24 -80 c13 -44 23 -88 24 -97 0 -14 6 -16 33 -12
50 9 55 12 60 31 2 11 3 9 2 -4 -1 -15 3 -23 12 -23 12 0 13 9 8 43 -8 46 -33
149 -37 151 -2 1 -31 -1 -64 -4z m46 -70 c0 -5 -19 -10 -42 -10 -32 0 -39 3
-28 10 20 13 70 13 70 0z m20 -70 c3 0 -3 -7 -13 -15 -22 -16 -48 -9 -40 11 4
12 15 13 53 4z"/>
<path d="M2545 2921 c-3 -5 -8 -65 -11 -133 -3 -68 -8 -134 -11 -148 -9 -40
-10 -59 -3 -71 12 -18 48 0 58 30 11 30 9 43 -15 167 -8 44 -14 99 -11 122 4
44 3 48 -7 33z m20 -320 c3 -6 -4 -15 -15 -21 -13 -7 -20 -7 -20 0 0 5 7 10
16 10 8 0 12 5 9 10 -3 6 -4 10 -1 10 3 0 7 -4 11 -9z"/>
<path d="M847 2876 c-12 -83 -8 -104 27 -159 19 -29 31 -59 27 -65 -4 -7 -14
3 -26 26 -27 50 -45 69 -45 47 0 -14 77 -145 86 -145 2 0 3 19 2 43 -1 37 -39
133 -58 147 -3 3 -4 15 -1 28 5 19 11 14 38 -40 18 -35 33 -57 33 -50 0 7 -5
22 -12 35 -6 12 -16 31 -21 42 -6 11 -18 47 -27 79 l-17 60 -6 -48z"/>
<path d="M880 2881 c0 -6 4 -13 10 -16 6 -3 7 1 4 9 -7 18 -14 21 -14 7z"/>
<path d="M900 2846 c0 -2 9 -23 20 -47 19 -42 20 -43 19 -14 0 17 -6 38 -13
48 -12 15 -26 23 -26 13z"/>
<path d="M4200 2839 c-19 -4 -43 -6 -54 -3 -15 5 -17 2 -12 -23 18 -86 27
-192 25 -303 l-2 -125 39 3 c21 2 43 7 47 11 5 5 11 82 14 172 l6 164 -34 -1
c-45 -1 -69 6 -69 21 0 8 12 10 45 5 l45 -7 -1 49 c-1 26 -5 48 -8 47 -3 -1
-22 -5 -41 -10z m-3 -155 c-3 -3 -12 -4 -19 -1 -8 3 -5 6 6 6 11 1 17 -2 13
-5z m39 -29 c-26 -19 -56 -19 -56 0 0 11 11 15 38 15 35 -1 36 -2 18 -15z m9
-85 c-3 -5 -15 -10 -25 -10 -10 0 -22 5 -25 10 -4 6 7 10 25 10 18 0 29 -4 25
-10z"/>
<path d="M830 2651 c0 -7 9 -21 20 -33 11 -12 20 -30 20 -40 0 -10 4 -18 9
-18 12 0 22 -28 12 -34 -10 -7 -46 23 -54 44 -8 21 -8 -70 -1 -109 4 -17 11
-31 16 -31 5 0 8 6 5 13 -2 6 8 17 22 24 15 6 19 12 11 12 -18 1 -50 35 -50
53 0 6 10 0 23 -13 36 -39 53 -35 55 11 2 22 -2 40 -7 40 -6 0 -26 21 -46 46
-19 26 -35 42 -35 35z"/>
<path d="M830 2605 c0 -8 4 -15 10 -15 5 0 7 7 4 15 -4 8 -8 15 -10 15 -2 0
-4 -7 -4 -15z"/>
<path d="M2404 2482 c1 -15 8 -37 15 -49 6 -12 10 -26 9 -31 -5 -14 36 -82 49
-82 25 0 34 36 18 74 -9 20 -20 36 -25 36 -6 0 -9 4 -7 9 3 12 -41 71 -53 71
-5 0 -8 -12 -6 -28z m31 -22 c3 -5 1 -10 -4 -10 -6 0 -11 5 -11 10 0 6 2 10 4
10 3 0 8 -4 11 -10z"/>
<path d="M2686 2464 c-3 -9 -2 -23 4 -32 7 -14 9 -10 10 16 0 35 -5 41 -14 16z"/>
<path d="M870 2440 c0 -5 14 -10 32 -10 36 0 35 4 -4 14 -17 4 -28 2 -28 -4z"/>
<path d="M3785 3349 c-4 -5 -18 -14 -32 -20 -14 -5 -21 -14 -17 -21 4 -6 3 -8
-3 -5 -5 3 -26 -5 -46 -18 -20 -14 -41 -25 -46 -25 -6 0 -11 -4 -11 -10 0 -5
-5 -10 -11 -10 -6 0 -17 -7 -25 -15 -9 -8 -11 -15 -6 -15 6 0 17 -2 24 -5 8
-3 35 14 62 37 27 24 51 43 55 44 21 2 59 29 54 37 -3 6 -1 7 5 3 17 -10 32 2
25 19 -6 18 -19 19 -28 4z m-129 -111 c4 -6 3 -8 -4 -4 -6 3 -13 2 -17 -4 -3
-5 -11 -10 -18 -10 -6 0 -2 7 9 15 23 18 21 17 30 3z"/>
<path d="M3590 3189 c0 -5 5 -7 10 -4 6 3 10 8 10 11 0 2 -4 4 -10 4 -5 0 -10
-5 -10 -11z"/>
<path d="M2252 2160 c-45 -10 -53 -20 -73 -87 -19 -60 -18 -72 3 -56 18 13 68
34 68 28 0 -3 -20 -15 -45 -26 -27 -13 -52 -33 -60 -50 l-15 -28 30 10 c16 6
27 15 24 20 -3 5 1 6 9 3 7 -2 33 13 58 35 26 24 38 40 29 41 -8 0 0 9 17 20
51 31 59 101 11 99 -13 -1 -38 -5 -56 -9z"/>
<path d="M1748 1990 c-31 -32 -47 -57 -44 -66 3 -8 2 -13 -2 -10 -9 5 -42 -55
-42 -75 0 -37 135 91 147 140 3 14 10 31 15 37 5 8 2 14 -8 18 -12 5 -32 -8
-66 -44z m-5 -35 c-3 -9 -8 -14 -10 -11 -3 3 -2 9 2 15 9 16 15 13 8 -4z m-12
-68 c-10 -9 -11 -8 -5 6 3 10 9 15 12 12 3 -3 0 -11 -7 -18z m-21 -11 c0 -2
-8 -10 -17 -17 -16 -13 -17 -12 -4 4 13 16 21 21 21 13z"/>
<path d="M2855 2009 c-21 -19 -34 -38 -31 -46 3 -8 1 -11 -4 -8 -6 4 -20 -14
-31 -40 -36 -82 0 -112 65 -55 35 31 70 109 60 134 -3 8 0 17 5 21 14 8 4 25
-14 25 -8 0 -30 -14 -50 -31z"/>
<path d="M2454 2004 c-53 -55 -44 -80 17 -49 26 14 49 49 49 76 0 21 -35 7
-66 -27z"/>
<path d="M3095 1887 c-47 -64 -49 -69 -29 -65 16 3 70 95 62 104 -2 1 -16 -16
-33 -39z"/>
<path d="M3451 2005 c-35 -32 -101 -139 -101 -164 0 -17 38 4 83 47 24 24 35
42 32 53 -3 10 -1 20 5 24 6 3 7 11 4 17 -4 7 -2 8 5 4 9 -6 9 -11 0 -22 -6
-8 -9 -17 -6 -21 4 -3 11 7 18 23 6 16 15 36 20 46 16 32 -21 28 -60 -7z"/>
<path d="M3960 1534 c-6 -15 -13 -31 -16 -35 -13 -22 7 -6 26 20 12 18 16 32
10 36 -5 3 -15 -6 -20 -21z"/>
<path d="M4379 1553 c-1 -4 -1 -12 0 -16 1 -5 -3 -6 -8 -3 -11 7 -57 -45 -66
-75 -12 -38 7 -34 45 8 39 45 55 79 39 89 -5 3 -10 2 -10 -3z"/>
<path d="M900 1524 c-37 -43 -56 -81 -46 -92 12 -11 86 78 86 104 0 13 -2 24
-4 24 -2 0 -18 -16 -36 -36z"/>
<path d="M1026 1520 c-33 -37 -46 -77 -30 -93 10 -10 42 11 59 37 18 27 29 96
16 96 -5 0 -25 -18 -45 -40z"/>
<path d="M1707 1521 c-35 -39 -54 -77 -43 -88 9 -9 82 71 89 96 9 36 -9 33
-46 -8z"/>
<path d="M1788 1533 c-14 -4 -53 -91 -44 -100 1 -2 15 6 30 18 18 14 26 28 23
40 -3 11 -1 17 4 13 5 -3 9 -3 9 0 0 2 3 11 6 20 6 16 3 17 -28 9z"/>
<path d="M2259 1553 c-1 -4 -1 -12 0 -16 1 -5 -3 -6 -8 -2 -6 3 -24 -13 -41
-36 -48 -66 -38 -94 14 -40 16 16 25 34 21 40 -3 7 -1 10 5 9 15 -4 33 39 20
47 -6 4 -11 3 -11 -2z"/>
<path d="M3020 1524 c-36 -41 -56 -81 -47 -91 14 -13 78 60 91 105 11 33 -8
27 -44 -14z"/>
<path d="M3155 1531 c28 -12 58 -48 50 -60 -3 -6 1 -11 9 -11 11 0 46 56 46
74 0 0 -28 2 -63 3 -40 1 -55 -1 -42 -6z"/>
<path d="M3155 1453 c-11 -3 -29 -12 -40 -19 -19 -14 -19 -14 2 -14 11 0 31 9
44 20 13 10 22 19 19 19 -3 -1 -14 -4 -25 -6z"/>
<path d="M1957 1521 c-58 -64 -64 -121 -7 -66 17 16 28 35 25 43 -2 7 0 10 5
7 8 -5 30 32 30 51 0 14 -22 -1 -53 -35z m-7 -51 c0 -5 -5 -10 -11 -10 -5 0
-7 5 -4 10 3 6 8 10 11 10 2 0 4 -4 4 -10z"/>
<path d="M1448 1533 c-37 -41 -61 -81 -55 -95 6 -19 83 64 89 96 7 33 -2 33
-34 -1z"/>
<path d="M3780 1478 c-11 -18 -20 -39 -20 -47 0 -20 56 34 63 60 8 31 -21 22
-43 -13z"/>
<path d="M1191 1534 c-27 -35 -27 -48 2 -33 25 13 37 28 37 47 0 20 -17 14
-39 -14z"/>
<path d="M2616 1533 c-32 -34 -62 -90 -53 -99 14 -14 77 58 91 104 10 30 -7
28 -38 -5z"/>
<path d="M2880 1524 c-37 -43 -56 -81 -46 -92 10 -9 82 70 89 98 9 34 -10 32
-43 -6z"/>
<path d="M3500 1478 c-11 -18 -20 -39 -20 -47 0 -19 37 15 56 51 13 25 13 28
-1 28 -8 0 -24 -15 -35 -32z"/>
<path d="M1075 1193 c8 -15 30 -44 50 -63 28 -27 35 -30 35 -16 0 26 -41 96
-56 96 -7 0 -19 3 -28 6 -14 5 -14 3 -1 -23z m40 -23 c3 -5 1 -10 -4 -10 -6 0
-11 5 -11 10 0 6 2 10 4 10 3 0 8 -4 11 -10z"/>
<path d="M1150 1209 c0 -4 7 -12 15 -19 8 -7 15 -16 15 -21 0 -4 5 -20 12 -36
6 -15 10 -35 9 -44 -1 -14 14 -18 86 -25 106 -10 111 -10 193 -1 64 8 140 26
140 34 0 2 -10 21 -22 42 -16 28 -28 38 -45 37 -12 0 -25 -6 -27 -12 -2 -6 8
-9 27 -6 25 4 29 2 24 -12 -4 -10 -7 -19 -7 -20 0 -1 -19 0 -42 3 -47 7 -64
35 -34 57 14 10 -5 13 -101 18 -215 11 -243 12 -243 5z"/>
<path d="M1615 1190 c4 -6 11 -8 16 -5 14 9 11 15 -7 15 -8 0 -12 -5 -9 -10z"/>
<path d="M1660 1180 c0 -11 -4 -20 -10 -20 -19 0 -10 -27 13 -39 18 -9 36 -9
90 4 80 19 147 44 147 55 0 12 -199 17 -211 6 -6 -6 -9 -6 -9 2 0 7 -4 12 -10
12 -5 0 -10 -9 -10 -20z"/>
<path d="M1924 1181 c8 -12 -4 -42 -13 -37 -7 5 -25 -53 -35 -109 -2 -17 0
-37 5 -45 8 -12 18 -6 53 32 49 53 76 104 76 142 0 24 -3 26 -46 26 -25 0 -43
-4 -40 -9z m8 -135 c9 6 9 3 -1 -9 -8 -10 -14 -16 -15 -15 -1 2 -8 12 -16 23
-14 18 -14 19 2 7 10 -8 23 -10 30 -6z"/>
<path d="M3349 1185 c-3 -2 -91 -5 -197 -5 -106 -1 -192 -3 -192 -5 0 -11 65
-36 170 -66 109 -32 123 -33 275 -33 173 0 241 5 239 20 -1 5 -5 20 -9 34 -3
14 -3 20 2 13 6 -8 14 -3 25 18 l17 29 -163 0 c-89 0 -165 -2 -167 -5z"/>
<path d="M3719 1177 c-19 -14 -53 -77 -42 -77 22 2 98 48 111 68 14 21 13 22
-19 22 -19 0 -41 -6 -50 -13z"/>
<path d="M2540 1130 c-9 -6 -10 -10 -3 -10 6 0 15 5 18 10 8 12 4 12 -15 0z"/>
<path d="M2815 1119 c-7 -20 1 -33 53 -89 20 -20 25 -22 34 -10 8 12 9 12 4
-2 -5 -17 29 -46 40 -35 7 7 -18 57 -28 57 -4 0 -8 9 -8 19 0 18 -64 81 -82
81 -3 0 -10 -9 -13 -21z"/>
<path d="M1830 1110 c-8 -5 -75 -24 -149 -41 l-133 -31 40 -18 c22 -10 50 -28
61 -39 l21 -21 42 37 c23 21 55 50 71 66 16 15 32 27 37 27 4 0 13 7 20 15 14
17 11 19 -10 5z m-166 -106 c3 -8 2 -12 -4 -9 -6 3 -10 10 -10 16 0 14 7 11
14 -7z"/>
<path d="M2645 1098 c-49 -9 -85 -31 -72 -44 4 -4 14 -1 24 7 10 9 14 9 10 2
-10 -16 62 13 83 33 8 8 12 13 10 13 -3 -1 -27 -5 -55 -11z"/>
<path d="M1053 1057 c-52 -31 -70 -53 -35 -44 9 3 30 8 45 11 19 5 27 12 23
21 -3 9 0 12 9 9 9 -4 13 1 12 15 -1 12 -1 21 -2 20 0 0 -24 -15 -52 -32z"/>
<path d="M3746 1077 c-17 -13 -15 -15 23 -30 66 -27 80 -22 46 13 -32 33 -43
36 -69 17z"/>
<path d="M2528 1073 c7 -3 16 -2 19 1 4 3 -2 6 -13 5 -11 0 -14 -3 -6 -6z"/>
<path d="M1227 1002 c-15 -15 -27 -32 -27 -36 0 -4 -7 -14 -15 -22 -27 -27
-16 -36 14 -12 15 13 27 24 26 26 -2 2 5 12 16 23 16 16 27 49 16 49 -2 0 -15
-13 -30 -28z"/>
<path d="M3601 1005 c-1 -26 8 -39 37 -54 31 -16 37 -9 12 14 -11 10 -20 14
-20 9 -1 -5 -7 5 -15 21 -10 23 -14 26 -14 10z"/>
<path d="M1593 965 c15 -14 33 -25 40 -25 7 1 -1 12 -18 25 -39 32 -58 32 -22
0z"/>
<path d="M2566 960 c8 -44 24 -63 24 -29 0 14 -7 34 -15 45 -15 18 -16 17 -9
-16z"/>
<path d="M2645 960 c28 -12 37 -12 30 0 -3 6 -16 10 -28 9 -21 0 -21 -1 -2 -9z"/>
<path d="M3240 960 c-9 -6 -10 -10 -3 -10 6 0 15 5 18 10 8 12 4 12 -15 0z"/>
<path d="M1688 931 c-8 -11 -12 -37 -10 -65 l4 -46 18 23 c13 15 15 27 9 39
-5 10 -5 27 1 42 11 31 -3 35 -22 7z"/>
<path d="M3466 925 c-10 -7 -16 -19 -14 -25 2 -6 14 0 27 14 26 28 18 35 -13
11z"/>
<path d="M1625 878 c-4 -13 -13 -30 -20 -38 -14 -17 -37 -81 -31 -87 9 -9 47
24 61 53 17 36 20 80 6 89 -5 3 -13 -5 -16 -17z"/>
<path d="M3257 863 c3 -7 9 -13 13 -13 4 0 13 -14 20 -30 10 -24 15 -28 26
-19 8 6 13 21 12 34 -2 16 -11 24 -39 32 -30 8 -36 7 -32 -4z"/>
<path d="M1560 863 c-8 -4 -22 -15 -31 -26 -13 -16 -14 -26 -6 -48 13 -33 27
-28 27 9 0 15 7 38 16 50 8 12 14 22 12 21 -2 0 -10 -3 -18 -6z"/>
<path d="M3360 845 c7 -8 16 -12 21 -9 5 3 9 0 9 -5 0 -6 5 -11 10 -11 6 0 5
8 -2 20 -7 11 -21 20 -32 20 -15 0 -16 -3 -6 -15z"/>
<path d="M2040 845 c0 -2 20 -16 44 -30 55 -32 101 -38 139 -18 l31 15 -29 16
c-27 14 -185 29 -185 17z"/>
<path d="M3220 842 c0 -4 11 -23 25 -42 30 -41 33 -30 4 16 -21 34 -29 41 -29
26z"/>
<path d="M3466 823 c31 -24 54 -30 54 -13 0 9 -14 14 -32 11 -5 0 -8 5 -8 12
0 7 -9 13 -21 13 -19 0 -18 -2 7 -23z"/>
<path d="M1433 821 c-9 -14 -6 -16 11 -16 24 1 46 12 46 23 0 15 -47 9 -57 -7z"/>
<path d="M1767 832 c-24 -5 -17 -22 19 -43 36 -22 60 -23 67 -5 10 24 -49 57
-86 48z"/>
<path d="M1702 795 c-26 -57 -5 -100 29 -58 10 12 11 17 2 20 -7 2 -10 10 -7
18 3 8 2 21 -3 30 -8 14 -11 12 -21 -10z"/>
<path d="M3110 776 c0 -37 10 -56 31 -56 24 0 24 5 -2 46 -25 40 -29 42 -29
10z"/>
<path d="M1434 775 c-10 -8 -14 -15 -8 -15 6 0 17 7 24 15 16 19 9 19 -16 0z"/>
<path d="M3400 775 c7 -8 17 -15 22 -15 6 0 5 7 -2 15 -7 8 -17 15 -22 15 -6
0 -5 -7 2 -15z"/>
<path d="M1486 772 c-2 -4 -1 -14 5 -22 7 -12 9 -10 9 8 0 23 -5 28 -14 14z"/>
<path d="M2455 664 l0 -102 41 -20 42 -21 -10 42 c-9 40 -7 74 8 124 4 15 1
23 -13 27 -10 3 -29 16 -43 29 l-25 23 0 -102z m52 -96 c-3 -8 -6 -5 -6 6 -1
11 2 17 5 13 3 -3 4 -12 1 -19z"/>
<path d="M2736 725 c-20 -31 -10 -33 15 -3 21 24 23 28 10 28 -5 0 -16 -11
-25 -25z"/>
<path d="M2260 717 c0 -33 20 -78 31 -71 5 3 6 -1 4 -8 -3 -8 1 -22 9 -33 15
-19 15 -18 16 13 0 39 -20 92 -43 111 -15 12 -17 11 -17 -12z"/>
<path d="M2857 707 c-20 -11 -37 -25 -37 -30 0 -5 6 -4 13 2 8 6 17 8 20 4 4
-3 9 2 13 11 3 9 10 14 14 11 5 -3 12 0 15 6 12 19 0 18 -38 -4z"/>
<path d="M2764 677 c-3 -9 -16 -12 -34 -9 -44 6 -36 -4 16 -22 36 -12 44 -12
35 -2 -6 7 -9 21 -5 30 3 9 3 16 0 16 -4 0 -9 -6 -12 -13z"/>
<path d="M1840 662 c0 -14 37 -58 43 -52 3 3 -6 18 -19 33 -13 15 -24 24 -24
19z"/>
<path d="M1900 646 c0 -2 8 -10 18 -17 15 -13 16 -12 3 4 -13 16 -21 21 -21
13z"/>
<path d="M2011 634 c0 -11 3 -14 6 -6 3 7 2 16 -1 19 -3 4 -6 -2 -5 -13z"/>
<path d="M2560 618 c0 -20 5 -40 10 -43 13 -8 13 45 0 65 -7 11 -10 6 -10 -22z"/>
<path d="M2702 600 c-10 -16 -10 -20 0 -20 9 0 8 -3 -2 -10 -8 -5 -11 -12 -7
-16 10 -11 18 0 23 35 6 36 3 38 -14 11z"/>
<path d="M2774 584 c9 -8 16 -23 16 -32 0 -9 7 -25 14 -35 12 -16 14 -14 20
15 5 27 2 36 -15 51 -28 23 -58 24 -35 1z"/>
<path d="M2935 589 c22 -4 49 -8 60 -8 l20 0 -20 9 c-11 5 -38 8 -60 8 l-40 0
40 -9z"/>
<path d="M1904 526 c-33 -15 -50 -33 -40 -43 3 -3 24 6 46 21 56 37 54 48 -6
22z"/>
<path d="M1991 524 c0 -11 3 -14 6 -6 3 7 2 16 -1 19 -3 4 -6 -2 -5 -13z"/>
<path d="M2037 503 c8 -50 24 -91 30 -76 4 12 -24 113 -32 113 -2 0 -1 -17 2
-37z"/>
<path d="M2478 498 c11 -14 52 -31 52 -22 0 2 -15 11 -32 20 -28 14 -31 15
-20 2z"/>
<path d="M2001 484 c0 -11 3 -14 6 -6 3 7 2 16 -1 19 -3 4 -6 -2 -5 -13z"/>
<path d="M2424 476 c3 -22 36 -50 47 -39 6 6 -2 17 -20 31 -19 13 -28 16 -27
8z"/>
<path d="M1957 450 c-4 -14 -6 -36 -6 -50 1 -22 2 -20 10 8 6 19 9 41 7 50 -3
12 -6 10 -11 -8z"/>
<path d="M2257 423 c-18 -18 -4 -31 35 -31 52 -1 64 6 41 24 -19 14 -65 19
-76 7z m53 -13 c11 -8 9 -9 -12 -8 -16 1 -28 6 -28 10 0 11 22 10 40 -2z"/>
<path d="M2410 412 c0 -10 26 -34 50 -47 8 -4 2 6 -14 23 -32 34 -36 37 -36
24z"/>
<path d="M2307 345 c-15 -8 -31 -14 -35 -15 -13 -1 -52 -40 -52 -51 0 -27 102
25 115 59 8 22 2 23 -28 7z m-22 -35 c3 -5 1 -10 -4 -10 -6 0 -11 5 -11 10 0
6 2 10 4 10 3 0 8 -4 11 -10z"/>
<path d="M2380 325 c0 -16 57 -81 64 -74 4 3 -9 24 -29 45 -19 21 -35 34 -35
29z"/>
<path d="M2336 256 c-3 -13 -2 -35 3 -48 6 -15 10 -17 10 -7 1 9 4 31 7 48 8
37 -11 43 -20 7z"/>
<path d="M2185 969 c-10 -15 3 -25 16 -12 7 7 7 13 1 17 -6 3 -14 1 -17 -5z"/>
<path d="M2160 510 c0 -5 7 -10 16 -10 8 0 12 5 9 10 -3 6 -10 10 -16 10 -5 0
-9 -4 -9 -10z"/>
</g>
</svg>
